<svg width="24" height="24" viewBox="0 0 24 24" fill="none" xmlns="http://www.w3.org/2000/svg">
                  <path d="M19.6212 7.24201C19.0487 7.49528 18.4415 7.66161 17.8197 7.73551C18.475 7.34358 18.9655 6.72677 19.1997 6.00001C18.5847 6.36601 17.9105 6.62251 17.2077 6.76126C16.7357 6.25619 16.11 5.92123 15.428 5.80844C14.7459 5.69566 14.0457 5.81137 13.4362 6.1376C12.8267 6.46382 12.342 6.98227 12.0576 7.61235C11.7731 8.24243 11.7048 8.94884 11.8632 9.62176C10.6161 9.55925 9.39598 9.23515 8.2822 8.6705C7.16842 8.10586 6.18583 7.31329 5.39823 6.34426C5.11945 6.82309 4.97295 7.36743 4.97373 7.92151C4.97373 9.00901 5.52723 9.96976 6.36873 10.5323C5.87074 10.5166 5.38371 10.3821 4.94823 10.14V10.179C4.94838 10.9033 5.19901 11.6052 5.65762 12.1658C6.11623 12.7264 6.7546 13.1111 7.46448 13.2548C7.0022 13.38 6.51746 13.3985 6.04698 13.3088C6.24713 13.9322 6.63724 14.4774 7.16268 14.8681C7.68812 15.2588 8.32258 15.4754 8.97723 15.4875C8.32659 15.9985 7.58162 16.3762 6.78489 16.5991C5.98817 16.822 5.15533 16.8857 4.33398 16.7865C5.76776 17.7086 7.43681 18.1981 9.14148 18.1965C14.9112 18.1965 18.0665 13.4168 18.0665 9.27151C18.0665 9.13651 18.0627 9.00001 18.0567 8.86651C18.6709 8.42263 19.2009 7.87277 19.622 7.24276L19.6212 7.24201Z" fill="currentColor"></path>
                </svg>