<svg width="24" height="24" viewBox="0 0 24 24" fill="none" xmlns="http://www.w3.org/2000/svg">
                  <path d="M12 4.5C14.0378 4.5 14.292 4.5075 15.0915 4.545C15.8903 4.5825 16.434 4.70775 16.9125 4.89375C17.4075 5.08425 17.8245 5.34225 18.2415 5.7585C18.6229 6.13342 18.918 6.58694 19.1063 7.0875C19.2915 7.56525 19.4175 8.10975 19.455 8.9085C19.4903 9.708 19.5 9.96225 19.5 12C19.5 14.0378 19.4925 14.292 19.455 15.0915C19.4175 15.8903 19.2915 16.434 19.1063 16.9125C18.9185 17.4133 18.6233 17.867 18.2415 18.2415C17.8665 18.6227 17.413 18.9178 16.9125 19.1063C16.4347 19.2915 15.8903 19.4175 15.0915 19.455C14.292 19.4903 14.0378 19.5 12 19.5C9.96225 19.5 9.708 19.4925 8.9085 19.455C8.10975 19.4175 7.566 19.2915 7.0875 19.1063C6.58674 18.9184 6.13315 18.6232 5.7585 18.2415C5.37705 17.8666 5.08195 17.4131 4.89375 16.9125C4.70775 16.4347 4.5825 15.8903 4.545 15.0915C4.50975 14.292 4.5 14.0378 4.5 12C4.5 9.96225 4.5075 9.708 4.545 8.9085C4.5825 8.109 4.70775 7.566 4.89375 7.0875C5.08143 6.58663 5.3766 6.13299 5.7585 5.7585C6.13325 5.37692 6.58682 5.0818 7.0875 4.89375C7.566 4.70775 8.109 4.5825 8.9085 4.545C9.708 4.50975 9.96225 4.5 12 4.5ZM12 8.25C11.0054 8.25 10.0516 8.64509 9.34835 9.34835C8.64509 10.0516 8.25 11.0054 8.25 12C8.25 12.9946 8.64509 13.9484 9.34835 14.6517C10.0516 15.3549 11.0054 15.75 12 15.75C12.9946 15.75 13.9484 15.3549 14.6517 14.6517C15.3549 13.9484 15.75 12.9946 15.75 12C15.75 11.0054 15.3549 10.0516 14.6517 9.34835C13.9484 8.64509 12.9946 8.25 12 8.25ZM16.875 8.0625C16.875 7.81386 16.7762 7.5754 16.6004 7.39959C16.4246 7.22377 16.1861 7.125 15.9375 7.125C15.6889 7.125 15.4504 7.22377 15.2746 7.39959C15.0988 7.5754 15 7.81386 15 8.0625C15 8.31114 15.0988 8.5496 15.2746 8.72541C15.4504 8.90123 15.6889 9 15.9375 9C16.1861 9 16.4246 8.90123 16.6004 8.72541C16.7762 8.5496 16.875 8.31114 16.875 8.0625ZM12 9.75C12.5967 9.75 13.169 9.98705 13.591 10.409C14.0129 10.831 14.25 11.4033 14.25 12C14.25 12.5967 14.0129 13.169 13.591 13.591C13.169 14.0129 12.5967 14.25 12 14.25C11.4033 14.25 10.831 14.0129 10.409 13.591C9.98705 13.169 9.75 12.5967 9.75 12C9.75 11.4033 9.98705 10.831 10.409 10.409C10.831 9.98705 11.4033 9.75 12 9.75Z" fill="currentColor"></path>
                </svg>