<svg width="1432" height="1037" viewBox="0 0 1432 1037" fill="none" xmlns="http://www.w3.org/2000/svg">
<path opacity="0.3" d="M0 0.423128H237.145L158.812 57.1301H0L0 58.1707L0.244547 57.9937H157.613L79.2809 114.701H0L0 115.564H79.2809L157.613 172.271H0L0 518.567H79.2809L157.613 575.274H0L0 576.314L78.088 632.844H0L0 633.708H79.2809L157.613 690.415H0L0 1036.29H239.179V864.612L317.511 921.319V1036.29H318.949L318.704 1036.11V922.187L397.037 978.894V1036.29H398.23V978.894L476.562 922.187V1036.29H477.755V922.187L556.088 978.894V1036.29H557.281V979.757L635.375 1036.29H636.812V922.187L715.145 978.894V1036.29H1431.49V690.423L1273.87 690.423L1352.21 633.716L1431.49 633.716V632.853L1352.21 632.853L1273.87 576.146L1431.24 576.146L1431.49 576.323V575.282L1272.68 575.282L1194.35 518.575H1431.49V172.28H1352.21L1351.97 172.103L1351.72 172.28H1273.88L1352.21 115.573H1431.49V114.709H1353.41L1431.49 58.1793V57.1388H1273.88L1352.21 0.431772H1431.49V-1.79923e-05H715.151L715.151 171.675L636.818 114.968L636.818 0.00430412H635.381L635.625 0.1813L635.625 114.105L557.293 57.3978V0.00430412H556.1V57.3978L477.767 114.105V0.00430412H476.574V114.105L398.242 57.3978V0.00430412H397.049V56.5342L318.961 0.00430412H317.523V114.105L239.191 57.3978V0.00430412H0L0 0.436094L0 0.423128ZM80.3724 115.137L159.301 57.998H237.986V172.28H159.301L80.3724 115.141V115.137ZM160.494 57.1345L237.986 1.03624V57.1345H160.494ZM1351.37 402.817L1273.04 459.524V345.6L1351.37 288.893V402.817ZM1192.32 632.24L1113.98 575.533V460.746L1192.32 404.039V632.24ZM1351.37 748.607V862.531L1273.04 805.824V691.9L1351.37 748.607ZM875.048 978.285L796.716 921.578H954.085L1032.42 978.285L875.048 978.285ZM716.344 864.616L793.835 920.714H716.344V864.616ZM556.446 863.139H397.884L319.551 806.432H635.977L714.31 863.139H556.941L556.696 862.962L556.452 863.139H556.446ZM158.46 691.896L158.46 805.819L80.1279 862.526V748.603L158.46 691.896ZM80.1279 460.387L80.1279 346.464L158.46 403.171V517.094L80.1279 460.387ZM795.875 172.884L874.208 116.177V230.101L795.875 286.808V172.884ZM874.804 230.887L953.733 288.025V344.987L795.869 344.987V288.025L874.798 230.887H874.804ZM1272.69 173.135H1350.53L1193.51 286.803V173.135H1272.2L1272.44 173.312L1272.69 173.135ZM1192.32 402.812L1113.39 459.951L1034.46 402.812V345.851H1192.32V402.812H1192.32ZM1112.79 460.741V574.665L1034.46 517.958V404.034L1112.79 460.741ZM1271.85 920.96L1193.51 977.667V749.466L1271.85 806.173V920.96ZM1035.3 863.999L1192.32 863.999V977.667L1035.3 863.999ZM160.494 517.707L237.986 461.609V517.707H160.494ZM159.653 288.03L237.986 231.323L237.986 459.524L159.653 402.817L159.653 288.03ZM397.884 173.139H556.446L634.778 229.846H318.352L240.02 173.139H397.389L397.633 173.316L397.878 173.139H397.884ZM1033.26 401.953L955.767 345.855H1033.26V401.953ZM1033.26 632.24L954.926 575.533V517.707V346.464L1033.26 403.171V632.24ZM1192.32 747.994H1114.82L1192.32 691.896V747.994ZM1193.51 691.287H1271L1193.51 747.385V691.287ZM1192.32 748.858V863.139L1113.63 863.139L1034.7 806.001L1113.63 748.862H1192.32V748.858ZM397.884 747.994L319.551 691.287H476.568H634.778L556.446 747.994H397.884ZM239.423 633.28L239.179 633.103V460.746L317.511 404.039L317.511 633.108L239.179 689.815V633.462L239.423 633.285V633.28ZM714.304 287.417H556.935L478.602 230.71H635.971L714.304 287.417ZM1033.6 806.428L1111.94 863.135H796.704L875.037 806.428H1033.6H1033.6ZM716.338 807.037L793.829 863.135H716.338V807.037ZM795.267 862.954L717.179 806.424H873.355L795.267 862.954ZM715.145 690.415H558.128L636.46 633.708H795.022L873.355 690.415H715.145ZM317.505 634.317V690.415H240.014L317.505 634.317ZM318.698 690.415V633.453L397.627 576.314L476.556 633.453V690.415H318.692H318.698ZM556.44 288.276L634.772 344.983H397.878L397.633 344.806L397.389 344.983H319.545L397.878 288.276H556.44ZM714.304 288.276L636.216 344.806L558.128 288.276H714.304ZM952.886 345.846L874.553 402.553H558.128L636.216 346.023L636.46 345.846H715.145L952.88 345.846H952.886ZM398.23 575.524L398.23 460.737L476.562 404.03V460.379L476.318 460.556L476.562 460.733V518.558L476.562 632.227L398.23 575.52V575.524ZM714.304 403.417L635.971 460.124H478.602L556.935 403.417H714.304ZM556.935 575.269L478.602 518.562H556.44L556.684 518.739L556.929 518.562H715.735H795.016L873.349 575.269H556.923H556.935ZM477.755 519.171L555.247 575.269H477.755L477.755 519.171ZM796.71 518.562L953.727 518.562V632.231L796.71 518.562ZM477.755 517.699V461.601L555.247 517.699H477.755ZM478.596 460.992H634.772L556.684 517.522L478.596 460.992ZM477.755 459.515V403.167L478 402.989L477.755 402.812V345.851H634.772L477.755 459.519V459.515ZM476.562 401.945L399.071 345.846H476.562V401.945ZM476.318 402.989L398.23 459.519V346.46L476.318 402.989ZM477.755 576.137H556.44L635.369 633.276L556.44 690.415H477.755V576.133V576.137ZM636.46 632.844L558.128 576.137H715.497L793.829 632.844H636.46ZM717.179 576.137H874.547L952.88 632.844H795.511L717.179 576.137ZM952.88 633.708L874.792 690.238L796.704 633.708H952.88ZM953.721 634.317V690.415H876.229L953.721 634.317ZM715.735 517.699H558.122L636.454 460.992H795.016L873.349 517.699H715.735ZM637.647 460.128L715.98 403.421H873.349L795.016 460.128H637.647ZM239.167 345.846H396.184L239.167 459.515V345.846ZM397.031 346.455V460.379L318.698 517.086V403.162L397.031 346.455ZM318.698 518.308L397.031 461.601L397.031 575.524L318.698 632.231L318.698 518.308ZM875.042 517.699L796.114 460.56L875.042 403.421L953.727 403.421V517.703L875.042 517.703V517.699ZM876.235 402.553L953.727 346.455V402.553L876.235 402.553ZM637.653 344.983L715.145 288.885V344.983H637.653ZM476.908 230.701L555.241 287.408H397.872L319.539 230.701H476.908ZM396.786 287.84L317.857 344.979H239.173L239.173 230.697H317.857L396.786 287.835V287.84ZM316.664 691.274L239.173 747.372V691.274H316.664ZM240.02 747.981L318.108 691.451L396.196 747.981H240.02ZM1033.6 805.552H876.235L954.568 748.845H1111.94L1033.6 805.552ZM952.886 748.845L874.553 805.552H717.185L795.517 748.845H952.886ZM716.338 804.943V691.274H873.355L716.338 804.943ZM954.92 633.449L955.164 633.272L954.92 633.095V576.746L1111.94 690.415H954.92V633.453V633.449ZM715.145 286.795L558.128 173.126H715.145V286.795ZM316.664 229.833H239.173V173.735L316.664 229.833ZM237.735 460.551L159.647 517.081V404.021L237.735 460.551ZM237.98 747.368L160.488 691.27H237.98V747.368ZM237.735 748.408L159.647 804.938L159.647 691.879L237.735 748.408ZM239.173 749.449L396.19 863.118H239.173L239.173 749.449ZM240.014 748.84H397.383L475.715 805.547H318.346L240.014 748.84ZM477.403 805.547L399.071 748.84H556.44L634.772 805.547H477.403ZM557.525 748.408L636.454 691.27H715.139V805.552H636.454L557.525 748.413V748.408ZM715.139 806.411V862.509L637.647 806.411H715.139ZM1193.74 748.408L1271.83 691.879V804.938L1193.74 748.408ZM1113.12 747.977H796.704L874.792 691.447L875.037 691.27H954.914H1113.12L1113.37 691.447L1113.61 691.27H1191.46L1113.12 747.977ZM1112.77 689.793L1034.44 633.086V519.163L1112.77 575.87V689.793ZM1113.96 576.733L1192.05 633.263L1113.96 689.793V576.733ZM1192.3 344.97H1035.28L1192.3 231.301V344.97ZM1034.43 344.361V230.438L1112.77 173.731V287.654L1034.43 344.361ZM1033.24 344.361L955.153 287.831L1033.24 231.301V344.361ZM1032.4 344.97H954.908V288.872L1032.4 344.97ZM794.658 344.97H717.167L794.658 288.872V344.97ZM78.929 173.139L78.929 229.237L1.43746 173.139H78.929ZM80.1219 173.139H237.986V230.101L159.057 287.24L80.1279 230.101L80.1279 173.139H80.1219ZM158.454 288.03L158.454 401.953L80.1219 345.246V231.323L158.454 288.03ZM237.98 690.423H160.488L237.98 634.325V690.423ZM80.1219 863.748L158.454 807.041V920.965L80.1219 977.672L80.1219 863.748ZM159.647 920.965V806.178L237.98 749.471L237.98 977.672L159.647 920.965ZM717.185 864.003H795.028L795.272 864.18L795.517 864.003H1033.6L1111.94 920.71L795.511 920.71L717.179 864.003H717.185ZM955.767 921.573L1113.14 921.573L1191.47 978.28H1034.1L955.767 921.573ZM1191.47 979.144L1113.39 1035.68L1035.3 979.148H1191.47L1191.47 979.144ZM1272.44 921.751L1351.37 978.889V1035.86H1193.5V978.894L1272.43 921.755L1272.44 921.751ZM1273.03 920.96V807.037L1351.37 863.744V977.672L1273.03 920.965V920.96ZM1114.82 690.419L1192.32 634.321V690.419H1114.82ZM1194.35 517.703L1271.84 461.605V517.703H1194.35ZM1193.51 517.094V345.851V288.025L1271.84 231.318V460.383L1193.51 517.09V517.094ZM1273.03 344.378V230.455L1351.37 173.748V287.671L1273.03 344.378ZM1352.56 173.748L1430.65 230.278L1352.56 286.808V173.748ZM1192.31 114.955L1192.06 115.132L1192.31 115.309V230.097L1113.98 286.803V57.7346L1192.31 1.02759V114.951V114.955ZM1112.78 172.526L1034.45 229.233V115.309L1112.78 58.6025V172.526ZM1033.26 115.309V230.097L954.926 286.803L954.926 58.6025L1033.26 115.309ZM953.733 286.803L875.4 230.097V115.309L953.733 58.6025L953.733 286.808V286.803ZM875.4 114.087L875.4 1.02759L953.488 57.5576L875.4 114.087ZM874.208 114.951L795.875 171.658L795.875 57.7346L874.208 1.02759L874.208 114.951ZM794.682 287.667L716.349 344.374V288.021L716.594 287.844L716.349 287.667V115.309L794.682 58.6025L794.682 287.667ZM78.935 230.451L78.935 459.519L0.596456 402.817L0.596456 173.748L78.929 230.455L78.935 230.451ZM0.596456 404.039L157.613 517.707H0.596456L0.596456 404.039ZM158.806 518.571L159.051 518.748L159.295 518.571H237.98V632.24L80.9629 518.571H158.806ZM1.43746 576.142H158.806L237.139 632.849H79.776L1.43746 576.142ZM80.9629 633.712H237.139L159.051 690.242L80.9629 633.712ZM0.596456 691.287H157.613L0.596456 804.956L0.596456 691.287ZM0.596456 806.178L78.929 749.471L78.929 978.535L0.596456 1035.25L0.596456 806.182V806.178ZM78.929 979.757V1035.86H1.43746L78.929 979.757ZM80.1219 1035.86V978.894L159.051 921.755L237.98 978.894V1035.86H80.1219ZM240.02 864.003H317.511V920.101L240.02 864.003ZM318.704 920.965V864.003H476.568V920.965L476.324 921.142L397.639 978.103L318.71 920.965H318.704ZM477.761 864.003H555.253L477.761 920.101V864.003ZM478.006 921.142L556.094 864.612V977.672L478.006 921.142ZM635.625 1035.25L557.293 978.54V864.616L635.625 921.323V1035.25ZM558.134 864.003H715.151V977.672L558.134 864.003ZM716.344 921.573H795.028L873.957 978.712L795.028 1035.86H716.344V921.573ZM796.716 1035.86L875.048 979.148L1033.61 979.148L1111.94 1035.86H796.71H796.716ZM1192.32 979.757V1035.86H1114.82L1192.32 979.757ZM1352.57 1035.86V979.757L1430.06 1035.86H1352.57ZM1352.57 978.535V749.471L1430.9 806.178V1035.25L1352.57 978.54V978.535ZM1430.9 804.956L1273.88 691.287L1430.9 691.287V804.956ZM1351.12 633.28L1272.44 690.242L1272.19 690.419H1193.51V633.457L1193.75 633.28L1193.51 633.103V576.142H1272.19L1351.12 633.28ZM1193.51 575.278V519.18L1271 575.278H1193.51ZM1273.03 517.707V460.746L1351.96 403.607L1430.89 460.746V517.707H1273.03H1273.03ZM1430.9 459.524L1352.57 402.817V288.03L1430.9 231.323V459.528V459.524ZM1430.9 229.237L1353.41 173.139H1430.9V229.237ZM1193.51 172.276V116.177L1271 172.276H1193.51ZM1272.44 172.098L1194.35 115.569H1350.53L1272.44 172.098ZM1430.05 57.998L1351.72 114.705H1194.35L1272.68 57.998H1430.05ZM1350.53 0.42745L1193.51 114.096V0.42745H1350.53ZM1191.47 0.42745L1113.98 56.5256V0.42745H1191.47ZM1112.79 57.3891L1033.86 114.528L954.932 57.3891V0.42745H1112.8V57.3891H1112.79ZM953.733 0.42745V56.5256L876.241 0.42745H953.733ZM716.344 114.096L716.344 0.42745H873.361L716.344 114.096ZM714.304 172.28H636.812V116.182L714.304 172.28ZM635.619 115.318V172.28H477.755V115.318L478 115.141L556.684 58.1793L635.613 115.318H635.619ZM476.562 172.28H399.071L476.562 116.182V172.28ZM476.318 115.141L398.23 171.671V58.6111L476.318 115.141ZM318.704 1.04056L397.037 57.7476V171.671L318.704 114.964V1.04056ZM396.196 172.284H239.179V58.6155L396.196 172.284Z" fill="url(#paint0_radial_2681_8)"/>
<defs>
<radialGradient id="paint0_radial_2681_8" cx="0" cy="0" r="1" gradientUnits="userSpaceOnUse" gradientTransform="translate(715.747 533.485) rotate(-90) scale(403.627 557.552)">
<stop stop-color="#9BDDFD"/>
<stop offset="0.21" stop-color="#81B7F0"/>
<stop offset="0.43" stop-color="#449BF1"/>
<stop offset="1" stop-color="#9BDDFD" stop-opacity="0"/>
</radialGradient>
</defs>
</svg>
