<svg width="106" height="105" viewBox="0 0 106 105" fill="none" xmlns="http://www.w3.org/2000/svg">
<path d="M82.7015 6.83804e-06C76.7152 -0.00465321 70.9716 2.37268 66.7316 6.61016C62.4915 10.8476 60.1014 16.599 60.086 22.6017V47.6616C57.7569 47.8192 55.3754 47.9185 52.9066 47.9185C50.4377 47.9185 48.0679 48.0177 45.7271 48.1579V22.6017C45.6319 16.651 43.2076 10.9764 38.9773 6.80196C34.747 2.62754 29.0497 0.287972 23.1145 0.287972C17.1794 0.287972 11.4821 2.62754 7.25178 6.80196C3.02146 10.9764 0.597184 16.651 0.501953 22.6017V82.4955C0.597184 88.4462 3.02146 94.1208 7.25178 98.2952C11.4821 102.47 17.1794 104.809 23.1145 104.809C29.0497 104.809 34.747 102.47 38.9773 98.2952C43.2076 94.1208 45.6319 88.4462 45.7271 82.4955V57.4356C48.0562 57.278 50.4377 57.1787 52.9066 57.1787C55.3754 57.1787 57.7453 57.0795 60.086 56.9393V82.4955C60.1812 88.4462 62.6055 94.1208 66.8358 98.2952C71.0662 102.47 76.7634 104.809 82.6986 104.809C88.6337 104.809 94.331 102.47 98.5614 98.2952C102.792 94.1208 105.216 88.4462 105.311 82.4955V22.6017C105.296 16.6 102.907 10.8495 98.6677 6.61222C94.4289 2.37491 88.6868 -0.00310598 82.7015 6.83804e-06ZM23.1116 9.26024C26.6446 9.25868 30.0338 10.6625 32.5358 13.1637C35.0378 15.6649 36.4481 19.0591 36.4573 22.6017V49.1388C29.8414 50.1001 23.3808 51.9317 17.2423 54.5863C14.5827 55.7568 12.079 57.2553 9.78921 59.0471V22.6017C9.79845 19.0632 11.2056 15.6724 13.7025 13.1719C16.1995 10.6714 19.5827 9.26486 23.1116 9.26024ZM36.4573 82.4955C36.4573 86.0447 35.0513 89.4485 32.5485 91.9582C30.0457 94.4679 26.6511 95.8778 23.1116 95.8778C19.5721 95.8778 16.1776 94.4679 13.6748 91.9582C11.172 89.4485 9.76593 86.0447 9.76593 82.4955V76.4874C9.76593 71.18 13.9583 66.1529 20.9863 63.0233C25.9384 60.881 31.1344 59.3573 36.4573 58.4866V82.4955ZM82.7015 95.837C79.1686 95.8385 75.7793 94.4347 73.2774 91.9335C70.7754 89.4323 69.3651 86.0381 69.3558 82.4955V55.9584C75.9717 54.9971 82.4324 53.1655 88.5708 50.5109C91.2305 49.3404 93.7341 47.8419 96.0239 46.0501V82.4955C96.0147 86.034 94.6076 89.4248 92.1106 91.9253C89.6137 94.4258 86.2304 95.8323 82.7015 95.837ZM84.8268 42.0389C79.8747 44.1812 74.6787 45.7049 69.3558 46.5756V22.6017C69.3558 19.0525 70.7619 15.6487 73.2647 13.139C75.7675 10.6293 79.162 9.21937 82.7015 9.21937C86.241 9.21937 89.6355 10.6293 92.1384 13.139C94.6412 15.6487 96.0472 19.0525 96.0472 22.6017V28.6098C96.0472 33.8939 91.8549 38.921 84.8268 42.0389Z" fill="white"/>
</svg>
