<svg width="201" height="201" viewBox="0 0 201 201" fill="none" xmlns="http://www.w3.org/2000/svg">
<g clip-path="url(#clip0_2712_178)">
<path fill-rule="evenodd" clip-rule="evenodd" d="M192.071 103.415C192.052 104.034 191.21 104.197 190.966 103.627C190.862 103.38 190.756 103.134 190.647 102.886C190.448 102.434 190.504 101.908 190.801 101.513C190.861 101.432 190.986 101.268 191.135 101.073C191.536 100.549 192.114 100.628 192.114 101.209C192.114 101.972 192.096 102.633 192.071 103.415ZM187.638 91.2994C186.955 92.5301 185.205 92.5866 184.447 91.4003C184.329 91.217 184.21 91.0336 184.091 90.8492C181.359 86.651 178.214 82.5302 174.703 78.5253C173.84 77.5424 174.545 75.999 175.853 75.998H175.884C184.091 75.998 188.393 78.0266 189.706 80.5035C190.802 82.5751 190.466 86.1983 187.638 91.2994ZM185.804 134.244C185.364 135.365 184.903 136.478 184.419 137.581C184.343 137.733 184.272 137.887 184.194 138.038C181.174 143.855 176.105 148.436 169.332 151.624C167.813 152.339 166.15 150.948 166.602 149.33C168.851 141.275 170.554 132.54 171.657 123.382C171.862 121.675 172.704 120.107 174.005 118.982C176.79 116.571 179.391 114.163 181.783 111.772L181.809 111.745C182.987 110.57 184.995 111.076 185.475 112.67C187.839 120.534 187.97 127.857 185.804 134.244ZM167.393 163.324C166.704 164.061 166.001 164.789 165.284 165.507C164.036 166.754 162.757 167.961 161.452 169.127C160.628 169.861 159.382 168.942 159.848 167.941C159.981 167.655 160.113 167.368 160.245 167.078C160.793 165.867 161.323 164.625 161.839 163.36C161.961 163.061 162.218 162.838 162.53 162.758C163.829 162.428 165.095 162.064 166.329 161.666C167.328 161.344 168.111 162.557 167.393 163.324ZM153.873 156.053C151.139 156.45 148.263 156.706 145.255 156.812C137.917 157.069 130.156 156.435 122.185 154.967C121.213 154.788 121.026 153.473 121.908 153.027C123.647 152.146 125.386 151.246 127.125 150.324C139.322 143.854 150.703 136.783 160.666 129.533C161.413 128.989 162.442 129.631 162.29 130.543C160.909 138.852 158.996 146.674 156.593 153.774C156.184 154.984 155.136 155.87 153.873 156.053ZM151.054 167.124C144.514 179.994 136.46 187.219 128.653 187.074C120.168 186.923 111.707 178.081 105.442 162.817L105.434 162.8C105.036 161.832 105.494 160.722 106.453 160.306C106.519 160.276 106.586 160.247 106.652 160.217C107.064 160.038 107.525 160.006 107.958 160.128C119.678 163.42 131.226 165.137 142.046 165.137C143.221 165.137 144.389 165.117 145.547 165.077C146.902 165.028 148.236 164.952 149.546 164.848C150.761 164.752 151.607 166.036 151.054 167.124ZM112.328 191.599C108.44 192.098 104.494 192.354 100.509 192.354C82.704 192.354 65.6737 187.305 51.0523 177.883C50.0463 177.234 50.4739 175.673 51.6694 175.618C51.9172 175.606 52.1491 175.593 52.3529 175.581C56.0685 175.339 60.1428 174.794 64.5574 173.943C73.9477 172.136 84.3864 169.035 95.3162 164.86C96.2961 164.485 97.3899 164.972 97.7891 165.942L97.7961 165.959C102.032 176.279 107.245 184.076 113.098 189.037C114.065 189.858 113.585 191.437 112.328 191.599ZM59.3543 127.373C67.426 120.796 76.8838 114.233 87.2585 108.02C87.4814 121.298 88.9364 134.046 91.5117 145.561C87.6637 143.919 83.8278 142.111 80.0248 140.134C72.6586 136.304 65.7286 132.013 59.3543 127.373ZM34.251 162.951C32.3253 159.316 34.8142 150.894 47.4578 138.095L47.4641 138.089C48.7844 136.754 48.6578 134.564 47.1839 133.402C46.6773 133.004 46.1743 132.601 45.6749 132.199C44.4157 131.18 42.5933 131.274 41.4499 132.419C41.1993 132.67 41.0125 132.859 40.9577 132.916C34.6372 139.407 30.2137 145.416 27.7356 150.822C27.0333 152.353 24.9118 152.519 23.9831 151.113C14.1741 136.275 8.9054 118.889 8.9054 100.69C8.9054 94.1835 9.58081 87.7807 10.8948 81.5613C11.0934 80.6204 12.4199 80.5605 12.6984 81.4808C14.5989 87.7592 17.6922 94.254 21.9667 100.821C27.7204 109.663 35.3082 118.163 44.2998 125.959C47.3689 128.62 50.6106 131.195 53.9914 133.678C60.8444 138.71 68.291 143.354 76.2138 147.473C79.7255 149.299 83.1457 151.042 86.6489 152.62C88.5986 153.498 90.8182 153.567 92.8084 152.785C94.4603 152.137 96.1237 151.464 97.7971 150.764C99.6169 150.005 100.604 148.019 100.122 146.106C100.061 145.867 100.014 145.675 99.9867 145.561C97.2285 133.946 95.695 120.869 95.5146 107.173C95.5131 107.011 95.5086 106.848 95.5066 106.684C95.4986 105.935 95.5031 105.181 95.4896 104.434C95.4851 104.196 95.4921 103.792 95.4951 103.553C95.4966 103.458 95.4951 103.363 95.4951 103.269C95.4996 102.412 95.5091 101.554 95.5246 100.694C95.5666 98.3448 95.651 96.0128 95.7724 93.6993C96.6229 77.1722 99.419 61.6449 103.875 48.5815C104.287 47.3727 103.643 46.0605 102.435 45.648C101.258 45.2453 100.081 44.8606 98.9064 44.4922C97.7181 44.1192 96.448 44.7609 96.0462 45.941C91.2169 60.1279 88.2369 76.9588 87.4419 94.7696C87.3405 97.0291 86.1118 99.0853 84.167 100.239C73.6255 106.49 63.9438 113.118 55.5798 119.798C53.8375 121.19 51.3486 121.137 49.6637 119.675C41.281 112.403 34.2259 104.503 28.8925 96.3076C18.4117 80.2037 15.921 65.0327 21.8813 53.5967C21.8975 53.5697 21.9119 53.5417 21.9272 53.5157C22.687 52.254 23.4774 51.0089 24.3001 49.7814C31.1487 40.7102 43.8956 35.4534 60.8009 34.8593C61.8707 34.8215 62.948 34.8027 64.0348 34.8027C74.4039 34.8027 85.5321 36.5148 96.8502 39.7827C97.0981 39.8546 97.3489 39.9265 97.5967 39.9993C97.7881 40.0559 97.9795 40.1089 98.1704 40.1664C100.786 40.9484 103.409 41.8156 106.035 42.7612C106.096 42.7827 106.158 42.8052 106.219 42.8268C106.904 43.0739 107.587 43.3274 108.271 43.5853C108.485 43.6662 108.699 43.748 108.913 43.8307C109.119 43.9098 109.324 43.9862 109.531 44.0662C115.058 46.207 120.578 48.7002 126.032 51.5365C136.588 57.0244 146.251 63.4577 154.66 70.5155C138.612 74.1941 119.959 81.291 101.204 90.8592C100.339 91.3014 99.7693 92.1713 99.7143 93.1422C99.6489 94.3049 99.5629 96.6434 99.501 98.5022C99.462 99.6689 100.695 100.442 101.729 99.8988L101.739 99.8928C120.308 90.1357 138.84 82.843 154.755 78.9895C157.73 78.2695 159.655 75.4103 159.238 72.3768C158.945 70.2577 158.615 68.1716 158.25 66.1224C157.792 63.5486 156.384 61.2466 154.305 59.6632C146.852 53.9814 138.637 48.7694 129.843 44.1965C123.917 41.1156 117.903 38.4157 111.878 36.113C110.589 35.6205 110.037 34.0962 110.709 32.891C116.918 21.7779 124.301 15.5539 131.494 15.5539C131.569 15.5539 131.644 15.5539 131.718 15.5557C140.203 15.7076 148.664 24.5487 154.93 39.8123C158.102 47.539 160.559 56.4493 162.238 66.1324L162.212 66.1089C162.929 70.2417 163.506 74.5124 163.935 78.8941C163.898 78.9175 163.859 78.938 163.822 78.9615C163.872 79.0125 163.925 79.0639 163.976 79.1159C164.687 86.4676 164.987 94.1236 164.847 101.935C164.759 106.877 164.495 111.75 164.07 116.518C152.718 125.698 138.682 134.834 123.254 143.015C118.184 145.704 113.115 148.207 108.094 150.512C108.016 150.548 107.939 150.582 107.861 150.618C107.478 150.794 107.093 150.972 106.71 151.145L106.701 151.143C102.541 153.025 98.4212 154.767 94.3693 156.358C94.1405 156.448 93.9151 156.538 93.6868 156.627C93.402 156.738 93.1177 156.848 92.8339 156.957C92.1538 157.218 91.4762 157.475 90.8012 157.728C90.6153 157.797 90.4284 157.87 90.2425 157.938C89.4226 158.243 88.6066 158.538 87.7942 158.83C87.6922 158.866 87.5908 158.904 87.4904 158.94C78.8076 162.034 70.533 164.37 62.9954 165.822C44.7813 169.331 36.2045 166.639 34.251 162.951ZM47.3329 26.0335C62.7491 14.9868 81.171 9.02623 100.509 9.02623C105.614 9.02623 110.653 9.44415 115.59 10.2593C116.912 10.4777 117.356 12.1665 116.301 12.9943C111.517 16.7475 107.071 22.3009 103.138 29.5027C102.177 31.2597 100.141 32.119 98.2153 31.5761C85.1819 27.9047 72.3588 26.1773 60.5111 26.5934C56.1404 26.7471 52.0017 27.1902 48.1135 27.9074C47.0213 28.1087 46.4303 26.6797 47.3329 26.0335ZM173.076 92.8384C173.049 91.7876 174.396 91.3389 175.005 92.1948C175.753 93.2451 176.474 94.3014 177.165 95.3627C178.083 96.7738 178.937 98.1769 179.731 99.571C180.226 100.44 180.108 101.53 179.434 102.269C178.364 103.444 177.204 104.66 175.944 105.92C175.484 106.379 175.015 106.839 174.537 107.3C173.944 107.874 172.95 107.437 172.982 106.612C173.041 105.108 173.084 103.599 173.111 102.083C173.167 98.9769 173.153 95.8929 173.076 92.8384ZM163.576 34.2086C164.152 34.755 164.721 35.3105 165.284 35.8739C174.111 44.707 180.911 55.0282 185.457 66.2693C185.916 67.4026 184.954 68.5888 183.752 68.372C181.121 67.8993 178.16 67.6884 174.883 67.7429C172.611 67.7808 170.637 66.1884 170.239 63.9504C168.457 53.9569 165.882 44.7258 162.575 36.6694C162.387 36.2101 162.196 35.7562 162.003 35.3069C161.583 34.3263 162.802 33.4734 163.576 34.2086ZM198.222 79.9049C194.275 61.1417 184.995 43.9017 171.127 30.0248C152.265 11.15 127.186 0.755859 100.509 0.755859C73.8338 0.755859 48.7538 11.15 29.8913 30.0248C25.3034 34.6157 21.223 39.576 17.6653 44.8355C16.6072 46.2447 15.6597 47.7331 14.8172 49.2906C5.57585 64.6569 0.640381 82.2938 0.640381 100.69C0.640381 127.384 11.0287 152.479 29.8913 171.354C48.7538 190.228 73.8338 200.625 100.509 200.625C127.186 200.625 152.265 190.228 171.127 171.354C180.03 162.446 187.042 152.152 191.968 140.959C192.57 139.719 193.095 138.448 193.547 137.153C198.031 125.689 200.379 113.37 200.379 100.69C200.379 93.7098 199.663 86.8428 198.277 80.1637C198.258 80.0778 198.241 79.9913 198.222 79.9049Z" fill="white"/>
</g>
<defs>
<clipPath id="clip0_2712_178">
<rect width="199.869" height="199.869" fill="white" transform="translate(0.640381 0.755859)"/>
</clipPath>
</defs>
</svg>
