<svg width="240" height="161" viewBox="0 0 240 161" fill="none" xmlns="http://www.w3.org/2000/svg">
<g clip-path="url(#clip0_2712_162)">
<path d="M27.2562 105.991C27.2562 115.099 29.25 122.091 31.8579 126.321C35.2762 131.862 40.3744 134.214 45.5722 134.214C52.2753 134.214 58.4082 132.547 70.2264 116.164C79.6969 103.034 90.8511 84.6035 98.3577 73.0488L111.07 53.4732C119.901 39.8784 130.122 24.7659 141.841 14.522C151.411 6.16048 161.729 1.51562 172.116 1.51562C189.555 1.51562 206.165 11.6436 218.877 30.6386C232.79 51.4411 239.543 77.6447 239.543 104.685C239.543 120.76 236.382 132.572 231.002 141.903C225.805 150.927 215.674 159.944 198.633 159.944V134.21C213.225 134.21 216.866 120.772 216.866 105.394C216.866 83.4795 211.767 59.1602 200.536 41.7827C192.567 29.4567 182.238 21.9254 170.875 21.9254C158.584 21.9254 148.694 31.2171 137.579 47.7793C131.669 56.5805 125.603 67.3049 118.791 79.4071L111.292 92.7202C96.2314 119.491 92.4152 125.586 84.8837 135.645C71.6838 153.261 60.4109 159.94 45.5722 159.94C27.968 159.94 16.8367 152.3 9.94215 140.787C4.31468 131.407 1.55029 119.097 1.55029 105.071L27.2562 105.991Z" fill="white"/>
<path d="M21.8193 32.4511C33.6046 14.2444 50.6126 1.51172 70.1199 1.51172C81.4167 1.51172 92.6497 4.86273 104.375 14.4602C117.203 24.9508 130.876 42.2354 147.933 70.7099L154.049 80.9258C168.814 105.578 177.214 118.26 182.131 124.241C188.453 131.921 192.881 134.211 198.634 134.211C213.225 134.211 216.866 120.773 216.866 105.395L239.543 104.682C239.543 120.757 236.382 132.569 231.002 141.9C225.805 150.924 215.674 159.941 198.634 159.941C188.04 159.941 178.655 157.635 168.276 147.822C160.301 140.291 150.97 126.912 143.794 114.885L122.45 79.1514C111.741 61.2184 101.914 47.8474 96.2315 41.7918C90.1146 35.2796 82.2521 27.4166 69.7052 27.4166C59.5508 27.4166 50.9267 34.5582 43.7101 45.4825L21.8193 32.4511Z" fill="white"/>
<path d="M69.705 27.4166C59.5506 27.4166 50.9265 34.5582 43.71 45.4825C33.5048 60.9187 27.2612 83.9112 27.2612 105.991C27.2612 115.099 29.255 122.091 31.8629 126.321L9.94215 140.787C4.31468 131.407 1.55029 119.097 1.55029 105.071C1.55029 79.565 8.53553 52.9808 21.8192 32.4511C33.6044 14.2444 50.6125 1.51172 70.1197 1.51172L69.705 27.4166Z" fill="#F9F9F9"/>
</g>
<defs>
<clipPath id="clip0_2712_162">
<rect width="239" height="160" fill="white" transform="translate(0.619629 0.755859)"/>
</clipPath>
</defs>
</svg>
