<svg width="272" height="66" viewBox="0 0 272 66" fill="none" xmlns="http://www.w3.org/2000/svg">
<path d="M48.2185 0L28.841 44.6049L9.58537 0H0.566895L28.841 65.2011L57.1151 0H48.2185Z" fill="white"/>
<path d="M114.516 13.0403H140.231V19.1338H121.463V29.0054H139.256V34.7334H121.463V45.7018H141.206V51.9172H114.516V13.0403Z" fill="white"/>
<path d="M155.343 13.0403H168.749C170.577 13.0403 172.405 13.284 174.111 13.6496C175.818 14.0153 177.402 14.6246 178.743 15.5996C180.083 16.4527 181.18 17.6714 181.911 19.012C182.764 20.4744 183.13 22.1806 183.13 24.2524C183.13 27.0555 182.277 29.371 180.692 31.0772C179.108 32.9053 176.914 34.0021 174.233 34.6115L184.592 51.7953H176.305L167.287 35.3427H162.29V51.7953H155.343V13.0403ZM167.896 29.8585C168.871 29.8585 169.846 29.7366 170.821 29.6148C171.796 29.4929 172.649 29.2492 173.502 28.7617C174.233 28.3961 174.965 27.7867 175.452 27.0555C175.939 26.3242 176.183 25.3493 176.183 24.1306C176.183 23.0337 175.939 22.1806 175.452 21.5713C174.965 20.84 174.355 20.3526 173.624 19.9869C172.893 19.6213 172.04 19.2557 171.187 19.1338C170.212 19.012 169.358 18.8901 168.505 18.8901H162.29V29.8585H167.896Z" fill="white"/>
<path d="M230.05 49.8455C228.1 50.8204 225.907 51.5516 223.591 52.0391C221.276 52.5266 218.473 52.8922 215.426 52.8922C212.257 52.8922 209.454 52.4047 206.773 51.4298C204.214 50.4548 201.898 48.9924 200.07 47.1643C198.242 45.3362 196.78 43.1426 195.683 40.7051C194.586 38.1458 194.098 35.4647 194.098 32.4179C194.098 29.3711 194.586 26.4462 195.683 24.0088C196.78 21.4495 198.242 19.3777 200.07 17.6715C201.898 15.9653 204.214 14.6247 206.773 13.6497C209.332 12.6747 212.135 12.1873 215.06 12.1873C218.107 12.1873 221.032 12.6747 223.591 13.5278C226.151 14.3809 228.222 15.5996 229.807 17.0621L225.054 22.1807C224.079 21.0838 222.738 20.1089 220.91 19.3777C219.082 18.6464 217.254 18.2808 215.182 18.2808C213.11 18.2808 211.282 18.6464 209.576 19.3777C207.87 20.1089 206.529 21.0839 205.311 22.4244C204.092 23.765 203.239 25.2275 202.629 26.9337C202.02 28.6399 201.654 30.4679 201.654 32.5397C201.654 34.6116 202.02 36.5615 202.629 38.2677C203.239 39.9739 204.214 41.5582 205.311 42.7769C206.529 44.1175 207.992 45.0925 209.698 45.8237C211.404 46.5549 213.354 46.9205 215.426 46.9205C218.351 46.9205 220.91 46.4331 223.104 45.58V35.7084H214.938V29.9805H229.807V49.8455H230.05Z" fill="white"/>
<path d="M244.675 13.0403H270.39V19.1338H251.621V29.0054H269.415V34.7334H251.621V45.7018H271.365V51.9172H244.675V13.0403Z" fill="white"/>
<path d="M67.9617 13.0403L85.2674 52.1609L103.304 13.0403H95.3827L85.633 35.099L75.8833 13.0403H67.9617Z" fill="white"/>
<path d="M28.8411 24.0086L38.9564 0H18.7258L28.8411 24.0086Z" fill="white"/>
</svg>
