<svg width="162" height="162" viewBox="0 0 162 162" fill="none" xmlns="http://www.w3.org/2000/svg">
<path d="M17.05 126.193C23.6872 135.425 32.2008 143.15 42.0326 148.86C51.8644 154.571 62.7924 158.139 74.0996 159.331C68.2825 150.577 59.8261 142.522 49.2692 136.391C38.7123 130.259 27.5324 126.909 17.05 126.193Z" fill="white"/>
<path d="M63.4547 111.975C43.1158 100.159 21.1021 97.1479 5.35059 102.467C6.8712 107.493 8.87665 112.359 11.3386 116.996C25.024 116.68 39.966 120.397 53.8697 128.472C67.7734 136.548 78.4072 147.693 84.9149 159.741C90.1658 159.579 95.389 158.911 100.512 157.744C97.3276 141.428 83.7881 123.794 63.4547 111.975Z" fill="white"/>
<path d="M160.377 64.0124C157.79 53.4943 153.112 43.605 146.619 34.9351C140.127 26.2652 131.953 18.9926 122.587 13.5514C113.222 8.11031 102.856 4.61224 92.1081 3.26612C81.3606 1.92 70.4522 2.75344 60.0339 5.71665C77.4387 7.8467 96.7582 14.3805 115.704 25.3874C134.651 36.3942 149.91 49.9385 160.377 64.0124Z" fill="white"/>
<path d="M135.053 102.587C126.144 87.7921 110.883 73.6242 92.083 62.7028C73.2826 51.7812 53.4203 45.5429 36.1698 45.1302C20.9935 44.7708 9.60319 49.1826 4.9278 57.2314C4.90118 57.2793 4.8639 57.3246 4.83461 57.3725C4.41394 58.8821 4.05183 60.3944 3.72168 61.9121C10.2502 59.3347 17.8144 57.8997 26.2253 57.7399C44.9295 57.3885 65.8625 63.3711 85.1788 74.5938C104.495 85.8164 120.074 101.043 129.03 117.46C133.046 124.857 135.551 132.139 136.544 139.096C137.7 138.063 138.834 136.995 139.934 135.885C139.963 135.834 139.981 135.781 140.011 135.728C144.686 127.671 142.878 115.594 135.053 102.587Z" fill="white"/>
<path d="M77.7795 87.3202C48.9898 70.5941 17.1753 67.9743 1.87646 79.6468C1.90651 83.3003 2.18583 86.9475 2.71249 90.5633C7.21289 89.1991 11.8512 88.34 16.5416 88.002C33.6377 86.7156 52.4857 91.4789 69.5895 101.421C86.6939 111.363 100.177 125.383 107.53 140.861C109.563 145.101 111.113 149.555 112.153 154.142C115.555 152.807 118.864 151.245 122.055 149.464C124.616 130.389 106.578 104.049 77.7795 87.3202Z" fill="white"/>
<path d="M149.862 77.8232C140.852 63.0438 125.457 48.8366 106.524 37.843C87.5907 26.8495 67.6509 20.5127 50.3445 20.0041C37.1518 19.6234 26.933 22.821 21.6345 28.8623C43.6349 25.1348 72.6536 31.3997 100.781 47.7396C128.907 64.0795 148.733 86.1891 156.385 107.146C159.008 99.5551 156.726 89.0941 149.862 77.8232Z" fill="white"/>
</svg>
