<svg width="132" height="109" viewBox="0 0 132 109" fill="none" xmlns="http://www.w3.org/2000/svg">
<mask id="mask0_2712_92" style="mask-type:luminance" maskUnits="userSpaceOnUse" x="0" y="0" width="132" height="109">
<path d="M131.379 0H0.977051V108.465H131.379V0Z" fill="white"/>
</mask>
<g mask="url(#mask0_2712_92)">
<path d="M130.859 63.8527C130.608 61.7403 128.942 54.1036 121.974 48.425C119.254 46.1821 115.702 44.1765 111.084 42.788C109.592 34.813 106.152 27.3274 101.069 20.9935C91.1312 8.50301 75.2783 0.314487 57.3783 0.0296686L57.3368 0V0.0296686C56.7 0.0296686 56.0632 0.0296686 55.4265 0.0296686V0L55.3967 0.0296686C40.1688 0.296686 25.6132 6.37282 15.3124 16.7924C5.88634 26.328 0.798433 38.6463 0.976955 51.4868C1.10192 59.4974 1.25069 61.954 2.23852 78.0106C2.44679 81.375 2.69078 85.3328 2.97641 90.0679C3.01291 90.8271 3.23344 91.5662 3.6191 92.2218C9.84956 102.398 42.7454 103.674 58.8185 103.674C63.7844 103.674 67.322 103.567 67.9261 103.537C69.3007 104.116 79.3188 108.284 83.9932 108.462C84.6715 108.486 85.349 108.398 85.9985 108.201L95.3294 105.371C95.6681 105.268 95.9623 105.055 96.165 104.765C96.3678 104.476 96.4675 104.127 96.4482 103.775L96.1208 97.2714C96.1046 96.9074 96.2267 96.5505 96.4628 96.2722C96.6988 95.9939 97.0315 95.8147 97.3942 95.7702C109.504 94.3164 117.097 97.7165 119.853 98.8319C120.056 98.9135 120.274 98.9517 120.494 98.9447C120.713 98.9375 120.928 98.885 121.126 98.7905L129.992 94.5597C130.25 94.4358 130.468 94.2454 130.624 94.0084C130.781 93.7714 130.871 93.4965 130.886 93.2127C131.12 88.8574 131.894 71.9819 130.859 63.8527ZM116.657 67.3477C114.336 66.7128 110.069 65.8643 103.777 65.7961C105.461 64.6149 107.395 63.8354 109.43 63.5174C111.81 63.2742 113.69 63.8972 115.214 65.4103C115.785 65.9914 116.28 66.6436 116.684 67.3507L116.657 67.3477ZM115.267 47.6033L111.935 61.6365C111.024 61.4899 110.097 61.466 109.18 61.5653H109.126C107.71 61.7939 106.331 62.211 105.026 62.8055L100.057 51.9201C102.498 50.0508 105.276 48.665 108.24 47.8376C110.529 47.1997 112.938 47.1143 115.267 47.5884V47.6033ZM30.9748 62.7639C22.6437 61.9035 15.7527 60.7998 10.7719 59.8683C10.6946 57.2218 10.5874 48.6832 12.1049 41.5567C16.8655 42.4053 23.5304 43.4319 31.5222 44.2567C30.832 53.178 30.9034 60.0552 30.9748 62.749V62.7639ZM21.1857 40.7676C22.1974 31.9264 25.3513 27.5591 26.3987 26.3191C30.5463 27.0073 35.4617 27.6718 41.0137 28.1287C39.4785 32.852 39.1749 39.8954 39.1214 42.7257C32.3434 42.1888 26.2678 41.4767 21.1857 40.7528V40.7676ZM34.0038 25.1768C34.6464 23.1355 36.5804 17.9198 40.978 12.2175C45.8325 12.9063 50.726 13.2848 55.6289 13.3509V26.5474C48.3997 26.5155 41.1787 26.0578 34.0038 25.1768ZM41.3827 42.8771C41.4422 40.1178 41.7516 32.6651 43.3464 28.2919C47.4168 28.5887 51.7965 28.7488 56.4381 28.7488C61.2582 28.7488 66.3521 28.5649 71.6781 28.1258C73.624 32.6651 73.3918 40.4264 73.2431 43.1144C62.6284 43.6991 51.9875 43.6199 41.3827 42.8771ZM73.9632 12.1641C76.9767 15.9979 79.3204 20.3108 80.8958 24.9216C73.269 25.9438 65.5852 26.4869 57.8902 26.5474V13.3509C63.2688 13.3269 68.6395 12.9303 73.9632 12.1641ZM74.0286 27.9241C79.2415 27.4316 84.6686 26.6899 90.2444 25.6455C92.877 30.3133 94.8134 35.3385 95.9928 40.5629C89.2134 41.7162 82.3789 42.5203 75.5163 42.972C75.6769 40.0526 75.8317 32.8253 74.0286 27.9181V27.9241ZM58.3424 45.7252H59.4968C67.8258 45.7372 76.1494 45.2975 84.4306 44.4079C83.9783 44.6631 83.538 44.9242 83.0975 45.203C76.9088 49.1787 72.3089 55.5277 69.4465 63.9121C65.6559 64.0841 61.9426 64.1673 58.3424 64.1731V45.7252ZM82.9666 47.6715L97.0521 51.9201C91.6964 56.7382 87.9177 63.4908 85.6565 70.1543L70.6842 66.5525C72.8444 59.1592 76.6053 52.2405 82.9666 47.6537V47.6715ZM98.4565 53.2432L103.271 63.7637C99.8966 65.8939 97.6948 69.2109 96.2725 72.8007L87.5845 70.7477C89.6792 64.5173 93.1723 57.9013 98.4565 53.2254V53.2432ZM112.465 45.3395C110.857 45.3241 109.255 45.5318 107.704 45.9567C104.495 46.8564 101.494 48.3721 98.8672 50.4189L85.1208 46.2652C89.447 43.7552 94.5349 42.5923 99.8966 42.8949C104.895 43.1737 109.031 44.0579 112.465 45.3217V45.3395ZM108.686 42.1294C107.084 41.7553 105.463 41.4681 103.83 41.269C105.318 40.9486 106.788 40.6163 108.257 40.2543C108.43 40.8893 108.567 41.5123 108.686 42.1294ZM107.668 38.1241C104.52 38.8956 101.368 39.57 98.2125 40.1475C97.0553 34.9216 95.162 29.8854 92.5891 25.1886C95.0943 24.6903 97.6472 24.1147 100.2 23.4857C103.525 27.9006 106.056 32.8577 107.68 38.1359L107.668 38.1241ZM98.6886 21.569C93.3865 22.8507 88.1973 23.8357 83.1631 24.5774C82.5263 22.5006 80.6995 17.457 76.4863 11.7428C79.2633 11.2741 82.1098 10.6807 85.0256 9.96272C90.2224 13.0191 94.8491 16.95 98.7005 21.581L98.6886 21.569ZM55.7895 3.13894C55.9727 3.04154 56.177 2.9906 56.3846 2.9906C56.5921 2.9906 56.7965 3.04154 56.9797 3.13894C62.0498 5.88031 64.9894 8.60389 66.6675 10.7697C59.8555 11.3346 53.0063 11.287 46.2028 10.6273C47.9106 8.47929 50.8265 5.81505 55.7895 3.13894ZM52.0822 2.39722C52.1101 2.39556 52.1379 2.40331 52.1608 2.41923C52.1838 2.43513 52.2007 2.45829 52.209 2.48497C52.2172 2.51164 52.2162 2.54031 52.2062 2.56636C52.1961 2.59241 52.1776 2.61434 52.1536 2.62864C48.3629 4.97839 45.4947 7.56548 43.6083 10.3425C39.4297 9.85215 35.2872 9.09303 31.2068 8.06986C37.7357 4.86077 44.8231 2.93485 52.0822 2.39722ZM16.8893 18.3411C20.2945 14.9086 24.1571 11.9596 28.3683 9.57702C31.6742 10.5371 35.037 11.2902 38.4371 11.8318C34.0513 17.8071 32.2602 23.0406 31.7245 24.886C25.7802 24.1065 19.891 22.953 14.0925 21.4326C14.9791 20.3704 15.9015 19.338 16.8893 18.3411ZM3.20254 51.4512C3.14943 47.6046 3.59547 43.7674 4.52956 40.0348C5.33292 40.2187 7.1717 40.6282 9.88526 41.1325C8.39757 48.158 8.42732 56.2398 8.50468 59.4203C6.20768 58.9574 4.47601 58.5717 3.36916 58.3106C3.2799 56.1686 3.23825 54.1214 3.19659 51.4512H3.20254ZM3.46438 60.7138C5.76732 61.2419 9.90311 62.1201 15.4968 63.0339V79.4051C9.41515 77.9393 5.70782 76.5153 4.33319 75.9516C3.87498 68.4573 3.61315 64.1791 3.45842 60.7138H3.46438ZM28.7372 84.1817V99.7399C22.9651 98.9744 17.5558 97.8707 13.3248 96.3102L13.0094 81.1258L13.8485 81.3394L14.387 81.4729C14.625 81.5322 14.8631 81.5916 15.1101 81.648C15.357 81.7043 15.601 81.7666 15.8539 81.823L16.7465 82.0247L17.4219 82.1731L18.5883 82.4224C19.0226 82.5142 19.4809 82.6033 19.9183 82.6923C21.0371 82.9158 22.2113 83.1324 23.4411 83.342C24.4329 83.5102 25.4644 83.6753 26.5355 83.8375C27.318 83.9532 28.1214 84.069 28.9455 84.1786L28.7372 84.1817ZM22.8639 80.9477L22.1825 80.8232L21.5071 80.6986L20.8495 80.571L20.2069 80.4434L19.5731 80.3158L18.3829 80.0666L17.7432 79.9272V63.3898C23.4679 64.28 30.4839 65.1463 38.4698 65.7396V82.9237C35.2683 82.6745 32.3524 82.3599 29.734 82.0158C27.2704 81.6925 24.9735 81.3305 22.8579 80.9477H22.8639ZM55.6348 101.419C48.6665 101.342 39.5677 101.016 30.9986 100.013V84.4368C38.991 85.3802 47.0333 85.8399 55.0814 85.8134H55.6348V101.419ZM57.896 101.419V85.7838C60.5085 85.7541 63.228 85.6769 66.0546 85.5524C65.9678 90.8255 66.2802 96.0978 66.9888 101.324C65.7392 101.383 62.4127 101.467 57.8902 101.443L57.896 101.419ZM66.3343 79.7017C66.2391 80.9121 66.1677 82.1107 66.12 83.2857C57.6646 83.6896 49.1931 83.6163 40.7459 83.0661V65.8999C46.1552 66.2499 51.975 66.4576 58.1043 66.4576C61.5439 66.4576 65.0906 66.3864 68.7086 66.2321C67.4666 70.6396 66.6692 75.1598 66.3283 79.7255L66.3343 79.7017ZM83.0975 83.7544C83.0797 84.8285 83.0618 86.3237 83.056 88.0445L68.0897 84.0214C68.2369 78.7732 68.935 73.5546 70.1725 68.4514L85.0494 72.0294C83.8797 75.834 83.2233 79.777 83.0975 83.7544ZM85.4779 106.303C85.4779 103.656 84.9959 96.0372 85.0137 90.1094L93.7792 89.5991C93.8031 89.9255 93.8328 91.0232 93.8328 91.041L94.4754 103.585L85.4779 106.303ZM93.7435 87.6885L85.0316 88.2166C85.0316 86.2643 85.0614 84.953 85.0792 83.7662C85.1328 80.9419 85.7279 76.9425 87.0073 72.6109L95.5942 74.6699C94.2745 78.8853 93.6435 83.2851 93.7257 87.7004L93.7435 87.6885ZM104.122 93.4145C103.723 93.4145 103.312 93.4145 102.902 93.4145C100.579 93.4129 98.2606 93.6015 95.9691 93.9782L95.8144 90.8986C95.8144 90.8837 95.8144 90.7948 95.7965 90.6434C95.7949 90.6167 95.7949 90.59 95.7965 90.5633C95.7965 90.5337 95.7965 90.504 95.7965 90.4713C95.798 90.4595 95.798 90.4476 95.7965 90.4358C95.7965 90.4091 95.7965 90.3794 95.7965 90.3468C95.7965 90.2252 95.7787 90.0857 95.7727 89.9284C95.7668 89.7712 95.7727 89.6318 95.7548 89.4745C95.7548 89.4033 95.7548 89.3262 95.7548 89.246C95.7548 88.81 95.734 88.2937 95.737 87.7181C95.737 87.5639 95.737 87.4036 95.737 87.2405C95.737 87.1366 95.737 87.0298 95.737 86.9231C95.737 86.6471 95.737 86.3593 95.7608 86.0626C95.7608 85.9143 95.7668 85.763 95.7787 85.6087C95.7787 85.4544 95.7787 85.312 95.8025 85.1429C95.8262 84.9738 95.8174 84.8254 95.8293 84.6622C95.8411 84.499 95.8501 84.336 95.8619 84.1697C95.8739 84.0036 95.8858 83.8375 95.9007 83.6684L95.9274 83.3717C95.9274 83.2293 95.9542 83.075 95.9691 82.9385C95.9691 82.8377 95.9899 82.7339 95.9988 82.6418C96.0167 82.4668 96.0376 82.2917 96.0584 82.1167L96.103 81.7518C96.1179 81.6271 96.1327 81.5026 96.1505 81.3779C96.1685 81.2534 96.1833 81.1466 96.2011 81.0308C96.225 80.8498 96.2517 80.6659 96.2845 80.479C96.3173 80.292 96.3499 80.0577 96.3887 79.8471C96.4154 79.681 96.4451 79.5147 96.475 79.3486C99.0341 79.3032 101.594 79.4142 104.139 79.681L104.122 93.4145ZM119.385 83.2501C119.341 84.517 119.266 85.3594 119.251 85.5286C119.25 85.5345 119.25 85.5405 119.251 85.5464L118.71 96.1677C114.647 94.7053 110.402 93.8068 106.094 93.4976V79.9034C114.128 80.9952 119.311 83.2323 119.382 83.2679V83.2501H119.385ZM96.8825 77.3519C97.7276 73.8748 99.1676 70.3857 101.566 67.7393C111.331 67.5554 116.74 69.3474 117.8 69.739C118.132 70.6775 118.403 71.6369 118.609 72.6109C119.164 75.4267 119.428 78.2919 119.397 81.1614C116.886 80.1824 108.347 77.2451 96.8647 77.3638L96.8825 77.3519ZM128.96 92.8685L120.647 96.8383L121.212 85.6947C121.23 85.5524 121.313 84.6266 121.367 83.2263L129.4 79.3991C129.288 85.4455 129.032 91.1003 128.942 92.8805L128.96 92.8685ZM129.412 77.2096L121.397 81.0368C121.397 77.6664 121.057 73.0559 119.665 69.1693L128.323 61.414C128.586 62.2967 128.785 63.1969 128.919 64.1079C129.336 67.235 129.437 72.2251 129.394 77.2214L129.412 77.2096Z" fill="#00142D"/>
<path d="M108.686 42.1294C107.084 41.7554 105.463 41.4681 103.83 41.269C105.318 40.9486 106.787 40.6164 108.257 40.2544C108.43 40.8892 108.567 41.5124 108.686 42.1294Z" fill="#F5FDFF"/>
<path d="M129.377 79.4109C129.288 85.4573 129.032 91.1003 128.943 92.8803L120.63 96.8501L121.195 85.7065C121.213 85.5642 121.296 84.6384 121.35 83.2381L129.377 79.4109Z" fill="#F5FDFF"/>
<path d="M129.396 77.2215L121.381 81.0487C121.381 77.6784 121.042 73.0679 119.649 69.1813L128.325 61.4141C128.587 62.2968 128.787 63.197 128.92 64.1079C129.337 67.235 129.438 72.2253 129.396 77.2215Z" fill="#F5FDFF"/>
<path d="M116.664 67.3478C114.344 66.7128 110.071 65.8643 103.763 65.7931C105.448 64.612 107.382 63.8325 109.416 63.5145C111.797 63.2713 113.677 63.8943 115.201 65.4074C115.77 65.9888 116.262 66.641 116.664 67.3478Z" fill="#F5FDFF"/>
<path d="M119.396 81.1612C116.885 80.1821 108.345 77.2449 96.8604 77.3636C97.7053 73.8865 99.1454 70.3974 101.544 67.751C111.309 67.567 116.718 69.359 117.777 69.7507C119.098 73.3999 119.396 77.8976 119.396 81.1612Z" fill="#F5FDFF"/>
<path d="M104.106 79.6663V93.4266C103.707 93.4266 103.297 93.4266 102.886 93.4266C100.564 93.425 98.2448 93.6135 95.9533 93.9903L95.7986 90.8988C95.5422 87.0361 95.758 83.1566 96.4412 79.3459C99.0003 79.2966 101.56 79.4036 104.106 79.6663Z" fill="#F5FDFF"/>
<path d="M119.366 83.2497C119.318 84.6322 119.235 85.5104 119.229 85.5579L118.688 96.1912C114.625 94.7287 110.38 93.8302 106.072 93.521V79.9031C114.106 80.9948 119.289 83.2319 119.36 83.2674L119.366 83.2497Z" fill="#F5FDFF"/>
<path d="M94.4768 103.573L85.4615 106.314C85.4615 103.668 84.9795 96.0492 84.9973 90.1213L93.7806 89.5991C93.8045 89.9255 93.8342 91.0233 93.8342 91.0411L94.4768 103.573Z" fill="#F5FDFF"/>
<path d="M93.7278 87.7005L85.0159 88.2285C85.0159 86.2764 85.0456 84.9649 85.0635 83.7783C85.117 80.9538 85.7121 76.9545 86.9915 72.6228L95.5964 74.67C94.2767 78.8854 93.6458 83.2852 93.7278 87.7005Z" fill="#F5FDFF"/>
<path d="M103.273 63.7464C99.8988 65.8765 97.697 69.1935 96.2747 72.7834L87.5867 70.7303C89.6694 64.5177 93.1745 57.9017 98.4587 53.2258L103.273 63.7464Z" fill="#F5FDFF"/>
<path d="M115.269 47.589L111.937 61.6222C111.026 61.4756 110.099 61.4516 109.182 61.5509H109.128C107.712 61.7796 106.333 62.1967 105.028 62.7911L100.059 51.9206C102.5 50.0513 105.278 48.6655 108.242 47.8381C110.531 47.2002 112.94 47.1148 115.269 47.589Z" fill="#F5FDFF"/>
<path d="M112.464 45.3215C110.857 45.3061 109.254 45.5138 107.704 45.9386C104.494 46.8438 101.492 48.3656 98.8668 50.4186L85.1206 46.265C89.4468 43.7549 94.5347 42.592 99.8963 42.8947C104.895 43.1735 109.031 44.0577 112.464 45.3215Z" fill="#F5FDFF"/>
<path d="M97.0545 51.9199C91.6987 56.7381 87.92 63.4906 85.6586 70.1542L70.6865 66.5524C72.8467 59.1591 76.6075 52.2403 82.9689 47.6536L97.0545 51.9199Z" fill="#F5FDFF"/>
<path d="M85.0577 72.0294C83.8859 75.8338 83.2276 79.7768 83.0999 83.7544C83.0821 84.8285 83.0642 86.3238 83.0583 88.0445L68.092 84.0214C68.2393 78.7732 68.9372 73.5547 70.1748 68.4514L85.0577 72.0294Z" fill="#F5FDFF"/>
<path d="M66.9829 101.348C65.7393 101.383 62.4128 101.466 57.8901 101.443V85.8072C60.5026 85.7776 63.222 85.7005 66.0487 85.5759C65.9619 90.8491 66.2743 96.1213 66.9829 101.348Z" fill="#F5FDFF"/>
<path d="M28.9268 84.1818H28.7303V99.7401C22.9581 98.9746 17.5489 97.871 13.3179 96.3104L13.0024 81.126C18.2441 82.4624 23.5619 83.483 28.9268 84.1818Z" fill="#F5FDFF"/>
<path d="M55.6288 85.8194V101.431C48.6605 101.354 39.5618 101.027 30.9927 100.025V84.4487C38.985 85.392 47.0273 85.8517 55.0754 85.8253L55.6288 85.8194Z" fill="#F5FDFF"/>
<path d="M68.7061 66.2438C67.4649 70.6475 66.6675 75.1637 66.3259 79.7252C66.2307 80.9358 66.1593 82.1344 66.1116 83.3092C57.6562 83.7131 49.1847 83.6398 40.7375 83.0897V65.8997C46.1528 66.2498 51.9726 66.4575 58.1019 66.4575C61.5415 66.4575 65.0881 66.3981 68.7061 66.2438Z" fill="#F5FDFF"/>
<path d="M38.4658 65.7393V82.9234C35.2643 82.6742 32.3484 82.3598 29.73 82.0156C25.1122 81.4222 21.1194 80.6745 17.7393 79.9388V63.3896C23.4759 64.2737 30.4917 65.1459 38.4658 65.7393Z" fill="#F5FDFF"/>
<path d="M15.4899 63.0338V79.405C9.41423 77.9393 5.70691 76.5152 4.33227 75.9516C3.87406 68.4632 3.61224 64.185 3.45752 60.7197C5.76046 61.2418 9.9022 62.12 15.4899 63.0338Z" fill="#F5FDFF"/>
<path d="M8.49134 59.4204C6.19434 58.9575 4.46267 58.5718 3.35582 58.3107C3.27847 56.1687 3.23682 54.1215 3.19516 51.4513C3.14204 47.6047 3.58807 43.7675 4.52218 40.0349C5.32553 40.2188 7.16432 40.6283 9.87787 41.1326C8.39018 48.1581 8.41398 56.2399 8.49134 59.4204Z" fill="#F5FDFF"/>
<path d="M30.9725 62.7494C22.6414 61.889 15.7505 60.7853 10.7697 59.8538C10.6923 57.2073 10.5852 48.6687 12.1027 41.5422C16.8633 42.3908 23.5282 43.4173 31.52 44.2421C30.8297 53.1783 30.9011 60.0554 30.9725 62.7494Z" fill="#F5FDFF"/>
<path d="M84.4305 44.3901C83.9783 44.6453 83.5378 44.9064 83.0975 45.1853C76.9087 49.1609 72.3087 55.5099 69.4465 63.8943C65.6558 64.0664 61.9425 64.1495 58.3423 64.1553V45.7074H59.4968C67.8258 45.7194 76.1494 45.2797 84.4305 44.3901Z" fill="#F5FDFF"/>
<path d="M107.681 38.1362C104.533 38.9075 101.381 39.582 98.2254 40.1595C97.0656 34.9289 95.1683 29.8886 92.5901 25.1889C95.0953 24.6904 97.6482 24.1148 100.201 23.4858C103.526 27.9009 106.057 32.8579 107.681 38.1362Z" fill="#F5FDFF"/>
<path d="M98.7015 21.5809C93.3994 22.8626 88.2104 23.8476 83.176 24.5893C82.5392 22.5125 80.7124 17.4689 76.4993 11.7547C79.2762 11.286 82.1227 10.6926 85.0385 9.97461C90.2301 13.0286 94.8527 16.9553 98.7015 21.5809Z" fill="#F5FDFF"/>
<path d="M52.1534 2.6286C48.3628 4.97835 45.4946 7.56546 43.6082 10.3424C39.4296 9.85211 35.2872 9.093 31.2068 8.06982C37.7357 4.86073 44.823 2.93482 52.082 2.39719C52.11 2.39554 52.1377 2.40329 52.1607 2.41919C52.1836 2.43511 52.2007 2.45825 52.2089 2.48493C52.2171 2.51161 52.2162 2.54027 52.2061 2.56633C52.1961 2.59238 52.1775 2.61431 52.1534 2.6286Z" fill="#F5FDFF"/>
<path d="M66.6675 10.7701C59.8555 11.335 53.0063 11.2873 46.2029 10.6277C47.9048 8.47966 50.8207 5.81542 55.7835 3.13931C55.9667 3.04192 56.1711 2.99097 56.3786 2.99097C56.5862 2.99097 56.7906 3.04192 56.9737 3.13931C62.0498 5.88069 64.9894 8.60427 66.6675 10.7701Z" fill="#F5FDFF"/>
<path d="M55.6265 13.3509V26.5475C48.3974 26.5156 41.1764 26.0578 34.0015 25.1768C34.6441 23.1356 36.5781 17.9199 40.9757 12.2175C45.8302 12.9062 50.7237 13.2848 55.6265 13.3509Z" fill="#F5FDFF"/>
<path d="M38.4372 11.832C34.0514 17.8072 32.2602 23.0407 31.7247 24.8861C25.7802 24.1065 19.891 22.9531 14.0925 21.4327C14.9851 20.3705 15.9016 19.3381 16.8895 18.3413C20.2946 14.9088 24.1571 11.9598 28.3684 9.57715C31.6743 10.5372 35.0371 11.2903 38.4372 11.832Z" fill="#F5FDFF"/>
<path d="M41.0137 28.1137C39.4785 32.837 39.175 39.8803 39.1215 42.7106C32.3435 42.1885 26.2796 41.4764 21.1858 40.7525C22.1974 31.9114 25.3513 27.5441 26.3987 26.304C30.5464 26.9983 35.4618 27.6568 41.0137 28.1137Z" fill="#F5FDFF"/>
<path d="M73.2408 43.1141C62.6262 43.6988 51.9851 43.6196 41.3804 42.8768C41.44 40.1175 41.7494 32.6648 43.3442 28.2917C47.4145 28.5884 51.7943 28.7486 56.4359 28.7486C61.256 28.7486 66.3498 28.5646 71.6758 28.1255C73.6216 32.6648 73.3896 40.4261 73.2408 43.1141Z" fill="#F5FDFF"/>
<path d="M75.5162 42.9658C75.677 40.0406 75.8316 32.8252 74.0286 27.9179C79.2415 27.4254 84.6685 26.6837 90.2445 25.6394C92.8769 30.3071 94.8135 35.3323 95.9929 40.5568C89.2135 41.7101 82.3788 42.5142 75.5162 42.9658Z" fill="#F5FDFF"/>
<path d="M80.8959 24.9213C73.2691 25.9435 65.5853 26.4866 57.8901 26.5471V13.3506C63.2673 13.3203 68.636 12.9178 73.9573 12.146C76.9747 15.9847 79.3205 20.3038 80.8959 24.9213Z" fill="#F5FDFF"/>
<path d="M82.1429 8.28045C77.8906 9.24707 73.5846 9.96234 69.2476 10.4225C67.2897 7.45566 64.237 4.72615 60.137 2.24585C67.8106 2.72589 75.3023 4.78028 82.1429 8.28045Z" fill="#80ABFF"/>
<path d="M23.8465 25.7581C22.2845 27.9446 19.8209 32.5196 18.9133 40.3194C11.5612 39.2098 6.62503 38.1507 5.08081 37.8035C6.69234 32.5304 9.23116 27.5848 12.5788 23.1978C14.242 23.6783 18.1547 24.7168 23.8465 25.7581Z" fill="#80ABFF"/>
<path d="M56.0473 45.5798V64.0395C47.7399 63.9772 40.0456 63.5144 33.22 62.8676C33.0784 56.6935 33.2572 50.5161 33.7557 44.3604C40.4413 44.9953 47.9869 45.47 56.0473 45.5798Z" fill="#80ABFF"/>
<path d="M11.0078 95.2628C8.45488 94.0761 6.52385 92.6579 5.4914 90.9697C5.29351 90.6224 5.18228 90.2327 5.16707 89.8334C4.89631 85.3565 4.66126 81.5797 4.46191 78.3457C5.78 78.8531 7.85087 79.5859 10.6953 80.3989L11.0078 95.2628Z" fill="#80ABFF"/>
<path d="M83.0137 106.3C78.6995 105.706 71.0408 102.603 69.0295 101.769C68.2762 96.527 67.9379 91.2337 68.0178 85.9382L83.0197 89.9673C82.9899 95.9574 83.0077 103.526 83.0137 106.3Z" fill="#80ABFF"/>
<path d="M127.583 59.2781L118.8 67.1284C118.235 65.9378 117.477 64.8481 116.557 63.9034C115.775 63.1184 114.846 62.4944 113.822 62.0669L117.155 48.0129C118.321 48.4157 119.428 48.9704 120.448 49.6625C123.622 52.1967 126.082 55.5103 127.583 59.2781Z" fill="#80ABFF"/>
<path d="M4.46191 78.3457C4.64638 81.6093 4.92011 85.3772 5.17302 89.8661C5.19026 90.2679 5.30679 90.6592 5.51221 91.0053C5.91495 91.6408 6.40578 92.216 6.97016 92.7143C8.17793 93.764 9.53952 94.6234 11.0078 95.2628L10.6953 80.4018C7.84492 79.5711 5.78297 78.865 4.46191 78.3457Z" fill="#6691E5"/>
<path d="M17.7512 79.9277V76.492C19.3342 77.9547 21.0391 79.4589 22.857 80.9423C21.0242 80.619 19.3193 80.2748 17.7512 79.9277ZM66.982 101.348C63.9158 100.963 60.8784 100.377 57.8893 99.5949V101.443C62.4118 101.467 65.7383 101.384 66.982 101.348ZM13.3179 96.3048C17.5489 97.8653 22.9582 98.9748 28.7305 99.7343V85.4757C27.9746 84.9358 27.2428 84.3869 26.5138 83.838C21.9654 83.1716 17.4553 82.2664 13.0025 81.1263L13.3179 96.3048ZM55.6279 101.426V98.9601C46.3626 96.2394 38.0731 91.8752 30.9917 87.0511V100.019C39.5608 101.028 48.6596 101.354 55.6279 101.431V101.426ZM15.4899 79.4055V74.3619C7.75397 66.8439 3.45752 60.7144 3.45752 60.7144C3.61224 64.1796 3.87406 68.4578 4.33227 75.9462C5.70691 76.5158 9.41423 77.9399 15.4899 79.4055Z" fill="#DBE3E5"/>
<path d="M117.78 69.7625C119.101 73.4088 119.399 77.9095 119.399 81.173C116.888 80.1939 108.348 77.2567 96.8633 77.3754C97.7084 73.8983 99.1484 70.4093 101.547 67.7628C111.312 67.5788 116.721 69.3679 117.78 69.7625ZM115.198 65.4072C113.674 63.894 111.782 63.268 109.413 63.5143C107.38 63.8325 105.446 64.6109 103.76 65.7899C110.068 65.8581 114.341 66.7125 116.662 67.3475C116.259 66.6406 115.767 65.9885 115.198 65.4072ZM106.075 79.9151V93.5388C107.542 93.6427 108.929 93.8118 110.22 94.0195C112.952 94.4572 115.641 95.1355 118.253 96.0458L118.685 96.2001L119.226 85.5699C119.226 85.5195 119.316 84.6442 119.363 83.2617V83.2765C119.292 83.2439 114.097 80.995 106.075 79.9151ZM96.4408 79.3455C96.1772 80.7749 95.9856 82.2166 95.8667 83.6652C95.8101 84.3416 95.7684 84.9943 95.7416 85.6055C95.7416 85.7598 95.7356 85.911 95.7238 86.0595C95.703 86.6527 95.6941 87.2105 95.6941 87.715C95.6941 88.605 95.7119 89.3438 95.7356 89.8837C95.7356 90.1151 95.7565 90.3109 95.7654 90.4771C95.7833 90.7352 95.7952 90.8835 95.7982 90.9043L95.9529 93.9957C98.2444 93.619 100.563 93.4305 102.886 93.4321C103.296 93.4321 103.707 93.4321 104.105 93.4321V79.6777C101.56 79.408 99.0002 79.297 96.4408 79.3455Z" fill="#DBE3E5"/>
</g>
</svg>
