<svg width="131" height="130" viewBox="0 0 131 130" fill="none" xmlns="http://www.w3.org/2000/svg">
<g clip-path="url(#clip0_2712_36)">
<path fill-rule="evenodd" clip-rule="evenodd" d="M65.5552 130C84.8576 129.984 100.406 125.398 111.274 117.166C122.266 108.831 128.101 97.0008 128.101 83.616C128.101 70.72 122.282 61.4224 115.694 55.1356C110.535 50.2112 104.836 47.0548 100.874 45.24C101.768 42.5152 102.891 38.948 103.89 35.2664C105.231 30.3368 106.542 24.5544 106.542 20.3164C106.542 15.2984 105.439 10.2648 102.46 6.3492C99.3136 2.2152 94.5764 -2.9308e-06 88.8772 -3.42904e-06C84.4208 -3.81863e-06 80.6404 1.638 77.6764 4.45639C74.8476 7.15519 72.96 10.738 71.66 14.4716C69.3772 21.034 68.4828 29.276 68.2332 37.5024L62.7732 37.5024C62.5236 29.276 61.6344 21.034 59.3464 14.4716C58.0465 10.738 56.1641 7.15519 53.3301 4.45639C50.3765 1.63799 46.5961 -7.12537e-06 42.1397 -7.51496e-06C36.4405 -8.0132e-06 31.7033 2.21519 28.5573 6.34919C25.5777 10.2648 24.4753 15.2984 24.4753 20.3164C24.4753 24.5544 25.7909 30.3368 27.1273 35.2664C28.1257 38.948 29.2489 42.5152 30.1433 45.24C26.1757 47.0548 20.4817 50.2112 15.3233 55.1356C8.74005 61.4224 2.91606 70.72 2.91606 83.616C2.91606 97.0008 8.75045 108.826 19.7432 117.161C30.606 125.398 46.1592 129.984 65.4616 129.995L65.5552 129.995L65.5552 130Z" fill="#8D8D8D"/>
<path d="M88.8772 4.76831C97.2232 4.76831 101.071 10.9979 101.071 19.6091C101.071 26.4575 96.6044 40.1699 94.774 45.5051C94.3632 46.7063 95.008 48.0219 96.1884 48.4847C102.881 51.1211 122.625 60.7827 122.625 82.9087C122.625 106.215 102.558 123.786 65.5552 123.812C65.5396 123.812 65.524 123.812 65.5136 123.812C65.498 123.812 65.4824 123.812 65.472 123.812C28.4688 123.786 8.40206 106.21 8.40206 82.9087C8.40206 60.7827 28.1464 51.1263 34.8388 48.4847C36.0192 48.0167 36.6693 46.7063 36.2533 45.5051C34.4229 40.1647 29.9561 26.4523 29.9561 19.6091C29.9561 10.9979 33.7989 4.7683 42.1449 4.7683C54.162 4.7683 57.1572 21.7931 57.3704 40.0607C57.386 41.2827 58.3688 42.2707 59.5908 42.2707L71.4312 42.2707C72.648 42.2707 73.636 41.2827 73.6516 40.0607C73.8648 21.7931 76.86 4.76831 88.8772 4.76831Z" fill="white"/>
<path d="M65.4668 116.35C92.6576 116.35 122.578 101.795 122.625 82.9556C122.625 82.9868 122.625 83.0128 122.625 83.044C122.625 106.366 102.527 123.947 65.4668 123.947C28.4065 123.947 8.30847 106.366 8.30847 83.044C8.30847 83.0128 8.30847 82.9868 8.30847 82.9556C8.35007 101.795 38.2761 116.35 65.4668 116.35Z" fill="#CECECE"/>
<path d="M80.5729 77.1681C80.5729 83.5277 83.5785 86.8401 87.2861 86.8401C90.9937 86.8401 93.9993 83.5277 93.9993 77.1681C93.9993 70.8085 90.9937 67.4961 87.2861 67.4961C83.5785 67.4961 80.5729 70.8085 80.5729 77.1681Z" fill="#8D8D8D"/>
<path d="M36.9293 77.1681C36.9293 83.5277 39.9349 86.8401 43.6425 86.8401C47.3501 86.8401 50.3557 83.5277 50.3557 77.1681C50.3557 70.8085 47.3501 67.4961 43.6425 67.4961C39.9349 67.4961 36.9293 70.8085 36.9293 77.1681Z" fill="#8D8D8D"/>
</g>
<defs>
<clipPath id="clip0_2712_36">
<rect width="130" height="130" fill="white" transform="matrix(-1 -8.74228e-08 -8.74228e-08 1 130.509 0)"/>
</clipPath>
</defs>
</svg>
