<svg width="152" height="140" viewBox="0 0 152 140" fill="none" xmlns="http://www.w3.org/2000/svg">
<path d="M151.274 36.2871C150.786 39.0902 150.299 40.4308 149.567 41.8932C148.836 43.5994 148.105 45.4275 147.374 49.3274C147.13 50.7898 146.886 52.0085 146.764 52.9835V53.1054C146.521 54.6897 146.399 55.7865 145.789 57.6146C145.302 59.1989 144.449 61.7582 142.377 64.4394C140.671 66.6331 137.868 70.4111 134.09 70.8986C133.724 70.8986 133.115 70.8986 132.749 70.7767C122.024 65.2925 112.884 61.2707 109.716 60.4176C106.059 59.3208 106.547 51.2773 106.912 44.2088C107.156 41.0401 107.278 37.9933 107.156 35.434C106.669 26.4156 105.084 16.6659 97.2846 11.9129C92.6535 9.10987 86.56 8.25677 80.832 8.25677C81.9289 7.76929 83.0257 7.03806 84.3663 6.30684C87.7787 4.3569 91.9223 1.91947 96.1878 1.43199C97.5284 1.31012 98.869 1.18824 100.21 0.944501C108.619 -0.0304683 115.931 -0.883566 123.609 1.7976C127.143 3.01631 134.212 6.91619 136.04 10.6942C137.38 13.2535 139.574 15.3253 143.839 19.3471C146.155 21.4189 147.617 22.6376 148.714 23.6125C150.299 24.8313 150.542 25.1969 151.03 26.05C152.492 28.9749 152.005 32.0217 151.274 36.2871Z" fill="white"/>
<path d="M112.397 73.214C112.884 73.3359 113.128 73.9453 112.762 74.4328C111.666 76.1389 110.325 78.5764 108.741 81.3794C108.009 82.72 107.278 84.0606 106.669 85.0356C104.597 88.5698 104.475 91.6166 104.353 93.9321C104.231 96.4914 104.11 97.5883 102.525 98.5633C101.307 99.4164 99.966 99.6601 91.1912 101.001C89.6069 101.244 88.9976 101.488 88.3882 101.854C88.2663 101.976 88.0226 101.976 87.9007 102.098C87.4132 102.341 86.9257 101.854 86.9257 101.366C87.0476 100.148 87.0476 98.5632 87.0476 96.4914V96.1258C87.0476 94.4196 87.0476 92.9572 86.9257 91.8603C86.8039 89.6667 86.8039 88.6917 87.4132 87.7167C88.1445 86.498 88.7538 86.1324 89.6069 85.523C90.9475 84.6699 92.7756 83.5731 95.3349 79.917C96.7973 77.967 97.0411 76.8702 97.2848 76.0171C97.4067 75.6515 97.4067 75.5296 98.5035 74.6765C99.6003 73.8234 103.135 71.1422 107.644 71.8735C109.106 72.1172 110.691 72.6047 112.397 73.214Z" fill="white"/>
<path d="M77.4197 113.675C77.1759 113.919 77.0541 114.041 76.6884 114.041C75.7135 114.041 75.1041 113.797 74.7385 113.31C73.8854 112.213 74.0073 110.019 74.1291 108.679L77.9071 107.704C78.1509 109.775 78.2728 112.578 77.4197 113.675Z" fill="white"/>
<path d="M77.6634 100.27C77.5415 100.757 77.5415 101.366 77.5415 102.098C77.5415 102.341 77.5415 102.585 77.5415 102.829C77.5415 103.438 77.5415 104.413 77.5415 104.901C76.3228 105.266 75.3479 105.266 74.1292 105.266C74.1292 104.901 74.1292 104.291 74.1292 103.926C74.1292 103.682 74.1292 103.316 74.1292 103.073C74.1292 102.707 74.1292 102.463 74.1292 102.098C74.1292 101.366 74.1291 100.27 74.251 99.904C74.6166 99.904 74.9822 99.7821 75.3479 99.6603C76.0791 99.5384 77.1759 99.2946 77.7853 99.4165C77.7853 99.6603 77.7853 100.026 77.6634 100.27Z" fill="white"/>
<path d="M70.8387 112.578C70.7169 114.528 70.1075 116.844 68.2794 117.21C67.4263 117.331 67.0607 117.088 66.817 116.844C65.5983 115.747 65.4764 112.335 65.5983 109.897C66.4514 109.897 67.4263 109.775 68.645 109.532C69.3763 109.41 70.1075 109.166 70.7169 109.044C70.8387 110.019 70.9606 111.238 70.8387 112.578Z" fill="white"/>
<path d="M69.9856 105.754L65.9639 107.216C66.2076 105.632 66.4514 103.438 66.5732 101.976C66.6951 101.001 66.9388 100.635 67.0607 100.513C67.0607 100.513 67.1826 100.391 67.3044 100.391C67.3044 100.391 67.3044 100.391 67.4263 100.391H67.5482L70.1075 100.27C69.9856 101.488 69.9856 104.169 69.9856 105.754Z" fill="white"/>
<path d="M63.4044 104.535C63.1607 105.144 62.9169 106.85 62.7951 108.069L57.7983 107.947C58.0421 106.363 58.5296 104.779 58.8952 103.56C59.3827 102.341 59.7483 101.366 60.2358 101.123C60.7232 100.879 61.8201 100.757 62.5513 101.366C63.6482 102.098 63.8919 103.194 63.4044 104.535Z" fill="white"/>
<path d="M61.5764 120.013C61.2108 120.5 60.7233 120.866 60.2358 120.866C59.6265 120.988 59.2608 120.744 58.8952 120.5C57.3109 119.038 57.4328 114.285 57.5546 111.969C59.6265 111.482 61.942 111.116 63.0388 110.994C63.0388 112.822 63.1607 117.819 61.5764 120.013Z" fill="white"/>
<path d="M54.9955 107.704C54.7517 108.313 54.508 108.922 54.3861 109.532C53.7767 109.775 51.9487 109.532 50.1206 109.166L51.3393 101.244C53.4111 100.635 55.8486 100.513 56.336 101.123C57.1891 101.976 55.6048 105.997 54.9955 107.704Z" fill="white"/>
<path d="M52.6797 121.11C51.7047 122.328 50.2423 122.938 48.1705 122.816C46.708 122.816 46.2205 122.206 45.9768 121.841C44.8799 120.013 45.9768 115.747 47.0736 113.066L53.8984 113.432C54.0203 113.919 54.0203 114.529 54.0203 115.138C54.1422 117.21 53.8984 119.647 52.6797 121.11Z" fill="white"/>
<path d="M109.228 63.4646C103.013 61.7584 103.622 52.7399 104.11 43.9652C104.231 40.9184 104.475 37.9935 104.353 35.5561C103.866 27.3907 102.525 18.4941 95.9442 14.4723C88.8756 10.2069 77.2979 11.1818 70.2293 12.0349C67.67 12.7661 65.2326 13.3755 63.2827 13.2536C59.1391 13.0099 55.8485 11.3037 52.9236 9.71936C50.7299 8.50065 48.78 7.40381 46.8301 7.40381C46.7082 7.40381 46.5863 7.40381 46.5863 7.40381C41.1021 7.76942 38.5428 9.11001 36.2273 11.1818C35.6179 11.6693 34.8867 13.1318 32.5711 19.8347C31.3524 23.2471 31.2306 25.0751 30.9868 26.7813C30.7431 28.3657 30.6212 30.0719 29.7681 32.6311C29.1587 34.3373 28.6713 35.7998 28.3056 37.2623C27.2088 41.0403 26.2338 44.087 23.5527 47.7432C23.1871 48.1088 22.8214 48.84 22.334 49.4494C21.7246 50.4243 20.9934 51.6431 19.8965 52.9836C19.1653 53.9586 17.581 57.6147 17.7029 58.7116C17.8247 60.5397 18.4341 61.6365 19.0434 62.8552C19.6528 64.0739 20.5059 65.5364 20.6278 67.6082V67.9738C20.8715 71.1425 20.384 72.7268 14.4123 78.0891C10.6343 81.5015 7.83129 84.792 6.00322 87.2295C5.88135 87.4732 6.00322 87.7169 6.36883 87.7169C6.49071 87.7169 6.4907 87.7169 6.4907 87.7169C6.61257 87.7169 6.73445 87.7169 6.85632 87.7169C6.97819 87.7169 7.10006 87.7169 7.22193 87.7169C7.3438 87.7169 7.46567 87.7169 7.58755 87.7169C9.05 87.8388 10.5125 88.4482 11.4874 89.545C11.6093 89.7887 11.9749 89.7887 12.2187 89.6669C13.1936 89.3013 14.2905 89.3013 15.2654 89.4231C16.4841 89.545 17.8247 89.9106 18.6778 90.7637C18.9216 91.0075 19.2872 91.1293 19.6528 91.0075C20.6278 90.7637 21.7246 90.7637 22.6996 91.1293C23.4308 91.3731 24.162 91.8606 24.6495 92.4699C25.0151 92.8355 25.6245 92.9574 26.112 92.7137C26.3557 92.5918 26.7213 92.348 27.0869 92.2262C28.4275 91.7387 29.89 91.9824 31.1087 92.4699C31.718 92.7137 32.3274 92.8355 32.9368 93.323C33.9117 94.0542 34.643 95.0292 35.0086 96.1261C35.2523 96.7354 36.1054 96.9791 36.5929 96.4917C37.5679 95.7604 38.2991 95.6386 39.0303 95.8823C39.3959 96.0042 39.6397 96.2479 39.8834 96.6135C40.249 97.101 40.8584 97.5885 41.3459 97.3448C43.4177 96.7354 45.8551 97.101 47.6832 98.076C48.2925 98.4416 49.0238 98.9291 49.3894 99.6603V99.2947C49.3894 99.1728 49.5112 99.051 49.6331 98.9291L49.9987 98.8072C50.9737 98.4416 56.0923 96.9792 58.0422 99.051C58.1641 99.1728 58.286 99.1728 58.4078 99.051C58.6516 98.8072 58.8953 98.5635 59.0172 98.5635C60.3578 97.8322 62.5515 97.7104 64.0139 99.051C64.2577 99.2947 64.7451 99.1728 64.9889 98.9291C65.1107 98.6853 65.2326 98.5635 65.4764 98.4416C65.9638 97.9541 66.6951 97.8323 67.4263 97.8323L70.2293 97.7104C70.9606 97.7104 73.1543 97.4666 73.7636 97.3448H73.8855C74.1292 97.3448 74.4948 97.2229 74.8604 97.101C76.201 96.8573 77.7854 96.4917 79.0041 97.101C80.2228 97.7104 80.1009 99.051 79.979 100.27C79.979 100.757 79.8572 101.245 79.8572 101.732C79.8572 101.976 79.8572 102.22 79.8572 102.463C79.8572 103.56 79.8572 104.535 79.7353 105.266L79.8572 105.876C79.8572 105.876 79.8572 105.876 79.8572 105.998C79.979 106.485 80.5884 106.851 80.954 106.485C81.929 105.876 82.9039 105.145 83.2696 104.657V104.535C83.2696 104.413 83.3914 104.17 83.5133 103.682C83.6352 102.585 83.8789 100.513 83.8789 96.2479C83.8789 96.0042 83.8789 95.8823 83.8789 95.7604C83.8789 94.1761 83.8789 92.8355 83.757 91.7387C83.6352 89.4231 83.5133 87.5951 84.732 85.767C85.8289 83.9389 86.9257 83.3296 88.0225 82.5984C89.2413 81.8671 90.5818 81.014 92.8974 77.8454C93.9942 76.261 94.1161 75.6517 94.238 75.1642C94.4817 73.9455 94.8473 73.2143 96.6754 71.9955C98.1378 70.8987 102.403 67.6082 108.253 68.5832C110.203 68.9488 113.25 69.9237 116.419 71.1425C116.54 71.1425 116.662 71.2643 116.784 71.2643H116.906C119.709 72.3612 122.268 73.5799 124.096 74.5548C124.462 74.7986 124.95 74.6767 125.315 74.3111C125.924 73.5799 126.534 73.2143 127.143 72.7268C127.387 72.6049 127.631 72.483 127.753 72.3612C127.874 72.3612 127.874 72.2393 127.874 72.2393C128.362 71.8737 128.362 70.8987 127.753 70.655C119.587 66.6332 111.787 64.1958 109.228 63.4646ZM50.4862 65.2926C48.5363 73.5799 35.6179 82.8421 29.7681 82.8421H29.6462C29.5244 82.8421 29.4025 82.8421 29.4025 82.8421C29.2806 82.8421 29.1587 82.8421 29.0369 82.7202C28.915 82.7202 28.915 82.7202 28.7931 82.7202C27.6963 82.3546 26.2338 81.6234 25.137 80.5265C24.4058 79.7953 23.7964 78.8203 23.5527 77.9672C23.5527 77.8454 23.4308 77.6016 23.4308 77.4798C23.0652 76.0173 22.6996 74.3111 23.9183 71.3862C24.0402 71.0206 24.2839 70.655 24.4058 70.2894C24.4058 70.1675 24.5276 70.0456 24.5276 69.9237C24.6495 69.5581 24.7714 69.3144 24.8933 69.0706C25.0151 68.5832 25.2589 68.2175 25.3807 67.9738C25.3807 67.8519 25.5026 67.7301 25.5026 67.6082C25.8682 66.6332 25.8682 66.2676 25.9901 65.902C25.9901 65.6582 26.112 65.1708 26.2338 64.6833C26.5995 63.099 26.8432 61.7584 26.9651 60.6615C27.2088 58.5897 27.5744 56.7616 28.6713 55.0554C28.915 54.8117 29.0369 54.568 29.2806 54.3242C29.4025 54.2024 29.4025 54.2024 29.5244 54.0805C29.6462 53.9586 29.6462 53.9586 29.7681 53.8367C30.0118 53.593 30.3775 53.4711 30.6212 53.3493C30.7431 53.3493 30.8649 53.2274 30.9868 53.2274C31.2306 53.1055 31.4743 53.1055 31.718 52.9836C32.8149 52.7399 34.0336 52.7399 35.4961 52.8618C37.0804 52.9836 38.5428 53.2274 39.7615 53.593C40.8584 53.8367 41.8333 54.2024 42.5646 54.568C42.6864 54.568 42.6865 54.6898 42.8083 54.6898C42.9302 54.8117 43.0521 54.8117 43.2958 54.9336C43.5396 55.0555 43.6614 55.0555 43.9052 55.1773C44.1489 55.2992 44.3926 55.4211 44.6364 55.5429L44.8801 55.6648C45.7332 56.0304 46.5863 56.5179 47.1957 57.0054C47.5613 57.2491 47.805 57.4929 48.0488 57.7366C48.1706 57.8585 48.2925 57.8585 48.2925 57.9804C48.4144 58.1022 48.4144 58.1022 48.5363 58.2241C51.0956 60.4178 50.9737 63.4646 50.4862 65.2926ZM56.5798 33.728L56.336 35.1904C55.7267 38.6028 54.3861 43.2339 49.5112 44.4527C44.7583 45.5495 43.6614 45.7932 40.3709 46.037C40.249 46.037 40.249 46.037 40.1272 46.037C37.6897 46.037 32.9368 44.4527 32.0837 40.6747C31.5962 38.2372 32.693 36.4092 34.3992 33.4842C34.643 32.9968 35.0086 32.5093 35.3742 31.8999C37.8116 27.8782 38.6647 24.9533 39.3959 22.6377C40.1272 20.3222 40.7365 18.4941 42.3208 16.9098C42.6865 16.5442 43.0521 16.1785 43.5395 15.9348C43.7833 15.6911 44.1489 15.5692 44.5145 15.3254C45.002 15.0817 45.4895 14.9598 45.977 14.7161C47.0738 14.3505 48.2925 14.2286 49.3894 14.2286C51.7049 14.2286 54.0205 14.838 55.6048 16.1785C56.336 16.7879 57.4329 17.8847 58.0422 21.419C58.286 23.2471 57.7985 26.5376 56.5798 33.728ZM91.5568 43.4777C89.8506 46.4026 88.9975 47.9869 87.5351 49.2056C84.6101 51.6431 81.3196 52.1305 78.5166 52.1305C76.5666 52.1305 74.8604 51.7649 73.7636 51.6431C70.8387 51.1556 65.5982 50.1806 63.7702 45.9151C63.4046 45.062 63.4046 44.5745 63.4046 43.8433C63.4046 43.2339 63.4046 42.0152 63.0389 39.4559V39.3341C62.9171 38.1154 62.7952 36.7748 63.0389 35.0686V34.8248C64.0139 29.7062 64.3795 28.975 64.5014 28.4875C64.9889 27.5126 66.2076 27.0251 67.3044 27.6344C68.2794 28.1219 68.645 29.3406 68.2794 30.3156C68.1575 30.5593 67.9138 31.6562 67.0607 35.6779V35.9217C66.8169 37.0185 66.9388 37.8716 67.0607 38.9685V39.0903C67.4263 42.0152 67.4263 43.2339 67.4263 43.9652C67.4263 44.087 67.4263 44.2089 67.4263 44.3308V44.4527C67.7919 45.3058 68.5231 45.7932 69.3762 46.2807C69.9856 46.5245 70.595 46.037 70.4731 45.4276C69.62 40.9184 69.62 35.6779 71.3262 32.3874C71.9355 31.2906 72.9105 29.5844 73.8855 27.8782C74.0073 27.7563 74.1292 27.5126 74.1292 27.3907C74.2511 27.2688 74.2511 27.1469 74.373 27.0251C74.8604 26.2938 75.2261 25.6845 75.5917 25.0751C75.5917 24.9533 75.7135 24.9533 75.7135 24.8314L75.8354 24.7095C75.9573 24.5877 75.9573 24.4658 76.0792 24.3439C76.0792 24.3439 76.0792 24.222 76.201 24.222L76.3229 24.1002C76.3229 23.9783 76.4448 23.9783 76.4448 23.8564C76.8104 23.3689 77.176 22.8815 77.4197 22.394C77.9072 21.7846 77.2979 21.0534 76.6885 21.2971C74.9823 22.0284 73.8855 22.8815 73.6417 23.0033C72.7886 23.7346 71.4481 23.6127 70.7168 22.6377C69.9856 21.7846 70.1075 20.444 71.0824 19.7128C72.1793 18.8597 77.7854 14.838 84.4883 16.666C89.3631 18.0066 91.8005 21.7846 92.7755 23.1252C93.5067 24.222 95.9442 27.6344 95.8223 32.5093C95.8223 36.0435 94.3598 38.7247 91.5568 43.4777Z" fill="white"/>
<path d="M47.9269 18.4939C47.5613 19.347 47.1957 20.322 46.7082 21.4188C45.7332 23.9781 44.5145 26.903 43.9052 27.9998C42.9302 29.8279 42.199 31.0466 41.5896 31.8997C40.8584 32.9966 40.3709 33.8497 39.8834 35.0684C39.1522 37.1402 39.0303 39.4557 39.5178 42.015C38.1772 41.8932 36.1054 41.0401 35.8617 39.8214C35.7398 38.9683 36.2273 38.1152 37.6897 35.5559C37.9335 35.0684 38.2991 34.459 38.6647 33.9715C41.224 29.5842 42.3209 26.2937 43.0521 23.8562C43.9052 21.2969 44.2708 20.2001 45.6114 19.2251C46.4645 18.8595 47.1957 18.6158 47.9269 18.4939Z" fill="white"/>
<path d="M45.3675 110.629C43.905 113.553 42.1988 116.235 41.102 117.575C40.127 115.138 38.5427 109.41 39.0302 104.901C39.0302 104.779 39.0302 104.657 39.0302 104.535C39.1521 103.073 39.5177 101.854 40.2489 100.757C40.7364 100.026 41.9551 99.6602 43.2957 99.6602C44.2707 99.6602 45.3675 99.9039 46.3425 100.391C46.83 100.635 47.5612 101.244 47.5612 102.829C47.8049 105.022 46.7081 107.947 45.3675 110.629Z" fill="white"/>
<path d="M123.365 78.089C123.487 78.2109 123.487 78.3328 123.487 78.4546C123.121 79.3077 122.512 79.9171 121.903 80.6483C121.171 81.5014 120.318 82.4764 119.587 84.0607C118.49 86.2544 118.125 88.2043 118.003 93.3229C117.759 99.2946 118.003 102.585 118.246 105.023C118.368 107.338 118.49 108.801 118.125 111.116C117.272 115.747 115.322 118.794 112.762 122.694C109.594 127.569 106.425 132.565 101.063 134.15C100.575 134.272 100.575 134.272 99.1127 134.272C97.894 134.272 95.8222 134.272 92.0442 134.394C84.9756 134.637 81.4414 134.759 78.5165 135.368C75.3478 135.978 73.7635 136.709 72.0573 137.318C70.5948 137.928 69.2543 138.415 66.695 139.025C65.1106 139.39 62.7951 139.634 54.8735 139.756C46.5862 139.756 41.5895 139.756 35.1303 139.025C26.1118 138.05 21.6026 137.44 18.5558 135.856C11.4873 132.078 8.44052 125.253 3.56567 114.041C3.56567 113.919 3.68755 113.797 3.80942 113.797C4.05316 113.919 4.2969 114.041 4.54064 114.163C4.78438 114.285 5.02813 114.285 5.15 114.285C5.63748 114.407 6.12497 114.407 6.61245 114.285C6.73433 114.285 6.73433 114.285 6.8562 114.163C6.97807 114.163 7.09994 114.163 7.09994 114.285C7.46555 115.138 7.95304 115.869 8.80613 116.357C9.65923 116.844 10.6342 116.844 11.4873 116.844C12.4623 116.844 13.4372 116.722 14.4122 116.6C14.8997 116.6 15.3872 116.844 15.6309 117.21C16.484 119.403 17.5809 120.866 19.2871 121.11C19.4089 121.11 19.5308 121.11 19.6527 121.11C20.0183 121.11 20.6276 120.988 21.3589 120.5C21.9682 120.013 22.9432 120.378 23.4307 120.988C23.7963 121.597 24.2838 121.963 24.7713 122.328C26.4775 124.034 30.6211 124.888 34.0335 124.888C35.8615 124.888 37.5677 124.644 38.5427 124.156C40.0052 123.425 40.0052 122.45 39.8833 121.963C39.7614 121.231 39.6395 120.378 39.5177 119.647C39.5177 119.525 39.6396 119.525 39.6396 119.647C39.8833 120.135 40.127 120.622 40.7364 120.744C40.8583 120.744 40.8583 120.744 40.9801 120.744C41.9551 120.744 43.4176 121.11 43.6613 121.963C43.7832 122.45 44.0269 122.816 44.2707 123.303C44.88 124.156 45.9769 125.253 48.2924 125.375H48.4143C51.0954 125.375 53.1673 124.522 54.5078 122.816C54.6297 122.694 54.6297 122.572 54.7516 122.45C55.2391 121.719 56.7015 121.719 57.3109 122.328C58.0421 122.938 58.8952 123.303 59.8702 123.303C59.992 123.303 60.2358 123.303 60.3577 123.303C61.5764 123.181 62.5513 122.572 63.4044 121.475C63.8919 120.744 64.2575 119.891 64.5013 118.916C64.6231 118.672 64.9888 118.55 65.2325 118.794C65.72 119.281 66.5731 119.769 67.7918 119.769C68.0355 119.769 68.4012 119.769 68.7668 119.647C71.0823 119.16 72.301 117.21 72.7885 115.138C72.7885 115.016 72.9104 115.016 72.9104 115.138C73.5197 115.869 74.6166 116.722 76.4447 116.722C76.5665 116.722 76.6884 116.722 76.6884 116.722C77.6634 116.722 78.5165 116.235 79.1258 115.503C79.857 114.529 80.1008 113.066 80.2227 111.725C80.2227 111.36 80.4664 110.994 80.9539 110.751C82.9038 109.897 85.3413 108.069 86.0725 106.851C86.0725 106.851 86.0725 106.729 86.1944 106.729C86.3162 106.363 86.6818 106.119 86.9256 106.119C88.5099 105.876 89.1193 105.51 89.7286 105.266C90.2161 105.023 90.5817 104.901 91.8004 104.657C100.697 103.316 102.403 102.951 104.353 101.732C107.278 99.7821 107.4 97.1009 107.522 94.5416C107.644 92.348 107.766 89.9105 109.472 86.9856C110.081 85.8888 110.812 84.6701 111.544 83.2076C112.884 80.7702 114.712 77.3578 116.053 75.5297C116.297 75.1641 116.784 75.0422 117.15 75.286C120.196 76.3828 122.878 77.6015 123.365 78.089Z" fill="white"/>
<path d="M36.8365 104.657C36.4709 107.704 36.2272 111.847 36.7147 117.21C36.8365 118.672 37.0803 120.256 37.324 121.841C36.9584 122.084 35.6178 122.45 33.4241 122.328C30.2555 122.206 27.0868 121.475 26.1119 120.378L25.99 120.256C25.2588 119.647 24.6494 119.16 24.6494 118.063C24.6494 117.697 24.7713 117.331 25.1369 116.722C25.3806 116.478 25.6244 116.113 25.8681 115.625C26.3556 114.894 27.0868 114.041 27.8181 112.822C29.8899 109.41 30.6211 108.313 31.5961 106.972C31.7179 106.851 31.7179 106.729 31.8398 106.607C32.4492 105.876 33.0585 104.901 34.1554 103.316C34.8866 102.219 35.496 101.244 36.1053 100.513C36.9584 99.2946 37.5678 98.6852 37.9334 98.3196C37.9334 98.8071 37.8115 99.5383 37.6896 100.27C37.2021 101.732 36.9584 103.073 36.8365 104.657Z" fill="white"/>
<path d="M35.2522 56.6397C35.2522 56.7616 35.2522 56.7616 35.2522 56.6397C34.7647 57.2491 34.2772 57.9803 33.6679 59.199C32.0835 62.6114 32.0835 64.5614 32.0835 66.1457C32.0835 66.9988 32.0835 67.6081 31.8398 68.3394C31.7179 68.8269 31.4742 69.4362 31.1086 70.0456C30.2555 72.1174 29.0368 74.7985 29.5242 78.4547C28.793 78.0891 27.6962 77.236 27.4524 76.8704C27.4524 76.6266 27.3306 76.5047 27.3306 76.261C27.0868 75.1642 26.9649 74.4329 27.5743 72.7267C29.5242 68.3394 29.768 67.2425 29.8899 66.0238C29.8899 65.7801 30.0117 65.5363 30.0117 65.1707C30.3773 63.4645 30.6211 62.0021 30.743 60.7834C30.9867 58.9553 31.2304 57.7366 31.8398 56.8835C32.0835 56.5179 32.6929 56.396 33.546 56.396C33.9116 56.396 34.2772 56.396 34.7647 56.5179H34.8866C35.2522 56.6397 35.2522 56.6397 35.2522 56.6397Z" fill="white"/>
<path d="M32.8149 100.148C32.693 99.0508 32.5711 98.0758 32.0837 96.9789C32.0837 96.9789 31.9618 96.7352 31.9618 96.6133C31.8399 96.4915 31.8399 96.3696 31.718 96.2477L31.5962 96.1259C31.4743 96.004 31.4743 96.004 31.3524 96.004L31.2306 95.8821C31.1087 95.8821 31.1087 95.7602 30.9868 95.7602H30.865C30.2556 95.5165 29.6462 95.2728 28.915 95.1509C28.7931 95.1509 28.6713 95.1509 28.6713 95.1509C28.5494 95.1509 28.5494 95.1509 28.4275 95.1509H28.3057C28.1838 95.1509 28.0619 95.2727 27.8182 95.2727C27.6963 95.2727 27.6963 95.3946 27.5744 95.3946L27.4526 95.5165C27.3307 95.6384 27.3307 95.6384 27.2088 95.7602L27.0869 95.8821V96.004C26.8432 96.3696 26.5995 96.7352 26.3557 97.1008C25.7464 97.9539 25.137 98.9289 24.5277 99.782C23.9183 100.635 23.4308 101.366 22.8215 102.219C22.4558 102.707 22.2121 103.073 21.8465 103.56C21.8465 103.682 21.7246 103.682 21.7246 103.804C22.0902 103.926 22.4558 103.926 22.8215 104.047C23.6746 104.169 24.5276 104.291 25.2589 104.413C26.9651 104.657 28.7931 104.779 30.4993 104.657C30.6212 104.657 30.6212 104.657 30.7431 104.657C31.1087 104.047 31.718 103.316 32.3274 102.341C32.693 101.854 33.0586 101.366 33.3024 100.879C32.9368 100.757 32.8149 100.391 32.8149 100.148Z" fill="white"/>
<path d="M26.5993 107.338C26.4775 108.679 25.015 112.091 22.6994 115.381C20.7495 118.063 19.5308 118.794 19.287 118.794C18.3121 118.672 17.459 116.356 16.7278 114.041C16.484 113.066 16.1184 112.213 15.9965 111.36C15.509 109.654 15.3872 107.216 15.509 105.754C17.459 106.851 20.8714 107.094 25.7462 107.094C25.99 107.216 26.3556 107.216 26.5993 107.338Z" fill="white"/>
<path d="M23.187 96.3696C22.3339 97.7102 21.4808 98.9289 20.6277 100.148C20.1402 100.757 19.7746 101.366 19.2871 101.976C19.0434 102.341 18.6778 102.707 18.434 103.073C17.7028 102.951 17.0935 102.707 16.3622 102.585C15.7529 102.463 15.2654 102.219 14.656 101.976C14.5342 101.976 14.4123 101.854 14.2904 101.854C14.1685 101.732 14.0467 101.488 13.9248 101.366C14.1685 101.001 14.2904 100.513 14.5342 100.148C14.8998 99.4164 15.2654 98.6852 15.7529 97.9539C16.4841 96.7352 17.3372 95.3946 18.6778 94.5415C18.7997 94.5415 18.7997 94.4197 18.9215 94.4197C19.409 94.1759 19.8965 93.9322 20.5058 93.8103C20.6277 93.8103 20.9933 93.8103 21.2371 93.8103H21.3589C21.3589 93.8103 21.3589 93.8103 21.4808 93.8103C21.6027 93.8103 21.7246 93.9322 21.9683 93.9322C21.9683 93.9322 22.0902 93.9322 22.0902 94.054C22.212 94.1759 22.3339 94.1759 22.4558 94.2978C22.212 94.1759 22.6995 94.6634 22.6995 94.5415C22.9433 95.2728 23.0651 95.6384 23.187 96.3696Z" fill="white"/>
<path d="M16.6059 92.8353C15.0216 94.054 13.9248 95.7602 13.0717 97.5883C12.5842 98.5633 12.0967 99.5382 11.6092 100.513C11.6092 100.635 11.4873 100.757 11.4873 100.757C10.9999 100.635 10.5124 100.513 10.1468 100.391C9.65927 100.269 9.17179 100.026 8.68431 99.9038C8.44056 99.782 8.31869 99.6601 8.07495 99.5382C8.56244 98.6851 9.04992 97.832 9.65928 96.9789C10.3905 95.8821 11.2436 94.6634 12.0967 93.6884C12.4623 93.3228 12.8279 92.8353 13.1935 92.5916C13.681 92.3478 14.1685 92.3478 14.7779 92.4697C15.3872 92.4697 15.9966 92.4697 16.4841 92.7134C16.3622 92.7134 16.4841 92.8353 16.6059 92.8353Z" fill="white"/>
<path d="M14.1684 113.554C14.0466 113.675 14.0466 113.675 13.9247 113.797H13.8028C13.4372 113.797 13.0716 113.919 12.706 113.919C11.9748 113.919 11.2435 114.041 10.5123 113.919C10.1467 113.919 9.78107 113.797 9.53732 113.554C9.29358 113.188 9.17171 112.457 9.04984 111.969C8.56236 109.288 8.56236 106.607 8.8061 103.926C10.1467 104.413 11.6091 104.779 13.0716 105.023C12.706 107.46 13.3153 110.994 13.5591 111.969C13.9247 112.457 14.0466 113.066 14.1684 113.554Z" fill="white"/>
<path d="M9.78107 91.9823C8.56235 93.4448 7.46551 95.0291 6.49054 96.7353C6.12493 97.3447 5.63744 98.0759 5.27183 98.8071C4.78435 98.6853 4.29686 98.4415 3.93125 98.1978C3.56563 97.954 3.20002 97.7103 2.95628 97.4666C2.83441 97.3447 2.59066 97.2228 2.46879 97.1009C2.46879 97.1009 2.34692 97.1009 2.34692 96.9791C2.4688 96.6135 2.71254 96.3697 2.71254 96.126C2.95628 95.5166 3.20002 95.0291 3.56564 94.5416C4.17499 93.5667 4.78435 92.5917 5.51557 91.6167C5.75932 91.2511 6.00306 90.8855 6.49054 90.7636C6.85616 90.6418 7.34364 90.7636 7.70925 90.7636C8.44048 90.8855 9.17171 91.373 9.78107 91.9823Z" fill="white"/>
<path d="M0.397088 98.4415C0.518959 98.3196 0.397088 98.3196 0.397088 98.4415C0.884572 98.929 1.25019 99.2946 1.73767 99.6602C1.98142 99.7821 2.10329 100.026 2.34703 100.148C2.34703 100.148 2.34703 100.148 2.34703 100.27C1.85954 102.341 1.49393 104.535 1.49393 106.729C1.49393 106.851 1.37206 106.851 1.37206 106.729C0.762705 104.169 0.0314741 100.026 0.397088 98.4415Z" fill="white"/>
<path d="M6.36867 102.951C6.12493 104.779 6.00306 106.607 6.12493 108.435C6.12493 109.41 6.2468 110.385 6.36867 111.482C6.12493 111.482 5.88119 111.482 5.63745 111.482H5.51558H5.39371C5.14996 111.36 5.14996 111.36 4.90622 111.238C4.66248 111.116 4.41874 110.751 4.17499 110.385C3.68751 109.532 3.56564 108.557 3.56564 107.582C3.44377 105.754 3.68751 103.804 4.05312 101.976C4.29686 102.098 4.66248 102.22 5.02809 102.341C5.51558 102.585 5.88119 102.829 6.36867 102.951Z" fill="white"/>
</svg>
