<svg width="135" height="113" viewBox="0 0 135 113" fill="none" xmlns="http://www.w3.org/2000/svg">
<g clip-path="url(#clip0_2712_45)">
<path d="M114.929 0H134.305L93.9828 40.3214C79.3804 54.9157 55.7055 54.9157 41.0926 40.3214L0.754639 0H20.146L50.7804 30.6298C55.2438 35.0726 61.259 37.5632 67.5259 37.5632C73.7928 37.5632 79.808 35.0726 84.2714 30.6298L114.929 0Z" fill="white"/>
<path d="M19.8973 112.121H0.508545L41.0926 71.5514C55.695 56.9571 79.3699 56.9571 93.9828 71.5514L134.567 112.121H115.191L84.295 81.2431C79.8316 76.8003 73.8164 74.3097 67.5495 74.3097C61.2826 74.3097 55.2674 76.8003 50.804 81.2431L19.8973 112.121Z" fill="white"/>
</g>
<defs>
<clipPath id="clip0_2712_45">
<rect width="134.058" height="112.122" fill="white" transform="translate(0.508545)"/>
</clipPath>
</defs>
</svg>
