<svg width="118" height="139" viewBox="0 0 118 139" fill="none" xmlns="http://www.w3.org/2000/svg">
<path d="M13.6782 69.5521L13.7508 96.1642L36.363 109.47V125.05L0.517345 104.027V61.7701L13.6782 69.5521ZM13.6782 42.94V58.4476L0.509277 50.6575V35.1499L13.6782 27.3599L26.9117 35.1499L13.6782 42.94ZM45.8063 35.1499L58.9752 27.3599L72.2086 35.1499L58.9752 42.94L45.8063 35.1499Z" fill="white"/>
<path d="M23.1941 90.6482V75.0681L36.363 82.8581V98.3657L23.1941 90.6482ZM45.8063 115.051L58.9752 122.841L72.2087 115.051V130.558L58.9752 138.348L45.8063 130.558V115.051ZM91.0952 35.1499L104.264 27.3599L117.498 35.1499V50.6575L104.264 58.4476V42.94L91.0952 35.1499ZM104.264 96.1642L104.337 69.5521L117.506 61.762V104.019L81.66 125.042V109.462L104.264 96.1642Z" fill="white"/>
<path d="M94.8208 90.6483L81.6519 98.3658V82.8582L94.8208 75.0681V90.6483Z" fill="white"/>
<path d="M94.8209 48.456L94.8935 64.0361L72.2168 77.3422V104.019L59.0478 111.736L45.8789 104.019V77.3422L23.2022 64.0361V48.456L36.4275 40.6659L58.9672 54.0365L81.6439 40.6659L94.8773 48.456H94.8209ZM23.1941 21.852L58.9752 0.755859L94.8209 21.852L81.6519 29.6421L58.9752 16.2715L36.363 29.6421L23.1941 21.852Z" fill="white"/>
</svg>
