<svg width="101" height="102" viewBox="0 0 101 102" fill="none" xmlns="http://www.w3.org/2000/svg">
<path d="M76.1045 48.8203C76.8058 48.4691 77.8578 49.1715 77.8578 49.874L79.2604 55.1424C79.611 55.8448 78.9097 56.8985 78.2084 56.8985C77.5071 57.2497 76.4552 56.5473 76.4552 55.8448L75.0526 50.5764C74.7019 49.874 75.0526 48.8203 76.1045 48.8203ZM35.7801 9.48298C35.4295 8.78053 35.4295 7.72685 36.1308 7.37563L40.6892 4.21459C41.3905 3.86337 42.4424 3.86336 42.7931 4.56582C43.1437 5.6195 43.1437 6.32195 42.4424 7.0244L37.884 10.1854C37.1827 10.1854 36.1308 10.1854 35.7801 9.48298Z" fill="white"/>
<path fill-rule="evenodd" clip-rule="evenodd" d="M59.2732 28.0981C54.0135 27.0444 48.4032 27.7468 43.4941 30.9079C50.5071 28.4493 58.572 30.2054 64.1823 35.825C71.8965 43.9032 71.8965 56.8986 64.1823 64.6256C63.1304 65.6793 62.0784 66.3817 61.0265 67.0842C63.8317 66.0305 66.6368 64.6256 68.7407 62.167C74.3511 56.5474 75.7537 48.4692 73.6498 41.4447C67.6888 39.3373 62.4291 34.4201 59.2732 28.0981Z" fill="#717171"/>
<path d="M92.5849 73.7574C79.9616 97.2896 50.5073 106.07 27.3646 93.0749C3.87121 80.4307 -4.54431 50.5765 8.07898 27.0444C16.4945 11.5904 31.923 2.45856 48.4034 1.7561C50.5073 1.7561 52.2605 2.80978 53.3124 4.91714C54.3644 7.02449 55.0657 9.8343 54.715 12.6441C54.715 13.6978 54.715 14.7515 54.715 15.8051C54.715 20.7223 56.1176 25.6395 58.2215 29.8542C48.0527 25.9907 36.4814 30.2054 31.2217 40.0397C25.2607 50.9277 29.4684 64.2743 39.9879 70.2452C50.5073 76.216 64.1825 72.0013 69.7928 61.4645C72.9487 55.4937 73.2993 48.4692 70.8448 42.4983C75.0526 44.6057 79.611 45.6594 84.52 45.6594C87.3252 45.6594 89.7797 45.3081 92.5849 44.6057C93.9875 44.2545 95.7407 44.2545 96.7927 44.9569C97.8446 45.6594 98.5459 46.3618 98.5459 47.4155C98.8965 56.1961 96.7927 65.328 92.5849 73.7574Z" fill="url(#paint0_radial_2712_59)" stroke="white" stroke-width="1.30597"/>
<path d="M79.9616 64.2743L81.7148 63.5719C83.1174 67.0842 81.3642 70.2452 80.3123 72.7038C80.3123 72.7038 80.3123 72.7038 80.3123 73.055C79.611 74.4599 78.9097 75.5136 78.9097 76.5673C78.559 78.3234 78.559 80.0795 78.9097 81.1332C79.2603 82.1869 80.3123 83.2405 81.7148 83.5918C82.7668 83.943 84.52 83.5918 86.6239 82.1869C95.0394 72.3525 98.8965 59.7084 98.1952 47.7667C98.1952 46.713 97.494 45.6594 96.442 44.9569C95.3901 44.2545 93.6368 44.2545 92.2343 44.6057C89.7797 45.3081 86.9745 45.6594 84.52 45.6594C79.611 45.6594 75.0526 44.6057 70.8448 42.1471C73.2993 48.1179 72.9487 54.7912 70.1435 60.7621C69.7928 61.8158 69.0916 62.5182 68.3903 63.5719C69.7928 63.2207 71.1954 62.5182 73.2993 61.1133C75.7538 59.3572 78.9097 61.1133 79.9616 64.2743ZM79.9616 64.2743C81.0136 67.0841 79.611 69.5427 78.559 72.0013C77.8577 73.4062 77.1564 74.8111 76.8058 76.216L79.9616 64.2743ZM46.2995 28.4493C41.3904 29.8542 37.5333 29.1517 34.7282 27.7468C31.923 25.9907 29.4684 23.5321 28.4165 20.7223C27.0139 17.5613 26.6633 14.4002 27.3646 11.5904C28.0659 8.78062 29.4684 6.67327 31.5723 5.61959C37.5333 3.16101 43.845 1.7561 49.806 1.7561C51.5592 1.7561 52.9618 2.80978 54.0137 4.56591C55.0657 6.32204 55.4163 8.78062 55.0657 10.888C54.715 12.2929 54.715 14.049 54.715 15.8051C54.715 20.7223 56.1176 25.6395 58.2215 29.8542C54.3644 28.0981 50.1566 27.7468 46.2995 28.4493Z" fill="white"/>
<path d="M79.9616 64.2743L81.7148 63.5719C83.1174 67.0842 81.3642 70.2452 80.3123 72.7038C80.3123 72.7038 80.3123 72.7038 80.3123 73.055C79.611 74.4599 78.9097 75.5136 78.9097 76.5673C78.559 78.3234 78.559 80.0795 78.9097 81.1332C79.2603 82.1869 80.3123 83.2405 81.7148 83.5918C82.7668 83.943 84.52 83.5918 86.6239 82.1869C95.0394 72.3525 98.8965 59.7084 98.1952 47.7667C98.1952 46.713 97.494 45.6594 96.442 44.9569C95.3901 44.2545 93.6368 44.2545 92.2343 44.6057C89.7797 45.3081 86.9745 45.6594 84.52 45.6594C79.611 45.6594 75.0526 44.6057 70.8448 42.1471C73.2993 48.1179 72.9487 54.7912 70.1435 60.7621C69.7928 61.8158 69.0916 62.5182 68.3903 63.5719C69.7928 63.2207 71.1954 62.5182 73.2993 61.1133C75.7538 59.3572 78.9097 61.1133 79.9616 64.2743ZM79.9616 64.2743C81.0136 67.0841 79.611 69.5427 78.559 72.0013C77.8577 73.4062 77.1564 74.8111 76.8058 76.216L79.9616 64.2743ZM46.2995 28.4493C41.3904 29.8542 37.5333 29.1517 34.7282 27.7468C31.923 25.9907 29.4684 23.5321 28.4165 20.7223C27.0139 17.5613 26.6633 14.4002 27.3646 11.5904C28.0659 8.78062 29.4684 6.67327 31.5723 5.61959C37.5333 3.16101 43.845 1.7561 49.806 1.7561C51.5592 1.7561 52.9618 2.80978 54.0137 4.56591C55.0657 6.32204 55.4163 8.78062 55.0657 10.888C54.715 12.2929 54.715 14.049 54.715 15.8051C54.715 20.7223 56.1176 25.6395 58.2215 29.8542C54.3644 28.0981 50.1566 27.7468 46.2995 28.4493Z" stroke="white" stroke-width="1.30597"/>
<path d="M13.6894 41.7958C15.045 41.7958 16.1439 40.6951 16.1439 39.3372C16.1439 37.9794 15.045 36.8787 13.6894 36.8787C12.3338 36.8787 11.2349 37.9794 11.2349 39.3372C11.2349 40.6951 12.3338 41.7958 13.6894 41.7958Z" fill="white"/>
<path d="M50.1564 85.6991C51.512 85.6991 52.611 84.5984 52.611 83.2406C52.611 81.8827 51.512 80.782 50.1564 80.782C48.8008 80.782 47.7019 81.8827 47.7019 83.2406C47.7019 84.5984 48.8008 85.6991 50.1564 85.6991Z" fill="white"/>
<path d="M34.728 89.5627C37.0519 89.5627 38.9358 87.6757 38.9358 85.348C38.9358 83.0203 37.0519 81.1333 34.728 81.1333C32.4041 81.1333 30.5203 83.0203 30.5203 85.348C30.5203 87.6757 32.4041 89.5627 34.728 89.5627Z" fill="white"/>
<defs>
<radialGradient id="paint0_radial_2712_59" cx="0" cy="0" r="1" gradientUnits="userSpaceOnUse" gradientTransform="translate(50.2835 50.5057) rotate(90) scale(50.499 49.9078)">
<stop offset="0.3335" stop-color="#414141"/>
<stop offset="0.6477" stop-color="white"/>
<stop offset="1" stop-color="#434343"/>
</radialGradient>
</defs>
</svg>
