<svg width="180" height="180" viewBox="0 0 180 180" fill="none" xmlns="http://www.w3.org/2000/svg">
<g clip-path="url(#clip0_2712_173)">
<path d="M176.96 112C164.995 159.987 116.386 189.191 68.388 177.225C20.4098 165.262 -8.79758 116.655 3.17245 68.6719C15.132 20.6794 63.7407 -8.52693 111.724 3.4365C159.719 15.3999 188.925 64.0116 176.959 112.001L176.959 112H176.96Z" fill="white"/>
<path d="M129.568 77.569C131.351 65.6484 122.275 59.2407 109.863 54.9661L113.89 38.8187L104.059 36.3695L100.14 52.0917C97.5553 51.4472 94.9012 50.8399 92.2634 50.2379L96.2114 34.4119L86.387 31.9626L82.3584 48.1048C80.2198 47.6179 78.1193 47.1367 76.0814 46.6297L76.0928 46.5789L62.5363 43.194L59.9212 53.6924C59.9212 53.6924 67.2146 55.3641 67.0609 55.467C71.0417 56.4604 71.7616 59.0953 71.6421 61.1838L67.0557 79.5795C67.3298 79.6491 67.6854 79.7498 68.0777 79.9074C67.7497 79.826 67.4007 79.7371 67.0386 79.6504L60.61 105.42C60.1235 106.629 58.8887 108.444 56.1055 107.755C56.204 107.898 48.9605 105.972 48.9605 105.972L44.0798 117.224L56.8727 120.413C59.2526 121.009 61.5847 121.634 63.8814 122.221L59.8135 138.553L69.6326 141.003L73.6612 124.843C76.3437 125.572 78.9469 126.243 81.4954 126.876L77.4804 142.959L87.3114 145.409L91.3789 129.107C108.142 132.279 120.747 131 126.052 115.839C130.327 103.633 125.839 96.5929 117.02 92.0018C123.443 90.5206 128.282 86.2963 129.572 77.5703L129.569 77.5681L129.568 77.569ZM107.108 109.061C104.07 121.267 83.5162 114.669 76.8525 113.014L82.2507 91.3761C88.914 93.0395 110.283 96.3311 107.108 109.061H107.108ZM110.148 77.3921C107.377 88.4947 90.2697 82.8541 84.7204 81.471L89.6146 61.8467C95.164 63.2298 113.035 65.8113 110.149 77.3921H110.148Z" fill="#112A3E"/>
</g>
<defs>
<clipPath id="clip0_2712_173">
<rect width="179.151" height="179.151" fill="white" transform="translate(0.489746 0.755859)"/>
</clipPath>
</defs>
</svg>
