<svg width="105" height="98" viewBox="0 0 105 98" fill="none" xmlns="http://www.w3.org/2000/svg">
<path d="M43.7515 42.8986C47.8573 42.8986 51.1857 39.5702 51.1857 35.4644C51.1857 31.3587 47.8573 28.0303 43.7515 28.0303C39.6458 28.0303 36.3174 31.3587 36.3174 35.4644C36.3174 39.5702 39.6458 42.8986 43.7515 42.8986Z" fill="white"/>
<path d="M60.0826 42.8986C64.1883 42.8986 67.5167 39.5702 67.5167 35.4644C67.5167 31.3587 64.1883 28.0303 60.0826 28.0303C55.9768 28.0303 52.6484 31.3587 52.6484 35.4644C52.6484 39.5702 55.9768 42.8986 60.0826 42.8986Z" fill="white"/>
<path d="M51.6736 26.0803C54.2313 26.0803 56.3047 24.0069 56.3047 21.4492C56.3047 18.8915 54.2313 16.8181 51.6736 16.8181C49.1159 16.8181 47.0425 18.8915 47.0425 21.4492C47.0425 24.0069 49.1159 26.0803 51.6736 26.0803Z" fill="white"/>
<path d="M51.6736 9.26221C54.2313 9.26221 56.3047 7.18879 56.3047 4.6311C56.3047 2.07342 54.2313 0 51.6736 0C49.1159 0 47.0425 2.07342 47.0425 4.6311C47.0425 7.18879 49.1159 9.26221 51.6736 9.26221Z" fill="white"/>
<path d="M76.4133 40.0957C78.971 40.0957 81.0444 38.0223 81.0444 35.4646C81.0444 32.9069 78.971 30.8335 76.4133 30.8335C73.8556 30.8335 71.7822 32.9069 71.7822 35.4646C71.7822 38.0223 73.8556 40.0957 76.4133 40.0957Z" fill="white"/>
<path d="M76.4133 67.7605C78.971 67.7605 81.0444 65.6871 81.0444 63.1294C81.0444 60.5717 78.971 58.4983 76.4133 58.4983C73.8556 58.4983 71.7822 60.5717 71.7822 63.1294C71.7822 65.6871 73.8556 67.7605 76.4133 67.7605Z" fill="white"/>
<path d="M70.198 85.6755C72.7557 85.6755 74.8291 83.6021 74.8291 81.0444C74.8291 78.4868 72.7557 76.4133 70.198 76.4133C67.6403 76.4133 65.5669 78.4868 65.5669 81.0444C65.5669 83.6021 67.6403 85.6755 70.198 85.6755Z" fill="white"/>
<path d="M52.0388 81.8975C54.5965 81.8975 56.6699 79.8241 56.6699 77.2664C56.6699 74.7087 54.5965 72.6353 52.0388 72.6353C49.4811 72.6353 47.4077 74.7087 47.4077 77.2664C47.4077 79.8241 49.4811 81.8975 52.0388 81.8975Z" fill="white"/>
<path d="M27.6648 67.7605C30.2225 67.7605 32.2959 65.6871 32.2959 63.1294C32.2959 60.5717 30.2225 58.4983 27.6648 58.4983C25.1071 58.4983 23.0337 60.5717 23.0337 63.1294C23.0337 65.6871 25.1071 67.7605 27.6648 67.7605Z" fill="white"/>
<path d="M15.843 53.7451C18.4007 53.7451 20.4741 51.6717 20.4741 49.114C20.4741 46.5563 18.4007 44.4829 15.843 44.4829C13.2853 44.4829 11.2119 46.5563 11.2119 49.114C11.2119 51.6717 13.2853 53.7451 15.843 53.7451Z" fill="white"/>
<path d="M27.6648 39.3645C30.2225 39.3645 32.2959 37.2911 32.2959 34.7334C32.2959 32.1757 30.2225 30.1023 27.6648 30.1023C25.1071 30.1023 23.0337 32.1757 23.0337 34.7334C23.0337 37.2911 25.1071 39.3645 27.6648 39.3645Z" fill="white"/>
<path d="M13.406 29.8585C15.156 29.8585 16.5746 28.4399 16.5746 26.6899C16.5746 24.9399 15.156 23.5212 13.406 23.5212C11.656 23.5212 10.2373 24.9399 10.2373 26.6899C10.2373 28.4399 11.656 29.8585 13.406 29.8585Z" fill="white"/>
<path d="M77.7536 9.74966C79.5036 9.74966 80.9223 8.33101 80.9223 6.58101C80.9223 4.83101 79.5036 3.41235 77.7536 3.41235C76.0036 3.41235 74.585 4.83101 74.585 6.58101C74.585 8.33101 76.0036 9.74966 77.7536 9.74966Z" fill="white"/>
<path d="M91.0378 29.9804C92.7878 29.9804 94.2064 28.5617 94.2064 26.8117C94.2064 25.0617 92.7878 23.6431 91.0378 23.6431C89.2878 23.6431 87.8691 25.0617 87.8691 26.8117C87.8691 28.5617 89.2878 29.9804 91.0378 29.9804Z" fill="white"/>
<path d="M101.397 52.2829C103.147 52.2829 104.565 50.8642 104.565 49.1142C104.565 47.3642 103.147 45.9456 101.397 45.9456C99.6467 45.9456 98.228 47.3642 98.228 49.1142C98.228 50.8642 99.6467 52.2829 101.397 52.2829Z" fill="white"/>
<path d="M76.4133 95.547C78.1633 95.547 79.5819 94.1284 79.5819 92.3784C79.5819 90.6284 78.1633 89.2097 76.4133 89.2097C74.6633 89.2097 73.2446 90.6284 73.2446 92.3784C73.2446 94.1284 74.6633 95.547 76.4133 95.547Z" fill="white"/>
<path d="M27.1774 95.547C28.9274 95.547 30.3461 94.1284 30.3461 92.3784C30.3461 90.6284 28.9274 89.2097 27.1774 89.2097C25.4274 89.2097 24.0088 90.6284 24.0088 92.3784C24.0088 94.1284 25.4274 95.547 27.1774 95.547Z" fill="white"/>
<path d="M3.16865 52.2829C4.91865 52.2829 6.3373 50.8642 6.3373 49.1142C6.3373 47.3642 4.91865 45.9456 3.16865 45.9456C1.41865 45.9456 0 47.3642 0 49.1142C0 50.8642 1.41865 52.2829 3.16865 52.2829Z" fill="white"/>
<path d="M27.6647 9.74966C29.4147 9.74966 30.8334 8.33101 30.8334 6.58101C30.8334 4.83101 29.4147 3.41235 27.6647 3.41235C25.9147 3.41235 24.4961 4.83101 24.4961 6.58101C24.4961 8.33101 25.9147 9.74966 27.6647 9.74966Z" fill="white"/>
<path d="M13.162 74.9507C15.1812 74.9507 16.8181 73.3138 16.8181 71.2946C16.8181 69.2753 15.1812 67.6384 13.162 67.6384C11.1428 67.6384 9.50586 69.2753 9.50586 71.2946C9.50586 73.3138 11.1428 74.9507 13.162 74.9507Z" fill="white"/>
<path d="M34.0021 22.1805C36.4252 22.1805 38.3895 20.2162 38.3895 17.7931C38.3895 15.37 36.4252 13.4058 34.0021 13.4058C31.579 13.4058 29.6147 15.37 29.6147 17.7931C29.6147 20.2162 31.579 22.1805 34.0021 22.1805Z" fill="white"/>
<path d="M70.1979 22.1805C72.621 22.1805 74.5853 20.2162 74.5853 17.7931C74.5853 15.37 72.621 13.4058 70.1979 13.4058C67.7748 13.4058 65.8105 15.37 65.8105 17.7931C65.8105 20.2162 67.7748 22.1805 70.1979 22.1805Z" fill="white"/>
<path d="M88.4787 53.5015C90.9017 53.5015 92.866 51.5373 92.866 49.1142C92.866 46.6911 90.9017 44.7268 88.4787 44.7268C86.0556 44.7268 84.0913 46.6911 84.0913 49.1142C84.0913 51.5373 86.0556 53.5015 88.4787 53.5015Z" fill="white"/>
<path d="M90.3063 76.9007C92.7294 76.9007 94.6937 74.9364 94.6937 72.5133C94.6937 70.0903 92.7294 68.126 90.3063 68.126C87.8832 68.126 85.9189 70.0903 85.9189 72.5133C85.9189 74.9364 87.8832 76.9007 90.3063 76.9007Z" fill="white"/>
<path d="M51.7951 97.9844C54.2182 97.9844 56.1824 96.0202 56.1824 93.5971C56.1824 91.174 54.2182 89.2097 51.7951 89.2097C49.372 89.2097 47.4077 91.174 47.4077 93.5971C47.4077 96.0202 49.372 97.9844 51.7951 97.9844Z" fill="white"/>
<path d="M34.1242 85.4317C36.5473 85.4317 38.5115 83.4674 38.5115 81.0443C38.5115 78.6213 36.5473 76.657 34.1242 76.657C31.7011 76.657 29.7368 78.6213 29.7368 81.0443C29.7368 83.4674 31.7011 85.4317 34.1242 85.4317Z" fill="white"/>
<path d="M68.126 57.1576C72.2318 57.1576 75.5602 53.8292 75.5602 49.7235C75.5602 45.6177 72.2318 42.2893 68.126 42.2893C64.0203 42.2893 60.6919 45.6177 60.6919 49.7235C60.6919 53.8292 64.0203 57.1576 68.126 57.1576Z" fill="white"/>
<path d="M60.0826 71.2946C64.1883 71.2946 67.5167 67.9662 67.5167 63.8604C67.5167 59.7546 64.1883 56.4263 60.0826 56.4263C55.9768 56.4263 52.6484 59.7546 52.6484 63.8604C52.6484 67.9662 55.9768 71.2946 60.0826 71.2946Z" fill="white"/>
<path d="M43.7515 71.2946C47.8573 71.2946 51.1857 67.9662 51.1857 63.8604C51.1857 59.7546 47.8573 56.4263 43.7515 56.4263C39.6458 56.4263 36.3174 59.7546 36.3174 63.8604C36.3174 67.9662 39.6458 71.2946 43.7515 71.2946Z" fill="white"/>
<path d="M35.5865 57.1576C39.6923 57.1576 43.0206 53.8292 43.0206 49.7235C43.0206 45.6177 39.6923 42.2893 35.5865 42.2893C31.4807 42.2893 28.1523 45.6177 28.1523 49.7235C28.1523 53.8292 31.4807 57.1576 35.5865 57.1576Z" fill="white"/>
</svg>
