<svg width="2000" height="911" viewBox="0 0 2000 911" fill="none" xmlns="http://www.w3.org/2000/svg">
<g opacity="0.33">
<mask id="mask0_2683_11" style="mask-type:alpha" maskUnits="userSpaceOnUse" x="-1" y="0" width="2002" height="912">
<path d="M45.4545 0.960938H0V46.4609M45.4545 0.960938V46.4609M45.4545 0.960938H90.9091M45.4545 46.4609H0M45.4545 46.4609V91.9609M45.4545 46.4609H90.9091M0 46.4609V91.9609M45.4545 91.9609H0M45.4545 91.9609V137.461M45.4545 91.9609H90.9091M0 91.9609V137.461M45.4545 137.461H0M45.4545 137.461V182.961M45.4545 137.461H90.9091M0 137.461V182.961M45.4545 182.961H0M45.4545 182.961V228.461M45.4545 182.961H90.9091M0 182.961V228.461M45.4545 228.461H0M45.4545 228.461V273.961M45.4545 228.461H90.9091M0 228.461V273.961M45.4545 273.961H0M45.4545 273.961V319.461M45.4545 273.961H90.9091M0 273.961V319.461M45.4545 319.461H0M45.4545 319.461V364.961M45.4545 319.461H90.9091M0 319.461V364.961M45.4545 364.961H0M45.4545 364.961V410.461M45.4545 364.961H90.9091M0 364.961V410.461M45.4545 410.461H0M45.4545 410.461V455.961M45.4545 410.461H90.9091M0 410.461V455.961M45.4545 455.961H0M45.4545 455.961V501.461M45.4545 455.961H90.9091M0 455.961V501.461M45.4545 501.461H0M45.4545 501.461V546.961M45.4545 501.461H90.9091M0 501.461V546.961M45.4545 546.961H0M45.4545 546.961V592.461M45.4545 546.961H90.9091M0 546.961V592.461M45.4545 592.461H0M45.4545 592.461V637.961M45.4545 592.461H90.9091M0 592.461V637.961M45.4545 637.961H0M45.4545 637.961V683.461M45.4545 637.961H90.9091M0 637.961V683.461M45.4545 683.461H0M45.4545 683.461V728.961M45.4545 683.461H90.9091M0 683.461V728.961M45.4545 728.961H0M45.4545 728.961V774.461M45.4545 728.961H90.9091M0 728.961V774.461M45.4545 774.461H0M45.4545 774.461V819.961M45.4545 774.461H90.9091M0 774.461V819.961M45.4545 819.961H0M45.4545 819.961V865.461M45.4545 819.961H90.9091M0 819.961V865.461M45.4545 865.461H0M45.4545 865.461V910.961M45.4545 865.461H90.9091M0 865.461V910.961H45.4545M45.4545 910.961H90.9091M90.9091 0.960938V46.4609M90.9091 0.960938H136.364M90.9091 46.4609V91.9609M90.9091 46.4609H136.364M90.9091 91.9609V137.461M90.9091 91.9609H136.364M90.9091 137.461V182.961M90.9091 137.461H136.364M90.9091 182.961V228.461M90.9091 182.961H136.364M90.9091 228.461V273.961M90.9091 228.461H136.364M90.9091 273.961V319.461M90.9091 273.961H136.364M90.9091 319.461V364.961M90.9091 319.461H136.364M90.9091 364.961V410.461M90.9091 364.961H136.364M90.9091 410.461V455.961M90.9091 410.461H136.364M90.9091 455.961V501.461M90.9091 455.961H136.364M90.9091 501.461V546.961M90.9091 501.461H136.364M90.9091 546.961V592.461M90.9091 546.961H136.364M90.9091 592.461V637.961M90.9091 592.461H136.364M90.9091 637.961V683.461M90.9091 637.961H136.364M90.9091 683.461V728.961M90.9091 683.461H136.364M90.9091 728.961V774.461M90.9091 728.961H136.364M90.9091 774.461V819.961M90.9091 774.461H136.364M90.9091 819.961V865.461M90.9091 819.961H136.364M90.9091 865.461V910.961M90.9091 865.461H136.364M90.9091 910.961H136.364M136.364 0.960938V46.4609M136.364 0.960938H181.818M136.364 46.4609V91.9609M136.364 46.4609H181.818M136.364 91.9609V137.461M136.364 91.9609H181.818M136.364 137.461V182.961M136.364 137.461H181.818M136.364 182.961V228.461M136.364 182.961H181.818M136.364 228.461V273.961M136.364 228.461H181.818M136.364 273.961V319.461M136.364 273.961H181.818M136.364 319.461V364.961M136.364 319.461H181.818M136.364 364.961V410.461M136.364 364.961H181.818M136.364 410.461V455.961M136.364 410.461H181.818M136.364 455.961V501.461M136.364 455.961H181.818M136.364 501.461V546.961M136.364 501.461H181.818M136.364 546.961V592.461M136.364 546.961H181.818M136.364 592.461V637.961M136.364 592.461H181.818M136.364 637.961V683.461M136.364 637.961H181.818M136.364 683.461V728.961M136.364 683.461H181.818M136.364 728.961V774.461M136.364 728.961H181.818M136.364 774.461V819.961M136.364 774.461H181.818M136.364 819.961V865.461M136.364 819.961H181.818M136.364 865.461V910.961M136.364 865.461H181.818M136.364 910.961H181.818M181.818 0.960938V46.4609M181.818 0.960938H227.273M181.818 46.4609V91.9609M181.818 46.4609H227.273M181.818 91.9609V137.461M181.818 91.9609H227.273M181.818 137.461V182.961M181.818 137.461H227.273M181.818 182.961V228.461M181.818 182.961H227.273M181.818 228.461V273.961M181.818 228.461H227.273M181.818 273.961V319.461M181.818 273.961H227.273M181.818 319.461V364.961M181.818 319.461H227.273M181.818 364.961V410.461M181.818 364.961H227.273M181.818 410.461V455.961M181.818 410.461H227.273M181.818 455.961V501.461M181.818 455.961H227.273M181.818 501.461V546.961M181.818 501.461H227.273M181.818 546.961V592.461M181.818 546.961H227.273M181.818 592.461V637.961M181.818 592.461H227.273M181.818 637.961V683.461M181.818 637.961H227.273M181.818 683.461V728.961M181.818 683.461H227.273M181.818 728.961V774.461M181.818 728.961H227.273M181.818 774.461V819.961M181.818 774.461H227.273M181.818 819.961V865.461M181.818 819.961H227.273M181.818 865.461V910.961M181.818 865.461H227.273M181.818 910.961H227.273M227.273 0.960938V46.4609M227.273 0.960938H272.727M227.273 46.4609V91.9609M227.273 46.4609H272.727M227.273 91.9609V137.461M227.273 91.9609H272.727M227.273 137.461V182.961M227.273 137.461H272.727M227.273 182.961V228.461M227.273 182.961H272.727M227.273 228.461V273.961M227.273 228.461H272.727M227.273 273.961V319.461M227.273 273.961H272.727M227.273 319.461V364.961M227.273 319.461H272.727M227.273 364.961V410.461M227.273 364.961H272.727M227.273 410.461V455.961M227.273 410.461H272.727M227.273 455.961V501.461M227.273 455.961H272.727M227.273 501.461V546.961M227.273 501.461H272.727M227.273 546.961V592.461M227.273 546.961H272.727M227.273 592.461V637.961M227.273 592.461H272.727M227.273 637.961V683.461M227.273 637.961H272.727M227.273 683.461V728.961M227.273 683.461H272.727M227.273 728.961V774.461M227.273 728.961H272.727M227.273 774.461V819.961M227.273 774.461H272.727M227.273 819.961V865.461M227.273 819.961H272.727M227.273 865.461V910.961M227.273 865.461H272.727M227.273 910.961H272.727M272.727 0.960938V46.4609M272.727 0.960938H318.182M272.727 46.4609V91.9609M272.727 46.4609H318.182M272.727 91.9609V137.461M272.727 91.9609H318.182M272.727 137.461V182.961M272.727 137.461H318.182M272.727 182.961V228.461M272.727 182.961H318.182M272.727 228.461V273.961M272.727 228.461H318.182M272.727 273.961V319.461M272.727 273.961H318.182M272.727 319.461V364.961M272.727 319.461H318.182M272.727 364.961V410.461M272.727 364.961H318.182M272.727 410.461V455.961M272.727 410.461H318.182M272.727 455.961V501.461M272.727 455.961H318.182M272.727 501.461V546.961M272.727 501.461H318.182M272.727 546.961V592.461M272.727 546.961H318.182M272.727 592.461V637.961M272.727 592.461H318.182M272.727 637.961V683.461M272.727 637.961H318.182M272.727 683.461V728.961M272.727 683.461H318.182M272.727 728.961V774.461M272.727 728.961H318.182M272.727 774.461V819.961M272.727 774.461H318.182M272.727 819.961V865.461M272.727 819.961H318.182M272.727 865.461V910.961M272.727 865.461H318.182M272.727 910.961H318.182M318.182 0.960938V46.4609M318.182 0.960938H363.636M318.182 46.4609V91.9609M318.182 46.4609H363.636M318.182 91.9609V137.461M318.182 91.9609H363.636M318.182 137.461V182.961M318.182 137.461H363.636M318.182 182.961V228.461M318.182 182.961H363.636M318.182 228.461V273.961M318.182 228.461H363.636M318.182 273.961V319.461M318.182 273.961H363.636M318.182 319.461H363.636M318.182 319.461V364.961M318.182 364.961V410.461M318.182 364.961H363.636M318.182 410.461V455.961M318.182 410.461H363.636M318.182 455.961V501.461M318.182 455.961H363.636M318.182 501.461V546.961M318.182 501.461H363.636M318.182 546.961V592.461M318.182 546.961H363.636M318.182 592.461V637.961M318.182 592.461H363.636M318.182 637.961V683.461M318.182 637.961H363.636M318.182 683.461V728.961M318.182 683.461H363.636M318.182 728.961V774.461M318.182 728.961H363.636M318.182 774.461V819.961M318.182 774.461H363.636M318.182 819.961V865.461M318.182 819.961H363.636M318.182 865.461V910.961M318.182 865.461H363.636M318.182 910.961H363.636M363.636 0.960938V46.4609M363.636 0.960938H409.091M363.636 46.4609V91.9609M363.636 46.4609H409.091M363.636 91.9609V137.461M363.636 91.9609H409.091M363.636 137.461V182.961M363.636 137.461H409.091M363.636 182.961V228.461M363.636 182.961H409.091M363.636 228.461V273.961M363.636 228.461H409.091M363.636 273.961V319.461M363.636 273.961H409.091M363.636 319.461V364.961M363.636 319.461H409.091M363.636 364.961V410.461M363.636 364.961H409.091M363.636 410.461V455.961M363.636 410.461H409.091M363.636 455.961V501.461M363.636 455.961H409.091M363.636 501.461V546.961M363.636 501.461H409.091M363.636 546.961V592.461M363.636 546.961H409.091M363.636 592.461V637.961M363.636 592.461C363.636 592.461 391.34 592.461 409.091 592.461M363.636 637.961V683.461M363.636 637.961H409.091M363.636 683.461V728.961M363.636 683.461H409.091M363.636 728.961V774.461M363.636 728.961H409.091M363.636 774.461V819.961M363.636 774.461H409.091M363.636 819.961V865.461M363.636 819.961H409.091M363.636 865.461V910.961M363.636 865.461H409.091M363.636 910.961H409.091M409.091 0.960938V46.4609M409.091 0.960938H454.545M409.091 46.4609V91.9609M409.091 46.4609H454.545M409.091 91.9609V137.461M409.091 91.9609H454.545M409.091 137.461V182.961M409.091 137.461H454.545M409.091 182.961V228.461M409.091 182.961H454.545M409.091 228.461V273.961M409.091 228.461H454.545M409.091 273.961V319.461M409.091 273.961H454.545M409.091 319.461V364.961M409.091 319.461H454.545M409.091 364.961V410.461M409.091 364.961H454.545M409.091 410.461V455.961M409.091 410.461H454.545M409.091 455.961V501.461M409.091 455.961H454.545M409.091 501.461V546.961M409.091 501.461H454.545M409.091 546.961C409.091 546.961 409.091 574.692 409.091 592.461M409.091 546.961H454.545M409.091 592.461C409.091 610.23 409.091 637.961 409.091 637.961M409.091 592.461C426.842 592.461 454.545 592.461 454.545 592.461M409.091 637.961V683.461M409.091 637.961H454.545M409.091 683.461V728.961M409.091 683.461H454.545M409.091 728.961V774.461M409.091 728.961H454.545M409.091 774.461V819.961M409.091 774.461H454.545M409.091 819.961V865.461M409.091 819.961H454.545M409.091 865.461V910.961M409.091 865.461H454.545M409.091 910.961H454.545M454.545 0.960938V46.4609M454.545 0.960938H500M454.545 46.4609V91.9609M454.545 46.4609H500M454.545 91.9609V137.461M454.545 91.9609H500M454.545 137.461V182.961M454.545 137.461H500M454.545 182.961V228.461M454.545 182.961H500M454.545 228.461V273.961M454.545 228.461H500M454.545 273.961V319.461M454.545 273.961H500M454.545 319.461V364.961M454.545 319.461H500M454.545 364.961V410.461M454.545 364.961H500M454.545 410.461V455.961M454.545 410.461H500M454.545 455.961V501.461M454.545 455.961H500M454.545 501.461V546.961M454.545 501.461H500M454.545 546.961V592.461M454.545 546.961H500M454.545 592.461V637.961M454.545 592.461H500M454.545 637.961V683.461M454.545 637.961H500M454.545 683.461V728.961M454.545 683.461H500M454.545 728.961V774.461M454.545 728.961H500M454.545 774.461V819.961M454.545 774.461H500M454.545 819.961V865.461M454.545 819.961H500M454.545 865.461V910.961M454.545 865.461H500M454.545 910.961H500M500 0.960938V46.4609M500 0.960938H545.455M500 46.4609V91.9609M500 46.4609H545.455M500 91.9609V137.461M500 91.9609H545.455M500 137.461V182.961M500 137.461H545.455M500 182.961V228.461M500 182.961H1500M500 228.461V273.961M500 228.461H1500M500 273.961V319.461M500 273.961H545.455M500 319.461V364.961M500 319.461H545.455M500 364.961V410.461M500 364.961H545.455M500 410.461V455.961M500 410.461H545.455M500 455.961V501.461M500 455.961H545.455M500 501.461V546.961M500 501.461H545.455M500 546.961V592.461M500 546.961H545.455M500 592.461V637.961M500 592.461H545.455M500 637.961V683.461M500 637.961H545.455M500 683.461V728.961M500 683.461H545.455M500 728.961V774.461M500 728.961H545.455M500 774.461V819.961M500 774.461H545.455M500 819.961V865.461M500 819.961H545.455M500 865.461V910.961M500 865.461H545.455M500 910.961H545.455M545.455 0.960938V46.4609M545.455 0.960938H590.909M545.455 46.4609V91.9609M545.455 46.4609H590.909M545.455 91.9609V137.461M545.455 91.9609H590.909M545.455 137.461H590.909M545.455 137.461V273.961M545.455 273.961V319.461M545.455 273.961H590.909M545.455 319.461V364.961M545.455 319.461H590.909M545.455 364.961V410.461M545.455 364.961H590.909M545.455 410.461V455.961M545.455 410.461H590.909M545.455 455.961V501.461M545.455 455.961H590.909M545.455 501.461V546.961M545.455 501.461H590.909M545.455 546.961V592.461M545.455 546.961H590.909M545.455 592.461V637.961M545.455 592.461H590.909M545.455 637.961V683.461M545.455 637.961H590.909M545.455 683.461V728.961M545.455 683.461H590.909M545.455 728.961V774.461M545.455 728.961H590.909M545.455 774.461V819.961M545.455 774.461H590.909M545.455 819.961V865.461M545.455 819.961H590.909M545.455 865.461V910.961M545.455 865.461H590.909M545.455 910.961H590.909M590.909 0.960938V46.4609M590.909 0.960938H636.364M590.909 46.4609V91.9609M590.909 46.4609H636.364M590.909 91.9609V137.461M590.909 91.9609H636.364M590.909 137.461H636.364M590.909 137.461V273.961M590.909 273.961V319.461M590.909 273.961H636.364M590.909 319.461V364.961M590.909 319.461H636.364M590.909 364.961V410.461M590.909 364.961H636.364M590.909 410.461V455.961M590.909 410.461H636.364M590.909 455.961V501.461M590.909 455.961H636.364M590.909 501.461V546.961M590.909 501.461H636.364M590.909 546.961V592.461M590.909 546.961H636.364M590.909 592.461V637.961M590.909 592.461H636.364M590.909 637.961V683.461M590.909 637.961H636.364M590.909 683.461V728.961M590.909 683.461H636.364M590.909 728.961V774.461M590.909 728.961H636.364M590.909 774.461V819.961M590.909 774.461H636.364M590.909 819.961V865.461M590.909 819.961H636.364M590.909 865.461V910.961M590.909 865.461H636.364M590.909 910.961H636.364M636.364 0.960938V46.4609M636.364 0.960938H681.818M636.364 46.4609V91.9609M636.364 46.4609H681.818M636.364 91.9609V137.461M636.364 91.9609H681.818M636.364 137.461H681.818M636.364 137.461V273.961M636.364 273.961V319.461M636.364 273.961H1363.64M636.364 319.461V364.961M636.364 319.461H1363.64M636.364 364.961V410.461M636.364 364.961H681.818M636.364 410.461V455.961M636.364 410.461H681.818M636.364 455.961V501.461M636.364 455.961H681.818M636.364 501.461V546.961M636.364 501.461H681.818M636.364 546.961V592.461M636.364 546.961H681.818M636.364 592.461V637.961M636.364 592.461H681.818M636.364 637.961V683.461M636.364 637.961H681.818M636.364 683.461V728.961M636.364 683.461H681.818M636.364 728.961V774.461M636.364 728.961H681.818M636.364 774.461V819.961M636.364 774.461H681.818M636.364 819.961V865.461M636.364 819.961H681.818M636.364 865.461V910.961M636.364 865.461H681.818M636.364 910.961H681.818M681.818 0.960938V46.4609M681.818 0.960938H727.273M681.818 46.4609V91.9609M681.818 46.4609H727.273M681.818 91.9609V137.461M681.818 91.9609H727.273M681.818 137.461H727.273M681.818 137.461V364.961M681.818 364.961V410.461M681.818 364.961H727.273M681.818 410.461V455.961M681.818 410.461H727.273M681.818 455.961V501.461M681.818 455.961H727.273M681.818 501.461V546.961M681.818 501.461H727.273M681.818 546.961V592.461M681.818 546.961H727.273M681.818 592.461V637.961M681.818 592.461H727.273M681.818 637.961V683.461M681.818 637.961H727.273M681.818 683.461V728.961M681.818 683.461H727.273M681.818 728.961V774.461M681.818 728.961H727.273M681.818 774.461V819.961M681.818 774.461H727.273M681.818 819.961V865.461M681.818 819.961H727.273M681.818 865.461V910.961M681.818 865.461H727.273M681.818 910.961H727.273M727.273 0.960938V46.4609M727.273 0.960938H772.727M727.273 46.4609V91.9609M727.273 46.4609H772.727M727.273 91.9609V137.461M727.273 91.9609H772.727M727.273 137.461H772.727M727.273 137.461V364.961M727.273 364.961V410.461M727.273 364.961H772.727M727.273 410.461V455.961M727.273 410.461H772.727M727.273 455.961V501.461M727.273 455.961H772.727M727.273 501.461V546.961M727.273 501.461H772.727M727.273 546.961V592.461M727.273 546.961H772.727M727.273 592.461V637.961M727.273 592.461H772.727M727.273 637.961V683.461M727.273 637.961H772.727M727.273 683.461V728.961M727.273 683.461H772.727M727.273 728.961V774.461M727.273 728.961H772.727M727.273 774.461V819.961M727.273 774.461H772.727M727.273 819.961V865.461M727.273 819.961H772.727M727.273 865.461V910.961M727.273 865.461H772.727M727.273 910.961H772.727M772.727 0.960938V46.4609M772.727 0.960938H818.182M772.727 46.4609V91.9609M772.727 46.4609H818.182M772.727 91.9609V137.461M772.727 91.9609H818.182M772.727 137.461H818.182M772.727 137.461V364.961M772.727 364.961V410.461M772.727 364.961H818.182M772.727 410.461V455.961M772.727 410.461H818.182M772.727 455.961V501.461M772.727 455.961H818.182M772.727 501.461V546.961M772.727 501.461H818.182M772.727 546.961V592.461M772.727 546.961H818.182M772.727 592.461V637.961M772.727 592.461H818.182M772.727 637.961V683.461M772.727 637.961H818.182M772.727 683.461V728.961M772.727 683.461H818.182M772.727 728.961V774.461M772.727 728.961H818.182M772.727 774.461V819.961M772.727 774.461H818.182M772.727 819.961V865.461M772.727 819.961H818.182M772.727 865.461V910.961M772.727 865.461H818.182M772.727 910.961H818.182M818.182 0.960938V46.4609M818.182 0.960938H863.636M818.182 46.4609V91.9609M818.182 46.4609H863.636M818.182 91.9609V137.461M818.182 91.9609H863.636M818.182 137.461H863.636M818.182 137.461V364.961M818.182 364.961V410.461M818.182 364.961H863.636M818.182 410.461V455.961M818.182 410.461H863.636M818.182 455.961V501.461M818.182 455.961H863.636M818.182 501.461V546.961M818.182 501.461H863.636M818.182 546.961V592.461M818.182 546.961H863.636M818.182 592.461V637.961M818.182 592.461H863.636M818.182 637.961V683.461M818.182 637.961H863.636M818.182 683.461V728.961M818.182 683.461H863.636M818.182 728.961V774.461M818.182 728.961H863.636M818.182 774.461V819.961M818.182 774.461H863.636M818.182 819.961V865.461M818.182 819.961H863.636M818.182 865.461V910.961M818.182 865.461H863.636M818.182 910.961H863.636M863.636 0.960938V46.4609M863.636 0.960938H909.091M863.636 46.4609V91.9609M863.636 46.4609H909.091M863.636 91.9609V137.461M863.636 91.9609H909.091M863.636 137.461H909.091M863.636 137.461V364.961M863.636 364.961V410.461M863.636 364.961H909.091M863.636 410.461V455.961M863.636 410.461H909.091M863.636 455.961V501.461M863.636 455.961H909.091M863.636 501.461V546.961M863.636 501.461H909.091M863.636 546.961V592.461M863.636 546.961H909.091M863.636 592.461V637.961M863.636 592.461H909.091M863.636 637.961V683.461M863.636 637.961H909.091M863.636 683.461V728.961M863.636 683.461H909.091M863.636 728.961V774.461M863.636 728.961H909.091M863.636 774.461V819.961M863.636 774.461H909.091M863.636 819.961V865.461M863.636 819.961H909.091M863.636 865.461V910.961M863.636 865.461H909.091M863.636 910.961H909.091M909.091 0.960938V46.4609M909.091 0.960938H954.545M909.091 46.4609V91.9609M909.091 46.4609H954.545M909.091 91.9609V137.461M909.091 91.9609H954.545M909.091 137.461H954.545M909.091 137.461V364.961M909.091 364.961V410.461M909.091 364.961H954.545M909.091 410.461V455.961M909.091 410.461H954.545M909.091 455.961V501.461M909.091 455.961H954.545M909.091 501.461V546.961M909.091 501.461H954.545M909.091 546.961V592.461M909.091 546.961H954.545M909.091 592.461V637.961M909.091 592.461H954.545M909.091 637.961V683.461M909.091 637.961H954.545M909.091 683.461V728.961M909.091 683.461H954.545M909.091 728.961V774.461M909.091 728.961H954.545M909.091 774.461V819.961M909.091 774.461H954.545M909.091 819.961V865.461M909.091 819.961H954.545M909.091 865.461V910.961M909.091 865.461H954.545M909.091 910.961H954.545M954.545 0.960938V46.4609M954.545 0.960938H1000M954.545 46.4609H1000M954.545 46.4609V91.9609M954.545 91.9609V137.461M954.545 91.9609H1000M954.545 137.461H1000M954.545 137.461V364.961M954.545 364.961V410.461M954.545 364.961H1000M954.545 410.461V455.961M954.545 410.461H1000M954.545 455.961V501.461M954.545 455.961H1000M954.545 501.461V546.961M954.545 501.461H1000M954.545 546.961V592.461M954.545 546.961H1000M954.545 592.461V637.961M954.545 592.461H1000M954.545 637.961V683.461M954.545 637.961H1000M954.545 683.461V728.961M954.545 683.461H1000M954.545 728.961V774.461M954.545 728.961H1000M954.545 774.461V819.961M954.545 774.461H1000M954.545 819.961V865.461M954.545 819.961H1000M954.545 865.461V910.961M954.545 865.461H1000M954.545 910.961H1000M1000 0.960938V46.4609M1000 0.960938H1045.45M1000 46.4609H1045.45M1000 46.4609V91.9609M1000 91.9609V137.461M1000 91.9609H1045.45M1000 137.461H1045.45M1000 137.461V364.961M1000 364.961V410.461M1000 364.961H1045.45M1000 410.461V455.961M1000 410.461H1045.45M1000 455.961V501.461M1000 455.961H1045.45M1000 501.461V546.961M1000 501.461H1045.45M1000 546.961V592.461M1000 546.961H1045.45M1000 592.461V637.961M1000 592.461H1045.45M1000 637.961V683.461M1000 637.961H1045.45M1000 683.461V728.961M1000 683.461H1045.45M1000 728.961V774.461M1000 728.961H1045.45M1000 774.461V819.961M1000 774.461H1045.45M1000 819.961V865.461M1000 819.961H1045.45M1000 865.461V910.961M1000 865.461H1045.45M1000 910.961H1045.45M1045.45 0.960938V46.4609M1045.45 0.960938H1090.91M1045.45 46.4609H1090.91M1045.45 46.4609V91.9609M1045.45 91.9609V137.461M1045.45 91.9609H1090.91M1045.45 137.461H1090.91M1045.45 137.461V364.961M1045.45 364.961V410.461M1045.45 364.961H1090.91M1045.45 410.461V455.961M1045.45 410.461H1090.91M1045.45 455.961V501.461M1045.45 455.961H1090.91M1045.45 501.461V546.961M1045.45 501.461H1090.91M1045.45 546.961V592.461M1045.45 546.961H1090.91M1045.45 592.461V637.961M1045.45 592.461H1090.91M1045.45 637.961V683.461M1045.45 637.961H1090.91M1045.45 683.461V728.961M1045.45 683.461H1090.91M1045.45 728.961V774.461M1045.45 728.961H1090.91M1045.45 774.461V819.961M1045.45 774.461H1090.91M1045.45 819.961V865.461M1045.45 819.961H1090.91M1045.45 865.461V910.961M1045.45 865.461H1090.91M1045.45 910.961H1090.91M1090.91 0.960938V46.4609M1090.91 0.960938H1136.36M1090.91 46.4609H1136.36M1090.91 46.4609V91.9609M1090.91 91.9609V137.461M1090.91 91.9609H1136.36M1090.91 137.461H1136.36M1090.91 137.461V364.961M1090.91 364.961V410.461M1090.91 364.961H1136.36M1090.91 410.461V455.961M1090.91 410.461H1136.36M1090.91 455.961V501.461M1090.91 455.961H1136.36M1090.91 501.461V546.961M1090.91 501.461H1136.36M1090.91 546.961V592.461M1090.91 546.961H1136.36M1090.91 592.461V637.961M1090.91 592.461H1136.36M1090.91 637.961V683.461M1090.91 637.961H1136.36M1090.91 683.461V728.961M1090.91 683.461H1136.36M1090.91 728.961V774.461M1090.91 728.961H1136.36M1090.91 774.461V819.961M1090.91 774.461H1136.36M1090.91 819.961V865.461M1090.91 819.961H1136.36M1090.91 865.461V910.961M1090.91 865.461H1136.36M1090.91 910.961H1136.36M1136.36 0.960938V46.4609M1136.36 0.960938H1181.82M1136.36 46.4609V91.9609M1136.36 46.4609H1181.82M1136.36 91.9609V137.461M1136.36 91.9609H1181.82M1136.36 137.461H1181.82M1136.36 137.461V364.961M1136.36 364.961V410.461M1136.36 364.961H1181.82M1136.36 410.461V455.961M1136.36 410.461H1181.82M1136.36 455.961V501.461M1136.36 455.961H1181.82M1136.36 501.461V546.961M1136.36 501.461H1181.82M1136.36 546.961V592.461M1136.36 546.961H1181.82M1136.36 592.461V637.961M1136.36 592.461H1181.82M1136.36 637.961V683.461M1136.36 637.961H1181.82M1136.36 683.461V728.961M1136.36 683.461H1181.82M1136.36 728.961V774.461M1136.36 728.961H1181.82M1136.36 774.461V819.961M1136.36 774.461H1181.82M1136.36 819.961V865.461M1136.36 819.961H1181.82M1136.36 865.461V910.961M1136.36 865.461H1181.82M1136.36 910.961H1181.82M1181.82 0.960938V46.4609M1181.82 0.960938H1227.27M1181.82 46.4609V91.9609M1181.82 46.4609H1227.27M1181.82 91.9609V137.461M1181.82 91.9609H1227.27M1181.82 137.461H1227.27M1181.82 137.461V364.961M1181.82 364.961V410.461M1181.82 364.961H1227.27M1181.82 410.461V455.961M1181.82 410.461H1227.27M1181.82 455.961V501.461M1181.82 455.961H1227.27M1181.82 501.461V546.961M1181.82 501.461H1227.27M1181.82 546.961V592.461M1181.82 546.961H1227.27M1181.82 592.461V637.961M1181.82 592.461H1227.27M1181.82 637.961V683.461M1181.82 637.961H1227.27M1181.82 683.461V728.961M1181.82 683.461H1227.27M1181.82 728.961V774.461M1181.82 728.961H1227.27M1181.82 774.461V819.961M1181.82 774.461H1227.27M1181.82 819.961V865.461M1181.82 819.961H1227.27M1181.82 865.461V910.961M1181.82 865.461H1227.27M1181.82 910.961H1227.27M1227.27 0.960938V46.4609M1227.27 0.960938H1272.73M1227.27 46.4609V91.9609M1227.27 46.4609H1272.73M1227.27 91.9609V137.461M1227.27 91.9609H1272.73M1227.27 137.461H1272.73M1227.27 137.461V364.961M1227.27 364.961V410.461M1227.27 364.961H1272.73M1227.27 410.461V455.961M1227.27 410.461H1272.73M1227.27 455.961V501.461M1227.27 455.961H1272.73M1227.27 501.461V546.961M1227.27 501.461H1272.73M1227.27 546.961V592.461M1227.27 546.961H1272.73M1227.27 592.461V637.961M1227.27 592.461H1272.73M1227.27 637.961V683.461M1227.27 637.961H1272.73M1227.27 683.461V728.961M1227.27 683.461H1272.73M1227.27 728.961V774.461M1227.27 728.961H1272.73M1227.27 774.461V819.961M1227.27 774.461H1272.73M1227.27 819.961V865.461M1227.27 819.961H1272.73M1227.27 865.461V910.961M1227.27 865.461H1272.73M1227.27 910.961H1272.73M1272.73 0.960938V46.4609M1272.73 0.960938H1318.18M1272.73 46.4609V91.9609M1272.73 46.4609H1318.18M1272.73 91.9609V137.461M1272.73 91.9609H1318.18M1272.73 137.461H1318.18M1272.73 137.461V364.961M1272.73 364.961V410.461M1272.73 364.961H1318.18M1272.73 410.461V455.961M1272.73 410.461H1318.18M1272.73 455.961V501.461M1272.73 455.961H1318.18M1272.73 501.461V546.961M1272.73 501.461H1318.18M1272.73 546.961V592.461M1272.73 546.961H1318.18M1272.73 592.461V637.961M1272.73 592.461H1318.18M1272.73 637.961V683.461M1272.73 637.961H1318.18M1272.73 683.461V728.961M1272.73 683.461H1318.18M1272.73 728.961V774.461M1272.73 728.961H1318.18M1272.73 774.461V819.961M1272.73 774.461H1318.18M1272.73 819.961V865.461M1272.73 819.961H1318.18M1272.73 865.461V910.961M1272.73 865.461H1318.18M1272.73 910.961H1318.18M1318.18 0.960938V46.4609M1318.18 0.960938H1363.64M1318.18 46.4609V91.9609M1318.18 46.4609H1363.64M1318.18 91.9609V137.461M1318.18 91.9609H1363.64M1318.18 137.461H1363.64M1318.18 137.461V364.961M1318.18 364.961V410.461M1318.18 364.961H1363.64M1318.18 410.461V455.961M1318.18 410.461H1363.64M1318.18 455.961V501.461M1318.18 455.961H1363.64M1318.18 501.461V546.961M1318.18 501.461H1363.64M1318.18 546.961V592.461M1318.18 546.961H1363.64M1318.18 592.461V637.961M1318.18 592.461H1363.64M1318.18 637.961V683.461M1318.18 637.961H1363.64M1318.18 683.461V728.961M1318.18 683.461H1363.64M1318.18 728.961V774.461M1318.18 728.961H1363.64M1318.18 774.461V819.961M1318.18 774.461H1363.64M1318.18 819.961V865.461M1318.18 819.961H1363.64M1318.18 865.461V910.961M1318.18 865.461H1363.64M1318.18 910.961H1363.64M1363.64 0.960938V46.4609M1363.64 0.960938H1409.09M1363.64 46.4609V91.9609M1363.64 46.4609H1409.09M1363.64 91.9609V137.461M1363.64 91.9609H1409.09M1363.64 137.461H1409.09M1363.64 137.461V273.961M1363.64 273.961V319.461M1363.64 273.961H1409.09M1363.64 319.461V364.961M1363.64 319.461H1409.09M1363.64 364.961V410.461M1363.64 364.961H1409.09M1363.64 410.461V455.961M1363.64 410.461H1409.09M1363.64 455.961V501.461M1363.64 455.961H1409.09M1363.64 501.461V546.961M1363.64 501.461H1409.09M1363.64 546.961V592.461M1363.64 546.961H1409.09M1363.64 592.461V637.961M1363.64 592.461H1409.09M1363.64 637.961V683.461M1363.64 637.961H1409.09M1363.64 683.461V728.961M1363.64 683.461H1409.09M1363.64 728.961V774.461M1363.64 728.961H1409.09M1363.64 774.461V819.961M1363.64 774.461H1409.09M1363.64 819.961V865.461M1363.64 819.961H1409.09M1363.64 865.461V910.961M1363.64 865.461H1409.09M1363.64 910.961H1409.09M1409.09 0.960938V46.4609M1409.09 0.960938H1454.55M1409.09 46.4609V91.9609M1409.09 46.4609H1454.55M1409.09 91.9609V137.461M1409.09 91.9609H1454.55M1409.09 137.461H1454.55M1409.09 137.461V273.961M1409.09 273.961V319.461M1409.09 273.961H1454.55M1409.09 319.461V364.961M1409.09 319.461H1454.55M1409.09 364.961V410.461M1409.09 364.961H1454.55M1409.09 410.461V455.961M1409.09 410.461H1454.55M1409.09 455.961V501.461M1409.09 455.961H1454.55M1409.09 501.461V546.961M1409.09 501.461H1454.55M1409.09 546.961V592.461M1409.09 546.961H1454.55M1409.09 592.461V637.961M1409.09 592.461H1454.55M1409.09 637.961V683.461M1409.09 637.961H1454.55M1409.09 683.461V728.961M1409.09 683.461H1454.55M1409.09 728.961V774.461M1409.09 728.961H1454.55M1409.09 774.461V819.961M1409.09 774.461H1454.55M1409.09 819.961V865.461M1409.09 819.961H1454.55M1409.09 865.461V910.961M1409.09 865.461H1454.55M1409.09 910.961H1454.55M1454.55 0.960938V46.4609M1454.55 0.960938H1500M1454.55 46.4609V91.9609M1454.55 46.4609H1500M1454.55 91.9609V137.461M1454.55 91.9609H1500M1454.55 137.461H1500M1454.55 137.461V273.961M1454.55 273.961V319.461M1454.55 273.961H1500M1454.55 319.461V364.961M1454.55 319.461H1500M1454.55 364.961V410.461M1454.55 364.961H1500M1454.55 410.461V455.961M1454.55 410.461H1500M1454.55 455.961V501.461M1454.55 455.961H1500M1454.55 501.461V546.961M1454.55 501.461H1500M1454.55 546.961V592.461M1454.55 546.961H1500M1454.55 592.461V637.961M1454.55 592.461H1500M1454.55 637.961V683.461M1454.55 637.961H1500M1454.55 683.461V728.961M1454.55 683.461H1500M1454.55 728.961V774.461M1454.55 728.961H1500M1454.55 774.461V819.961M1454.55 774.461H1500M1454.55 819.961V865.461M1454.55 819.961H1500M1454.55 865.461V910.961M1454.55 865.461H1500M1454.55 910.961H1500M1500 0.960938V46.4609M1500 0.960938H1545.45M1500 46.4609V91.9609M1500 46.4609H1545.45M1500 91.9609V137.461M1500 91.9609H1545.45M1500 137.461V182.961M1500 137.461H1545.45M1500 182.961V228.461M1500 182.961H1545.45M1500 228.461V273.961M1500 228.461H1545.45M1500 273.961V319.461M1500 273.961H1545.45M1500 319.461V364.961M1500 319.461H1545.45M1500 364.961V410.461M1500 364.961H1545.45M1500 410.461V455.961M1500 410.461H1545.45M1500 455.961V501.461M1500 455.961H1545.45M1500 501.461V546.961M1500 501.461H1545.45M1500 546.961V592.461M1500 546.961H1545.45M1500 592.461V637.961M1500 592.461H1545.45M1500 637.961V683.461M1500 637.961H1545.45M1500 683.461V728.961M1500 683.461H1545.45M1500 728.961V774.461M1500 728.961H1545.45M1500 774.461V819.961M1500 774.461H1545.45M1500 819.961V865.461M1500 819.961H1545.45M1500 865.461V910.961M1500 865.461H1545.45M1500 910.961H1545.45M1545.45 0.960938V46.4609M1545.45 0.960938H1590.91M1545.45 46.4609V91.9609M1545.45 46.4609H1590.91M1545.45 91.9609V137.461M1545.45 91.9609H1590.91M1545.45 137.461V182.961M1545.45 137.461H1590.91M1545.45 182.961V228.461M1545.45 182.961H1590.91M1545.45 228.461V273.961M1545.45 228.461H1590.91M1545.45 273.961V319.461M1545.45 273.961H1590.91M1545.45 319.461V364.961M1545.45 319.461H1590.91M1545.45 364.961V410.461M1545.45 364.961H1590.91M1545.45 410.461V455.961M1545.45 410.461H1590.91M1545.45 455.961V501.461M1545.45 455.961H1590.91M1545.45 501.461V546.961M1545.45 501.461H1590.91M1545.45 546.961V592.461M1545.45 546.961H1590.91M1545.45 592.461V637.961M1545.45 592.461H1590.91M1545.45 637.961V683.461M1545.45 637.961H1590.91M1545.45 683.461V728.961M1545.45 683.461H1590.91M1545.45 728.961V774.461M1545.45 728.961H1590.91M1545.45 774.461V819.961M1545.45 774.461H1590.91M1545.45 819.961V865.461M1545.45 819.961H1590.91M1545.45 865.461V910.961M1545.45 865.461H1590.91M1545.45 910.961H1590.91M1590.91 0.960938V46.4609M1590.91 0.960938H1636.36M1590.91 46.4609V91.9609M1590.91 46.4609H1636.36M1590.91 91.9609V137.461M1590.91 91.9609H1636.36M1590.91 137.461V182.961M1590.91 137.461H1636.36M1590.91 182.961V228.461M1590.91 182.961H1636.36M1590.91 228.461V273.961M1590.91 228.461H1636.36M1590.91 273.961V319.461M1590.91 273.961H1636.36M1590.91 319.461V364.961M1590.91 319.461H1636.36M1590.91 364.961V410.461M1590.91 364.961H1636.36M1590.91 410.461V455.961M1590.91 410.461H1636.36M1590.91 455.961V501.461M1590.91 455.961H1636.36M1590.91 501.461V546.961M1590.91 501.461H1636.36M1590.91 546.961V592.461M1590.91 546.961H1636.36M1590.91 592.461V637.961M1590.91 592.461H1636.36M1590.91 637.961V683.461M1590.91 637.961H1636.36M1590.91 683.461V728.961M1590.91 683.461H1636.36M1590.91 728.961V774.461M1590.91 728.961H1636.36M1590.91 774.461V819.961M1590.91 774.461H1636.36M1590.91 819.961V865.461M1590.91 819.961H1636.36M1590.91 865.461V910.961M1590.91 865.461H1636.36M1590.91 910.961H1636.36M1636.36 0.960938V46.4609M1636.36 0.960938H1681.82M1636.36 46.4609V91.9609M1636.36 46.4609H1681.82M1636.36 91.9609V137.461M1636.36 91.9609H1681.82M1636.36 137.461V182.961M1636.36 137.461H1681.82M1636.36 182.961V228.461M1636.36 182.961H1681.82M1636.36 228.461V273.961M1636.36 228.461H1681.82M1636.36 273.961V319.461M1636.36 273.961H1681.82M1636.36 319.461V364.961M1636.36 319.461H1681.82M1636.36 364.961V410.461M1636.36 364.961H1681.82M1636.36 410.461V455.961M1636.36 410.461H1681.82M1636.36 455.961V501.461M1636.36 455.961H1681.82M1636.36 501.461V546.961M1636.36 501.461H1681.82M1636.36 546.961V592.461M1636.36 546.961H1681.82M1636.36 592.461V637.961M1636.36 592.461H1681.82M1636.36 637.961V683.461M1636.36 637.961H1681.82M1636.36 683.461V728.961M1636.36 683.461H1681.82M1636.36 728.961V774.461M1636.36 728.961H1681.82M1636.36 774.461V819.961M1636.36 774.461H1681.82M1636.36 819.961V865.461M1636.36 819.961H1681.82M1636.36 865.461V910.961M1636.36 865.461H1681.82M1636.36 910.961H1681.82M1681.82 0.960938V46.4609M1681.82 0.960938H1727.27M1681.82 46.4609V91.9609M1681.82 46.4609H1727.27M1681.82 91.9609V137.461M1681.82 91.9609H1727.27M1681.82 137.461V182.961M1681.82 137.461H1727.27M1681.82 182.961V228.461M1681.82 182.961H1727.27M1681.82 228.461V273.961M1681.82 228.461H1727.27M1681.82 273.961V319.461M1681.82 273.961H1727.27M1681.82 319.461H1727.27M1681.82 319.461V364.961M1681.82 364.961V410.461M1681.82 364.961H1727.27M1681.82 410.461V455.961M1681.82 410.461H1727.27M1681.82 455.961V501.461M1681.82 455.961H1727.27M1681.82 501.461V546.961M1681.82 501.461H1727.27M1681.82 546.961V592.461M1681.82 546.961H1727.27M1681.82 592.461V637.961M1681.82 592.461H1727.27M1681.82 637.961V683.461M1681.82 637.961H1727.27M1681.82 683.461V728.961M1681.82 683.461H1727.27M1681.82 728.961V774.461M1681.82 728.961H1727.27M1681.82 774.461V819.961M1681.82 774.461H1727.27M1681.82 819.961V865.461M1681.82 819.961H1727.27M1681.82 865.461V910.961M1681.82 865.461H1727.27M1681.82 910.961H1727.27M1727.27 0.960938V46.4609M1727.27 0.960938H1772.73M1727.27 46.4609V91.9609M1727.27 46.4609H1772.73M1727.27 91.9609V137.461M1727.27 91.9609H1772.73M1727.27 137.461V182.961M1727.27 137.461H1772.73M1727.27 182.961V228.461M1727.27 182.961H1772.73M1727.27 228.461V273.961M1727.27 228.461H1772.73M1727.27 273.961V319.461M1727.27 273.961H1772.73M1727.27 319.461V364.961M1727.27 319.461H1772.73M1727.27 364.961V410.461M1727.27 364.961H1772.73M1727.27 410.461V455.961M1727.27 410.461H1772.73M1727.27 455.961V501.461M1727.27 455.961H1772.73M1727.27 501.461V546.961M1727.27 501.461H1772.73M1727.27 546.961V592.461M1727.27 546.961H1772.73M1727.27 592.461V637.961M1727.27 592.461H1772.73M1727.27 637.961V683.461M1727.27 637.961H1772.73M1727.27 683.461V728.961M1727.27 683.461H1772.73M1727.27 728.961V774.461M1727.27 728.961H1772.73M1727.27 774.461V819.961M1727.27 774.461H1772.73M1727.27 819.961V865.461M1727.27 819.961H1772.73M1727.27 865.461V910.961M1727.27 865.461H1772.73M1727.27 910.961H1772.73M1772.73 0.960938V46.4609M1772.73 0.960938H1818.18M1772.73 46.4609V91.9609M1772.73 46.4609H1818.18M1772.73 91.9609V137.461M1772.73 91.9609H1818.18M1772.73 137.461V182.961M1772.73 137.461H1818.18M1772.73 182.961V228.461M1772.73 182.961H1818.18M1772.73 228.461V273.961M1772.73 228.461H1818.18M1772.73 273.961V319.461M1772.73 273.961H1818.18M1772.73 319.461V364.961M1772.73 319.461H1818.18M1772.73 364.961V410.461M1772.73 364.961H1818.18M1772.73 410.461V455.961M1772.73 410.461H1818.18M1772.73 455.961V501.461M1772.73 455.961H1818.18M1772.73 501.461V546.961M1772.73 501.461H1818.18M1772.73 546.961V592.461M1772.73 546.961H1818.18M1772.73 592.461V637.961M1772.73 592.461H1818.18M1772.73 637.961V683.461M1772.73 637.961H1818.18M1772.73 683.461V728.961M1772.73 683.461H1818.18M1772.73 728.961V774.461M1772.73 728.961H1818.18M1772.73 774.461V819.961M1772.73 774.461H1818.18M1772.73 819.961V865.461M1772.73 819.961H1818.18M1772.73 865.461V910.961M1772.73 865.461H1818.18M1772.73 910.961H1818.18M1818.18 0.960938V46.4609M1818.18 0.960938H1863.64M1818.18 46.4609V91.9609M1818.18 46.4609H1863.64M1818.18 91.9609V137.461M1818.18 91.9609H1863.64M1818.18 137.461V182.961M1818.18 137.461H1863.64M1818.18 182.961V228.461M1818.18 182.961H1863.64M1818.18 228.461V273.961M1818.18 228.461H1863.64M1818.18 273.961V319.461M1818.18 273.961H1863.64M1818.18 319.461V364.961M1818.18 319.461H1863.64M1818.18 364.961V410.461M1818.18 364.961H1863.64M1818.18 410.461V455.961M1818.18 410.461H1863.64M1818.18 455.961V501.461M1818.18 455.961H1863.64M1818.18 501.461V546.961M1818.18 501.461H1863.64M1818.18 546.961V592.461M1818.18 546.961H1863.64M1818.18 592.461V637.961M1818.18 592.461H1863.64M1818.18 637.961V683.461M1818.18 637.961H1863.64M1818.18 683.461V728.961M1818.18 683.461H1863.64M1818.18 728.961V774.461M1818.18 728.961H1863.64M1818.18 774.461V819.961M1818.18 774.461H1863.64M1818.18 819.961V865.461M1818.18 819.961H1863.64M1818.18 865.461V910.961M1818.18 865.461H1863.64M1818.18 910.961H1863.64M1863.64 0.960938V46.4609M1863.64 0.960938H1909.09M1863.64 46.4609V91.9609M1863.64 46.4609H1909.09M1863.64 91.9609V137.461M1863.64 91.9609H1909.09M1863.64 137.461V182.961M1863.64 137.461H1909.09M1863.64 182.961V228.461M1863.64 182.961H1909.09M1863.64 228.461V273.961M1863.64 228.461H1909.09M1863.64 273.961V319.461M1863.64 273.961H1909.09M1863.64 319.461V364.961M1863.64 319.461H1909.09M1863.64 364.961V410.461M1863.64 364.961H1909.09M1863.64 410.461V455.961M1863.64 410.461H1909.09M1863.64 455.961V501.461M1863.64 455.961H1909.09M1863.64 501.461V546.961M1863.64 501.461H1909.09M1863.64 546.961V592.461M1863.64 546.961H1909.09M1863.64 592.461V637.961M1863.64 592.461H1909.09M1863.64 637.961V683.461M1863.64 637.961H1909.09M1863.64 683.461V728.961M1863.64 683.461H1909.09M1863.64 728.961V774.461M1863.64 728.961H1909.09M1863.64 774.461V819.961M1863.64 774.461H1909.09M1863.64 819.961V865.461M1863.64 819.961H1909.09M1863.64 865.461V910.961M1863.64 865.461H1909.09M1863.64 910.961H1909.09M1909.09 0.960938V46.4609M1909.09 0.960938H1954.55M1909.09 46.4609V91.9609M1909.09 46.4609H1954.55M1909.09 91.9609V137.461M1909.09 91.9609H1954.55M1909.09 137.461V182.961M1909.09 137.461H1954.55M1909.09 182.961V228.461M1909.09 182.961H1954.55M1909.09 228.461V273.961M1909.09 228.461H1954.55M1909.09 273.961V319.461M1909.09 273.961H1954.55M1909.09 319.461V364.961M1909.09 319.461H1954.55M1909.09 364.961V410.461M1909.09 364.961H1954.55M1909.09 410.461V455.961M1909.09 410.461H1954.55M1909.09 455.961V501.461M1909.09 455.961H1954.55M1909.09 501.461V546.961M1909.09 501.461H1954.55M1909.09 546.961V592.461M1909.09 546.961H1954.55M1909.09 592.461V637.961M1909.09 592.461H1954.55M1909.09 637.961V683.461M1909.09 637.961H1954.55M1909.09 683.461V728.961M1909.09 683.461H1954.55M1909.09 728.961V774.461M1909.09 728.961H1954.55M1909.09 774.461V819.961M1909.09 774.461H1954.55M1909.09 819.961V865.461M1909.09 819.961H1954.55M1909.09 865.461V910.961M1909.09 865.461H1954.55M1909.09 910.961H1954.55M1954.55 0.960938V46.4609M1954.55 0.960938H2000V46.4609M1954.55 46.4609V91.9609M1954.55 46.4609H2000M1954.55 91.9609V137.461M1954.55 91.9609H2000M1954.55 137.461V182.961M1954.55 137.461H2000M1954.55 182.961V228.461M1954.55 182.961H2000M1954.55 228.461V273.961M1954.55 228.461H2000M1954.55 273.961V319.461M1954.55 273.961H2000M1954.55 319.461V364.961M1954.55 319.461H2000M1954.55 364.961V410.461M1954.55 364.961H2000M1954.55 410.461V455.961M1954.55 410.461H2000M1954.55 455.961V501.461M1954.55 455.961H2000M1954.55 501.461V546.961M1954.55 501.461H2000M1954.55 546.961V592.461M1954.55 546.961H2000M1954.55 592.461V637.961M1954.55 592.461H2000M1954.55 637.961V683.461M1954.55 637.961H2000M1954.55 683.461V728.961M1954.55 683.461H2000M1954.55 728.961V774.461M1954.55 728.961H2000M1954.55 774.461V819.961M1954.55 774.461H2000M1954.55 819.961V865.461M1954.55 819.961H2000M1954.55 865.461V910.961M1954.55 865.461H2000M1954.55 910.961H2000V865.461M2000 46.4609V91.9609M2000 91.9609V137.461M2000 137.461V182.961M2000 182.961V228.461M2000 228.461V273.961M2000 273.961V319.461M2000 319.461V364.961M2000 364.961V410.461M2000 410.461V455.961M2000 455.961V501.461M2000 501.461V546.961M2000 546.961V592.461M2000 592.461V637.961M2000 637.961V683.461M2000 683.461V728.961M2000 728.961V774.461M2000 774.461V819.961M2000 819.961V865.461" stroke="url(#paint0_linear_2683_11)" stroke-width="1.61"/>
</mask>
<g mask="url(#mask0_2683_11)">
<rect y="0.960938" width="2000" height="910" fill="url(#paint1_radial_2683_11)"/>
</g>
</g>
<defs>
<linearGradient id="paint0_linear_2683_11" x1="1000" y1="269.411" x2="1000" y2="1134.48" gradientUnits="userSpaceOnUse">
<stop stop-opacity="0.65"/>
<stop offset="1" stop-opacity="0"/>
</linearGradient>
<radialGradient id="paint1_radial_2683_11" cx="0" cy="0" r="1" gradientUnits="userSpaceOnUse" gradientTransform="translate(1000 455.961) rotate(90) scale(455 681.914)">
<stop stop-color="#449BF1"/>
<stop offset="1" stop-color="#000D1E"/>
</radialGradient>
</defs>
</svg>
