<svg width="371" height="264" viewBox="0 0 371 264" fill="none" xmlns="http://www.w3.org/2000/svg">
<rect x="0.981934" y="0.5" width="369.06" height="262.752" rx="6.5" fill="url(#paint0_linear_394_1195)"/>
<rect x="0.981934" y="0.5" width="369.06" height="262.752" rx="6.5" stroke="url(#paint1_linear_394_1195)" stroke-linejoin="round"/>
<circle cx="113.215" cy="98.7219" r="19.7412" fill="url(#paint2_linear_394_1195)"/>
<circle cx="113.215" cy="98.7219" r="19.4912" stroke="url(#paint3_linear_394_1195)" stroke-opacity="0.16" stroke-width="0.5"/>
<path d="M119.794 98.7219L109.926 93.0242V104.42L119.794 98.7219Z" fill="white" fill-opacity="0.72"/>
<rect x="24.9819" y="40.0267" width="176.467" height="117.39" rx="6.5" fill="white" fill-opacity="0.03" stroke="url(#paint4_linear_394_1195)" stroke-linejoin="round"/>
<rect x="25.4819" y="172.961" width="175.467" height="13.9581" rx="6.97906" fill="url(#paint5_linear_394_1195)" fill-opacity="0.18"/>
<rect x="27.4819" y="199.961" width="159.365" height="3.26508" rx="1.63254" fill="url(#paint6_linear_394_1195)" fill-opacity="0.18"/>
<rect x="27.4819" y="209.961" width="159.365" height="3.26508" rx="1.63254" fill="url(#paint7_linear_394_1195)" fill-opacity="0.18"/>
<rect x="27.4819" y="219.961" width="129.133" height="3.26508" rx="1.63254" fill="url(#paint8_linear_394_1195)" fill-opacity="0.18"/>
<rect x="141.111" y="51.214" width="50.3535" height="15.5" rx="2.75" fill="#B9F4FD" fill-opacity="0.07"/>
<rect x="141.111" y="51.214" width="50.3535" height="15.5" rx="2.75" stroke="#B9F4FD" stroke-width="0.5"/>
<circle cx="154.288" cy="58.964" r="2.42676" fill="#FF6565"/>
<path d="M166.424 61.964H161.214V55.264H162.294V60.994H166.424V61.964ZM168.203 56.414H167.123V55.264H168.203V56.414ZM168.203 61.964H167.123V56.994H168.203V61.964ZM172.393 61.964H171.073L168.753 56.994H169.943L171.713 60.914H171.793L173.563 56.994H174.733L172.393 61.964ZM177.787 62.064C176.157 62.064 175.087 61.144 175.087 59.484C175.087 57.934 176.147 56.894 177.767 56.894C179.307 56.894 180.357 57.744 180.357 59.254C180.357 59.434 180.347 59.574 180.317 59.724H176.097C176.137 60.684 176.607 61.194 177.757 61.194C178.797 61.194 179.227 60.854 179.227 60.264V60.184H180.307V60.274C180.307 61.334 179.267 62.064 177.787 62.064ZM177.747 57.744C176.647 57.744 176.167 58.234 176.107 59.124H179.337V59.104C179.337 58.184 178.807 57.744 177.747 57.744Z" fill="white" fill-opacity="0.77"/>
<rect x="216.949" y="43" width="128.593" height="195.752" rx="6" fill="white" fill-opacity="0.02"/>
<rect x="216.449" y="42.5" width="129.593" height="196.752" rx="6.5" stroke="url(#paint9_linear_394_1195)" stroke-opacity="0.5" stroke-linejoin="round"/>
<rect x="216.949" y="25" width="86.9863" height="9.43726" rx="4.71863" fill="url(#paint10_linear_394_1195)" fill-opacity="0.18"/>
<rect x="223.021" y="58.8636" width="47.6348" height="7.91287" rx="3.95643" fill="url(#paint11_linear_394_1195)" fill-opacity="0.18"/>
<rect x="224.295" y="77.4285" width="110.282" height="2.66675" rx="1.33337" fill="url(#paint12_linear_394_1195)" fill-opacity="0.18"/>
<rect x="224.295" y="85.5959" width="110.282" height="2.66675" rx="1.33337" fill="url(#paint13_linear_394_1195)" fill-opacity="0.18"/>
<g opacity="0.75">
<rect x="223.021" y="106.864" width="47.6348" height="7.91287" rx="3.95643" fill="url(#paint14_linear_394_1195)" fill-opacity="0.18"/>
<rect x="224.295" y="125.428" width="110.282" height="2.66675" rx="1.33337" fill="url(#paint15_linear_394_1195)" fill-opacity="0.18"/>
<rect x="224.295" y="133.596" width="110.282" height="2.66675" rx="1.33337" fill="url(#paint16_linear_394_1195)" fill-opacity="0.18"/>
</g>
<g opacity="0.5">
<rect x="223.021" y="154.864" width="47.6348" height="7.91287" rx="3.95643" fill="url(#paint17_linear_394_1195)" fill-opacity="0.18"/>
<rect x="224.295" y="173.428" width="110.282" height="2.66675" rx="1.33337" fill="url(#paint18_linear_394_1195)" fill-opacity="0.18"/>
<rect x="224.295" y="181.596" width="110.282" height="2.66675" rx="1.33337" fill="url(#paint19_linear_394_1195)" fill-opacity="0.18"/>
</g>
<g opacity="0.25">
<rect x="223.021" y="201.864" width="47.6348" height="7.91287" rx="3.95643" fill="url(#paint20_linear_394_1195)" fill-opacity="0.18"/>
<rect x="224.295" y="220.428" width="110.282" height="2.66675" rx="1.33337" fill="url(#paint21_linear_394_1195)" fill-opacity="0.18"/>
<rect x="224.295" y="228.596" width="110.282" height="2.66675" rx="1.33337" fill="url(#paint22_linear_394_1195)" fill-opacity="0.18"/>
</g>
<defs>
<linearGradient id="paint0_linear_394_1195" x1="12.4377" y1="1.00001" x2="190.553" y2="324.433" gradientUnits="userSpaceOnUse">
<stop offset="0.0762165" stop-color="#2E4657" stop-opacity="0.34"/>
<stop offset="0.595062" stop-color="#0A1B2B" stop-opacity="0"/>
</linearGradient>
<linearGradient id="paint1_linear_394_1195" x1="185.512" y1="56.5978" x2="185.512" y2="262.752" gradientUnits="userSpaceOnUse">
<stop offset="0.253096" stop-color="#2F4759"/>
<stop offset="1" stop-color="#2F4759" stop-opacity="0"/>
</linearGradient>
<linearGradient id="paint2_linear_394_1195" x1="113.215" y1="78.9807" x2="113.215" y2="118.463" gradientUnits="userSpaceOnUse">
<stop stop-color="white" stop-opacity="0.05"/>
<stop offset="1" stop-color="white" stop-opacity="0"/>
</linearGradient>
<linearGradient id="paint3_linear_394_1195" x1="101.395" y1="85.2667" x2="113.215" y2="118.463" gradientUnits="userSpaceOnUse">
<stop stop-color="white"/>
<stop offset="1" stop-color="white" stop-opacity="0"/>
</linearGradient>
<linearGradient id="paint4_linear_394_1195" x1="92.9566" y1="64.6879" x2="110.478" y2="157.434" gradientUnits="userSpaceOnUse">
<stop offset="0.253096" stop-color="#486880"/>
<stop offset="0.842241" stop-color="#3A576E" stop-opacity="0.4"/>
</linearGradient>
<linearGradient id="paint5_linear_394_1195" x1="25.4819" y1="164.078" x2="200.949" y2="217.373" gradientUnits="userSpaceOnUse">
<stop stop-color="white"/>
<stop offset="1" stop-color="white" stop-opacity="0"/>
</linearGradient>
<linearGradient id="paint6_linear_394_1195" x1="27.4819" y1="197.883" x2="100.291" y2="283.746" gradientUnits="userSpaceOnUse">
<stop stop-color="white"/>
<stop offset="1" stop-color="white" stop-opacity="0"/>
</linearGradient>
<linearGradient id="paint7_linear_394_1195" x1="27.4819" y1="207.883" x2="100.291" y2="293.746" gradientUnits="userSpaceOnUse">
<stop stop-color="white"/>
<stop offset="1" stop-color="white" stop-opacity="0"/>
</linearGradient>
<linearGradient id="paint8_linear_394_1195" x1="27.4819" y1="217.883" x2="101.207" y2="288.333" gradientUnits="userSpaceOnUse">
<stop stop-color="white"/>
<stop offset="1" stop-color="white" stop-opacity="0"/>
</linearGradient>
<linearGradient id="paint9_linear_394_1195" x1="266.398" y1="83.6358" x2="325.357" y2="219.628" gradientUnits="userSpaceOnUse">
<stop offset="0.253096" stop-color="#486880"/>
<stop offset="0.842241" stop-color="#3A576E" stop-opacity="0.4"/>
</linearGradient>
<linearGradient id="paint10_linear_394_1195" x1="216.949" y1="18.9945" x2="307.47" y2="39.1539" gradientUnits="userSpaceOnUse">
<stop stop-color="white"/>
<stop offset="1" stop-color="white" stop-opacity="0"/>
</linearGradient>
<linearGradient id="paint11_linear_394_1195" x1="223.021" y1="53.8282" x2="273.972" y2="61.239" gradientUnits="userSpaceOnUse">
<stop stop-color="white"/>
<stop offset="1" stop-color="white" stop-opacity="0"/>
</linearGradient>
<linearGradient id="paint12_linear_394_1195" x1="224.295" y1="75.7314" x2="284.573" y2="135.959" gradientUnits="userSpaceOnUse">
<stop stop-color="white"/>
<stop offset="1" stop-color="white" stop-opacity="0"/>
</linearGradient>
<linearGradient id="paint13_linear_394_1195" x1="224.295" y1="83.8989" x2="284.573" y2="144.127" gradientUnits="userSpaceOnUse">
<stop stop-color="white"/>
<stop offset="1" stop-color="white" stop-opacity="0"/>
</linearGradient>
<linearGradient id="paint14_linear_394_1195" x1="223.021" y1="101.828" x2="273.972" y2="109.239" gradientUnits="userSpaceOnUse">
<stop stop-color="white"/>
<stop offset="1" stop-color="white" stop-opacity="0"/>
</linearGradient>
<linearGradient id="paint15_linear_394_1195" x1="224.295" y1="123.731" x2="284.573" y2="183.959" gradientUnits="userSpaceOnUse">
<stop stop-color="white"/>
<stop offset="1" stop-color="white" stop-opacity="0"/>
</linearGradient>
<linearGradient id="paint16_linear_394_1195" x1="224.295" y1="131.899" x2="284.573" y2="192.127" gradientUnits="userSpaceOnUse">
<stop stop-color="white"/>
<stop offset="1" stop-color="white" stop-opacity="0"/>
</linearGradient>
<linearGradient id="paint17_linear_394_1195" x1="223.021" y1="149.828" x2="273.972" y2="157.239" gradientUnits="userSpaceOnUse">
<stop stop-color="white"/>
<stop offset="1" stop-color="white" stop-opacity="0"/>
</linearGradient>
<linearGradient id="paint18_linear_394_1195" x1="224.295" y1="171.731" x2="284.573" y2="231.959" gradientUnits="userSpaceOnUse">
<stop stop-color="white"/>
<stop offset="1" stop-color="white" stop-opacity="0"/>
</linearGradient>
<linearGradient id="paint19_linear_394_1195" x1="224.295" y1="179.899" x2="284.573" y2="240.127" gradientUnits="userSpaceOnUse">
<stop stop-color="white"/>
<stop offset="1" stop-color="white" stop-opacity="0"/>
</linearGradient>
<linearGradient id="paint20_linear_394_1195" x1="223.021" y1="196.828" x2="273.972" y2="204.239" gradientUnits="userSpaceOnUse">
<stop stop-color="white"/>
<stop offset="1" stop-color="white" stop-opacity="0"/>
</linearGradient>
<linearGradient id="paint21_linear_394_1195" x1="224.295" y1="218.731" x2="284.573" y2="278.959" gradientUnits="userSpaceOnUse">
<stop stop-color="white"/>
<stop offset="1" stop-color="white" stop-opacity="0"/>
</linearGradient>
<linearGradient id="paint22_linear_394_1195" x1="224.295" y1="226.899" x2="284.573" y2="287.127" gradientUnits="userSpaceOnUse">
<stop stop-color="white"/>
<stop offset="1" stop-color="white" stop-opacity="0"/>
</linearGradient>
</defs>
</svg>
