<svg width="2153" height="767" viewBox="0 0 2153 767" fill="none" xmlns="http://www.w3.org/2000/svg">
<g opacity="0.62">
<path opacity="0.56" d="M2116.35 6.32114L2099.64 0.734375M2116.35 6.32114H2066.84M2116.35 6.32114L2133.62 12.0924M2116.35 6.32114H2151.42M2099.64 0.734375L2105.72 0.736553L2111.74 0.74865L2117.63 0.782662L2123.34 0.849647L2128.8 0.958351L2133.95 1.12198L2138.74 1.34927L2143.18 1.63913L2147 2.03993L2150.47 2.5044L2151.42 2.66709V6.32114M2099.64 0.734375H2050.92M2050.92 0.734375H2002.2M2050.92 0.734375L2066.84 6.32114M2002.2 0.734375H1953.48M2002.2 0.734375L2017.32 6.32114M1953.48 0.734375H1904.76M1953.48 0.734375L1967.8 6.32114M1904.76 0.734375H1856.04M1904.76 0.734375L1918.29 6.32114M1856.04 0.734375H1807.32M1856.04 0.734375L1868.77 6.32114M1807.32 0.734375H1758.6M1807.32 0.734375L1819.25 6.32114M1758.6 0.734375H1709.88M1758.6 0.734375L1769.74 6.32114M1709.88 0.734375H1661.15M1709.88 0.734375L1720.22 6.32114M1661.15 0.734375H1612.43M1661.15 0.734375L1670.7 6.32114M1612.43 0.734375H1563.71M1612.43 0.734375L1621.18 6.32114M1563.71 0.734375H1514.99M1563.71 0.734375L1571.67 6.32114M1514.99 0.734375H1466.27M1514.99 0.734375L1516.76 2.11459L1519.44 4.20416L1522.15 6.32114M1466.27 0.734375H1417.55M1466.27 0.734375L1467.84 2.11459L1472.63 6.32114M1417.55 0.734375H1368.83M1417.55 0.734375L1423.12 6.32114M1368.83 0.734375H1320.11M1368.83 0.734375L1370.6 2.80853L1372.39 4.90688L1373 5.61292L1373.6 6.32114M1320.11 0.734375H1271.38M1320.11 0.734375L1321.58 2.80853L1322.08 3.50469L1322.58 4.20416L1324.08 6.32114M1271.38 0.734375H1222.66M1271.38 0.734375L1274.57 6.32114M1222.66 0.734375L1222.96 1.42282L1223.25 2.11459L1224.75 5.61292L1225.05 6.32114M1222.66 0.734375H1173.94M1173.94 0.734375H1125.22M1173.94 0.734375L1175.53 6.32114M1125.22 0.734375H1076.5M1125.22 0.734375L1125.52 2.80853L1126.02 6.32114M1076.5 0.734375H1027.78M1076.5 0.734375V6.32114M1027.78 0.734375H979.057M1027.78 0.734375L1027.48 2.80853L1026.98 6.32114M979.057 0.734375H930.336M979.057 0.734375L977.466 6.32114M930.336 0.734375L930.042 1.42282L929.748 2.11459L928.253 5.61292L927.949 6.32114M930.336 0.734375H881.616M881.616 0.734375H832.894M881.616 0.734375L878.837 5.61292L878.432 6.32114M832.894 0.734375H784.173M832.894 0.734375L831.418 2.80853L830.921 3.50469L829.922 4.90688L829.42 5.61292L828.915 6.32114M784.173 0.734375H735.452M784.173 0.734375L782.402 2.80853L780.607 4.90688L780.004 5.61292L779.399 6.32114M735.452 0.734375H686.731M735.452 0.734375L729.883 6.32114M686.731 0.734375H638.009M686.731 0.734375L685.159 2.11459L680.366 6.32114M638.009 0.734375H589.289M638.009 0.734375L630.849 6.32114M589.289 0.734375H540.568M589.289 0.734375L581.332 6.32114M540.568 0.734375H491.846M540.568 0.734375L531.815 6.32114M491.846 0.734375H443.125M491.846 0.734375L482.298 6.32114M443.125 0.734375H394.404M443.125 0.734375L432.781 6.32114M394.404 0.734375H345.684M394.404 0.734375L383.264 6.32114M345.684 0.734375H296.962M345.684 0.734375L333.747 6.32114M296.962 0.734375H248.241M296.962 0.734375L284.231 6.32114M248.241 0.734375H199.52M248.241 0.734375L234.714 6.32114M199.52 0.734375H150.798M199.52 0.734375L185.197 6.32114M150.798 0.734375H102.077M150.798 0.734375L135.681 6.32114M102.077 0.734375H53.3565M102.077 0.734375L86.164 6.32114M53.3565 0.734375L47.2765 0.736553L41.2592 0.74865L35.3672 0.782662L29.6601 0.849647L24.2004 0.958351L19.0464 1.12198L14.2596 1.34927L9.81659 1.63913L6.00398 2.03993L2.53289 2.5044L1.5789 2.66712V6.32114M53.3565 0.734375L36.6471 6.32114M135.681 6.32114H185.197M135.681 6.32114H86.164M135.681 6.32114L120.06 12.0924M185.197 6.32114L170.399 12.0924M185.197 6.32114H234.714M333.747 6.32114H383.264M333.747 6.32114H284.231M333.747 6.32114L330.703 7.74639L321.416 12.0924M383.264 6.32114L371.755 12.0924M383.264 6.32114H432.781M531.815 6.32114H581.332M531.815 6.32114H482.298M531.815 6.32114L529.582 7.74639L528.458 8.46232L522.771 12.0924M581.332 6.32114L580.319 7.03157L579.302 7.74639L573.111 12.0924M581.332 6.32114H630.849M729.883 6.32114L729.173 7.03157L724.127 12.0924M729.883 6.32114H779.399M729.883 6.32114H680.366M779.399 6.32114L778.181 7.74639L777.568 8.46232L776.953 9.18263L774.466 12.0924M779.399 6.32114H828.915M927.949 6.32114H977.466M927.949 6.32114H878.432M927.949 6.32114L925.484 12.0924M977.466 6.32114L977.264 7.03157L977.061 7.74639L976.856 8.46232L976.238 10.6309L975.822 12.0924M977.466 6.32114H1026.98M1126.02 6.32114H1175.53M1126.02 6.32114H1076.5M1126.02 6.32114L1126.84 12.0924M1175.53 6.32114L1175.74 7.03157L1175.94 7.74639L1176.14 8.46232L1177.18 12.0924M1175.53 6.32114H1225.05M1324.08 6.32114H1373.6M1324.08 6.32114H1274.57M1324.08 6.32114L1325.1 7.74639L1327.15 10.6309L1327.67 11.36L1328.19 12.0924M1373.6 6.32114L1374.82 7.74639L1375.43 8.46232L1376.05 9.18263L1378.53 12.0924M1373.6 6.32114H1423.12M1522.15 6.32114H1571.67M1522.15 6.32114H1472.63M1522.15 6.32114L1523.98 7.74639L1524.9 8.46232L1529.55 12.0924M1571.67 6.32114L1572.68 7.03157L1573.7 7.74639L1579.89 12.0924M1571.67 6.32114H1621.18M1720.22 6.32114H1769.74M1720.22 6.32114H1670.7M1720.22 6.32114L1722.86 7.74639L1724.19 8.46232L1730.91 12.0924M1769.74 6.32114L1781.25 12.0924M1769.74 6.32114H1819.25M1918.29 6.32114H1967.8M1918.29 6.32114H1868.77M1918.29 6.32114L1932.26 12.0924M1967.8 6.32114L1982.6 12.0924M1967.8 6.32114H2017.32M1.40534 58.5655H1.5789M51.2447 58.5655L70.1499 51.1922M51.2447 58.5655L31.6151 66.221M51.2447 58.5655H108.203M51.2447 58.5655H1.5789M70.1499 51.1922H14.2417M70.1499 51.1922L88.3709 44.0858M70.1499 51.1922H126.058M14.2417 51.1922L33.4749 44.0858M14.2417 51.1922H1.5789M14.2417 51.1922L1.5789 55.87M69.9237 30.6173H122.902M69.9237 30.6173L87.2098 24.23M69.9237 30.6173H16.9469M69.9237 30.6173L52.0229 37.2318M122.902 30.6173L139.279 24.23M122.902 30.6173L105.944 37.2318M122.902 30.6173H175.88M87.2098 24.23H139.279M87.2098 24.23L103.913 18.0591M87.2098 24.23H35.1422M139.279 24.23H191.346M139.279 24.23L155.101 18.0591M1.0336 174.946H1.5789M46.9932 174.946L71.3715 162.722M46.9932 174.946L21.4033 187.779M46.9932 174.946H120.53M46.9932 174.946H1.5789M71.3715 162.722L94.6223 151.063M71.3715 162.722H143.166M71.3715 162.722H1.5789M24.4881 151.063H94.6223M24.4881 151.063L48.273 139.931M24.4881 151.063H1.5789M24.4881 151.063L1.5789 161.785M71.0054 129.291H138.038M71.0054 129.291L92.7546 119.112M71.0054 129.291H3.97284M71.0054 129.291L48.273 139.931M138.038 129.291L158.338 119.112M138.038 129.291L116.821 139.931M138.038 129.291H205.072M92.7546 119.112H158.338M92.7546 119.112H27.1721M92.7546 119.112L113.583 109.364M158.338 119.112L177.778 109.364M158.338 119.112H223.921M152.702 91.0552H214.288M152.702 91.0552L171.093 82.4477M152.702 91.0552H91.1153M152.702 91.0552L133.548 100.02M214.288 91.0552L231.453 82.4477M214.288 91.0552L196.412 100.02M214.288 91.0552H275.875M171.093 82.4477H231.453M171.093 82.4477H110.733M171.093 82.4477L188.766 74.1762M231.453 82.4477L247.949 74.1762M231.453 82.4477H291.814M222.12 58.5655H279.079M222.12 58.5655L237.875 51.1922M222.12 58.5655H165.162M222.12 58.5655L205.762 66.221M279.079 58.5655L293.783 51.1922M279.079 58.5655L263.812 66.221M279.079 58.5655H336.037M237.875 51.1922H293.783M237.875 51.1922H181.966M237.875 51.1922L253.059 44.0858M293.783 51.1922L307.955 44.0858M293.783 51.1922H349.691M281.834 30.6173H334.812M281.834 30.6173L295.481 24.23M281.834 30.6173H228.858M281.834 30.6173L267.702 37.2318M334.812 30.6173L347.549 24.23M334.812 30.6173L321.622 37.2318M334.812 30.6173H387.79M295.481 24.23H347.549M295.481 24.23L308.668 18.0591M295.481 24.23H243.414M347.549 24.23H399.618M347.549 24.23L359.857 18.0591M39.2538 386.881L73.5639 362.794M39.2538 386.881L2.51161 412.675M39.2538 386.881H142.978M39.2538 386.881H1.5789M73.5639 362.794L105.678 340.249M73.5639 362.794H173.857M73.5639 362.794H1.5789M72.8674 299.229H164.107M72.8674 299.229L102.187 280.517M72.8674 299.229L41.7283 319.103M72.8674 299.229H1.5789M164.107 299.229L190.761 280.517M164.107 299.229L135.798 319.103M164.107 299.229H255.346M102.187 280.517H190.761M102.187 280.517H13.6135M102.187 280.517L129.843 262.866M190.761 280.517L215.902 262.866M190.761 280.517H279.335M180.695 230.411H262.133M180.695 230.411L204.128 215.457M180.695 230.411H99.259M180.695 230.411L155.971 246.192M262.133 230.411L283.434 215.457M262.133 230.411L239.655 246.192M262.133 230.411H343.57M204.128 215.457H283.434M204.128 215.457H124.821M204.128 215.457L226.364 201.265M283.434 215.457L303.65 201.265M283.434 215.457H362.74M267.602 174.946H341.139M267.602 174.946L286.757 162.722M267.602 174.946H194.066M267.602 174.946L247.496 187.779M341.139 174.946L358.551 162.722M341.139 174.946L322.859 187.779M341.139 174.946H414.674M286.757 162.722H358.551M286.757 162.722H214.962M286.757 162.722L305.025 151.063M358.551 162.722L375.159 151.063M358.551 162.722H430.346M339.138 129.291H406.17M339.138 129.291L355.087 119.112M339.138 129.291H272.104M339.138 129.291L322.466 139.931M406.17 129.291L420.67 119.112M406.17 129.291L391.015 139.931M406.17 129.291H473.203M355.087 119.112H420.67M355.087 119.112H289.504M355.087 119.112L370.361 109.364M420.67 119.112L434.556 109.364M420.67 119.112H486.253M399.048 91.0552H460.634M399.048 91.0552L412.535 82.4477M399.048 91.0552H337.461M399.048 91.0552L385.002 100.02M460.634 91.0552L462.195 89.9604L472.895 82.4477M460.634 91.0552L447.866 100.02M460.634 91.0552H522.221M412.535 82.4477H472.895M412.535 82.4477H352.174M412.535 82.4477L425.495 74.1762M472.895 82.4477L484.678 74.1762M472.895 82.4477H533.256M449.954 58.5655H506.914M449.954 58.5655L461.509 51.1922M449.954 58.5655H392.996M449.954 58.5655L437.959 66.221M506.914 58.5655L517.417 51.1922M506.914 58.5655L502.873 61.4028L496.008 66.221M506.914 58.5655H563.872M461.509 51.1922H517.417M461.509 51.1922H405.6M461.509 51.1922L472.643 44.0858M517.417 51.1922L527.539 44.0858M517.417 51.1922H573.325M493.745 30.6173H546.723M493.745 30.6173L503.753 24.23M493.745 30.6173H440.768M493.745 30.6173L483.382 37.2318M546.723 30.6173L553.577 25.8068L554.701 25.0162L555.822 24.23M546.723 30.6173L537.302 37.2318M546.723 30.6173H599.701M503.753 24.23H555.822M503.753 24.23L513.423 18.0591M503.753 24.23H451.685M555.822 24.23H607.889M555.822 24.23L564.611 18.0591M76.8346 661.271H219.645M76.8346 661.271L121.802 616.173M76.8346 661.271L27.4218 710.828M76.8346 661.271L1.5789 661.272M219.645 661.271L258.188 616.173M219.645 661.271L177.29 710.828M219.645 661.271H362.453M121.802 616.173H258.188M121.802 616.173L162.899 574.957M121.802 616.173H1.5789M258.188 616.173L293.413 574.957M258.188 616.173H394.573M235.318 502.326H355.488M235.318 502.326L267.387 470.164M235.318 502.326H115.15M235.318 502.326L200.603 537.143M355.488 502.326L382.974 470.164M355.488 502.326L325.731 537.143M355.488 502.326H475.656M267.387 470.164H382.974M267.387 470.164H151.799M267.387 470.164L297.1 440.364M382.974 470.164L408.443 440.364M382.974 470.164H498.562M350.428 386.881H454.152M350.428 386.881L374.445 362.794M350.428 386.881H246.702M350.428 386.881L324.708 412.675M454.152 386.881L474.739 362.794M454.152 386.881L432.107 412.675M454.152 386.881H557.876M374.445 362.794H474.739M374.445 362.794H274.151M374.445 362.794L396.925 340.249M474.739 362.794L494.007 340.249M474.739 362.794H575.032M437.824 299.229H529.064M437.824 299.229L456.483 280.517M437.824 299.229H346.586M437.824 299.229L418.009 319.103M529.064 299.229L545.057 280.517M529.064 299.229L512.079 319.103M529.064 299.229H620.304M456.483 280.517H545.057M456.483 280.517H367.909M456.483 280.517L474.082 262.866M545.057 280.517L560.141 262.866M545.057 280.517H633.63M506.442 230.411H587.88M506.442 230.411L521.354 215.457M506.442 230.411H425.006M506.442 230.411L490.708 246.192M587.88 230.411L600.66 215.457M587.88 230.411L574.393 246.192M587.88 230.411H669.317M521.354 215.457H600.66M521.354 215.457H442.047M521.354 215.457L535.504 201.265M600.66 215.457L612.789 201.265M600.66 215.457H679.967M561.747 174.946H635.283M561.747 174.946L573.936 162.722M561.747 174.946H488.21M561.747 174.946L548.952 187.779M635.283 174.946L645.731 162.722M635.283 174.946L624.315 187.779M635.283 174.946H708.819M573.936 162.722H645.731M573.936 162.722H502.14M573.936 162.722L585.561 151.063M645.731 162.722L655.695 151.063M645.731 162.722H717.526M607.269 129.291H674.303M607.269 129.291L617.419 119.112M607.269 129.291H540.236M607.269 129.291L596.661 139.931M674.303 129.291L683.002 119.112M674.303 129.291L665.209 139.931M674.303 129.291H741.335M617.419 119.112H683.002M617.419 119.112H551.835M617.419 119.112L627.139 109.364M683.002 119.112L691.333 109.364M683.002 119.112H748.585M645.394 91.0552H706.981M645.394 91.0552L653.977 82.4477M645.394 91.0552H583.808M645.394 91.0552L636.455 100.02M706.981 91.0552L706.04 92.1554L699.319 100.02M706.981 91.0552L714.337 82.4477M706.981 91.0552H768.568M653.977 82.4477H714.337M653.977 82.4477H593.616M653.977 82.4477L662.224 74.1762M714.337 82.4477L721.407 74.1762M714.337 82.4477H774.698M677.789 58.5655H734.748M677.789 58.5655L685.141 51.1922M677.789 58.5655H620.831M677.789 58.5655L670.156 66.221M734.748 58.5655L741.05 51.1922M734.748 58.5655L732.324 61.4028L730.688 63.3167L728.205 66.221M734.748 58.5655H791.706M685.141 51.1922H741.05M685.141 51.1922H629.233M685.141 51.1922L692.227 44.0858M741.05 51.1922L743.354 48.4966L744.872 46.7199L747.124 44.0858M741.05 51.1922H796.958M705.657 30.6173H758.634M705.657 30.6173L710.454 25.8068L712.025 24.23M705.657 30.6173H652.679M705.657 30.6173L699.898 36.3919L699.062 37.2318M758.634 30.6173L762.746 25.8068L763.42 25.0162L764.093 24.23M758.634 30.6173L755.832 33.8949L752.981 37.2318M758.634 30.6173H811.612M712.025 24.23H764.093M712.025 24.23L718.178 18.0591M712.025 24.23H659.957M764.093 24.23H816.161M764.093 24.23L769.367 18.0591M648.072 661.271H790.881M648.072 661.271L667.344 616.173M648.072 661.271H505.263M648.072 661.271L626.895 710.828M790.881 661.271L803.73 616.173M790.881 661.271L776.764 710.828M790.881 661.271H933.691M667.344 616.173H803.73M667.344 616.173H530.958M667.344 616.173L684.957 574.957M803.73 616.173L815.471 574.957M803.73 616.173H940.115M715.994 502.326H836.162M715.994 502.326L729.737 470.164M715.994 502.326H595.824M715.994 502.326L701.115 537.143M836.162 502.326L845.325 470.164M836.162 502.326L826.244 537.143M836.162 502.326H956.332M729.737 470.164H845.325M729.737 470.164H614.15M729.737 470.164L742.472 440.364M845.325 470.164L853.814 440.364M845.325 470.164H960.912M765.326 386.881H869.05M765.326 386.881L775.62 362.794M765.326 386.881H661.602M765.326 386.881L754.304 412.675M869.05 386.881L875.913 362.794M869.05 386.881L861.703 412.675M869.05 386.881H972.776M775.62 362.794H875.913M775.62 362.794H675.326M775.62 362.794L785.254 340.249M875.913 362.794L882.336 340.249M875.913 362.794H976.207M802.783 299.229H894.021M802.783 299.229L810.778 280.517M802.783 299.229H711.543M802.783 299.229L794.29 319.103M894.021 299.229L899.352 280.517M894.021 299.229L888.36 319.103M894.021 299.229H985.261M810.778 280.517H899.352M810.778 280.517H722.205M810.778 280.517L818.321 262.866M899.352 280.517L904.381 262.866M899.352 280.517H987.927M832.19 230.411H913.627M832.19 230.411L838.58 215.457M832.19 230.411H750.753M832.19 230.411L825.447 246.192M913.627 230.411L917.886 215.457M913.627 230.411L909.131 246.192M913.627 230.411H995.064M838.58 215.457H917.886M838.58 215.457H759.274M838.58 215.457L844.645 201.265M917.886 215.457L921.93 201.265M917.886 215.457H997.193M855.891 174.946H929.427M855.891 174.946L861.115 162.722M855.891 174.946H782.356M855.891 174.946L850.408 187.779M929.427 174.946L932.911 162.722M929.427 174.946L925.771 187.779M929.427 174.946H1002.96M861.115 162.722H932.911M861.115 162.722H789.32M861.115 162.722L863.012 158.285L866.098 151.063M932.911 162.722L936.232 151.063M932.911 162.722H1004.71M875.401 129.291H942.434M875.401 129.291L879.751 119.112M875.401 129.291H808.368M875.401 129.291L872.011 137.226L870.854 139.931M942.434 129.291L943.537 125.421L945.334 119.112M942.434 129.291L939.403 139.931M942.434 129.291H1009.47M879.751 119.112L880.281 117.87L883.917 109.364M879.751 119.112H945.334M879.751 119.112H814.168M945.334 119.112L946.39 115.407L946.737 114.185L947.084 112.971L948.111 109.364M945.334 119.112H1010.92M891.74 91.0552H953.326M891.74 91.0552L893.598 86.7081L894.057 85.6353L894.513 84.5669L894.967 83.5051L895.418 82.4477M891.74 91.0552H830.154M891.74 91.0552L887.91 100.02M953.326 91.0552L955.175 84.5669L955.478 83.5051L955.779 82.4477M953.326 91.0552L950.773 100.02M953.326 91.0552H1014.91M895.418 82.4477H955.779M895.418 82.4477H835.058M895.418 82.4477L897.644 77.2397L898.082 76.2131L898.953 74.1762M955.779 82.4477L957.262 77.2397L957.556 76.2131L957.846 75.1919L958.136 74.1762M955.779 82.4477H1016.14M905.625 58.5655H962.583M905.625 58.5655L908.775 51.1922M905.625 58.5655H848.665M905.625 58.5655L904.817 60.4519L903.593 63.3167L902.353 66.221M962.583 58.5655L962.314 59.5065L960.678 65.2481L960.402 66.221M962.583 58.5655L964.684 51.1922M962.583 58.5655H1019.54M908.775 51.1922H964.684M908.775 51.1922H852.867M908.775 51.1922L911.812 44.0858M964.684 51.1922L965.452 48.4966L965.705 47.606L965.958 46.7199L966.708 44.0858M964.684 51.1922H1020.59M917.567 30.6173H970.544M917.567 30.6173L919.623 25.8068L920.296 24.23M917.567 30.6173H864.589M917.567 30.6173L916.518 33.0703L916.167 33.8949L915.812 34.7239L914.74 37.2318M970.544 30.6173L970.776 29.807L971.234 28.1961L971.69 26.5996L972.364 24.23M970.544 30.6173L969.61 33.8949L969.375 34.7239L968.899 36.3919L968.661 37.2318M970.544 30.6173H1023.52M920.296 24.23H972.364M920.296 24.23L922.608 18.819L922.934 18.0591M920.296 24.23H868.228M972.364 24.23L972.588 23.4472L972.809 22.6675L973.031 21.8912L973.251 21.1182L973.906 18.819L974.123 18.0591M972.364 24.23H1024.43M1219.31 661.271H1362.12M1219.31 661.271L1212.89 616.173M1219.31 661.271H1076.5M1219.31 661.271L1226.37 710.828M1362.12 661.271L1349.27 616.173M1362.12 661.271L1376.24 710.828M1362.12 661.271H1504.93M1212.89 616.173H1349.27M1212.89 616.173H1076.5M1212.89 616.173L1207.01 574.957M1349.27 616.173L1337.53 574.957M1349.27 616.173H1485.66M1196.67 502.326H1316.84M1196.67 502.326L1192.09 470.164M1196.67 502.326H1076.5M1196.67 502.326L1201.63 537.143M1316.84 502.326L1307.68 470.164M1316.84 502.326L1326.76 537.143M1316.84 502.326H1437.01M1192.09 470.164H1307.68M1192.09 470.164H1076.5M1192.09 470.164L1187.84 440.364M1307.68 470.164L1299.19 440.364M1307.68 470.164H1423.26M1180.22 386.881H1283.95M1180.22 386.881L1176.79 362.794M1180.22 386.881H1076.5M1180.22 386.881L1183.9 412.675M1283.95 386.881L1277.09 362.794M1283.95 386.881L1291.3 412.675M1283.95 386.881H1387.67M1176.79 362.794H1277.09M1176.79 362.794H1076.5M1176.79 362.794L1173.58 340.249M1277.09 362.794L1270.66 340.249M1277.09 362.794H1377.38M1167.74 299.229H1258.98M1167.74 299.229L1165.07 280.517M1167.74 299.229H1076.5M1167.74 299.229L1170.57 319.103M1258.98 299.229L1253.65 280.517M1258.98 299.229L1264.64 319.103M1258.98 299.229H1350.22M1165.07 280.517H1253.65M1165.07 280.517H1076.5M1165.07 280.517L1162.56 262.866M1253.65 280.517L1248.62 262.866M1253.65 280.517H1342.22M1157.94 230.411H1239.37M1157.94 230.411L1155.81 215.457M1157.94 230.411H1076.5M1157.94 230.411L1160.18 246.192M1239.37 230.411L1235.11 215.457M1239.37 230.411L1243.87 246.192M1239.37 230.411H1320.81M1155.81 215.457H1235.11M1155.81 215.457H1076.5M1155.81 215.457L1153.78 201.265M1235.11 215.457L1231.07 201.265M1235.11 215.457H1314.42M1150.04 174.946H1223.57M1150.04 174.946L1148.29 162.722M1150.04 174.946H1076.5M1150.04 174.946L1151.86 187.779M1223.57 174.946L1220.09 162.722M1223.57 174.946L1227.23 187.779M1223.57 174.946H1297.11M1148.29 162.722H1220.09M1148.29 162.722H1076.5M1148.29 162.722L1146.63 151.063M1220.09 162.722L1216.77 151.063M1220.09 162.722H1291.89M1143.53 129.291H1210.57M1143.53 129.291L1142.08 119.112M1143.53 129.291H1076.5M1143.53 129.291L1145.05 139.931M1210.57 129.291L1208.02 120.361L1207.67 119.112M1210.57 129.291L1213.6 139.931M1210.57 129.291H1277.6M1142.08 119.112L1141.91 117.87L1140.69 109.364M1142.08 119.112H1207.67M1142.08 119.112H1076.5M1207.67 119.112L1206.61 115.407L1206.26 114.185L1205.92 112.971L1204.89 109.364M1207.67 119.112H1273.25M1138.09 91.0552H1199.67M1138.09 91.0552L1136.86 82.4477M1138.09 91.0552H1076.5M1138.09 91.0552L1138.56 94.3734L1138.72 95.4912L1138.88 96.6145L1139.2 98.8787L1139.36 100.02M1199.67 91.0552L1197.82 84.5669L1197.22 82.4477M1199.67 91.0552L1202.23 100.02M1199.67 91.0552H1261.26M1136.86 82.4477H1197.22M1136.86 82.4477H1076.5M1136.86 82.4477L1135.68 74.1762M1197.22 82.4477L1195.74 77.2397L1195.44 76.2131L1195.15 75.1919L1194.86 74.1762M1197.22 82.4477H1257.58M1133.46 58.5655H1190.42M1133.46 58.5655L1132.41 51.1922M1133.46 58.5655H1076.5M1133.46 58.5655L1134.55 66.221M1190.42 58.5655L1190.69 59.5065L1192.32 65.2481L1192.6 66.221M1190.42 58.5655L1188.32 51.1922M1190.42 58.5655H1247.38M1132.41 51.1922H1188.32M1132.41 51.1922H1076.5M1132.41 51.1922L1131.4 44.0858M1188.32 51.1922L1187.55 48.4966L1187.3 47.606L1187.04 46.7199L1186.29 44.0858M1188.32 51.1922H1244.22M1129.48 30.6173H1182.46M1129.48 30.6173L1128.57 24.23M1129.48 30.6173H1076.5M1129.48 30.6173L1130.42 37.2318M1182.46 30.6173L1182.22 29.807L1181.76 28.1961L1181.54 27.3957L1181.08 25.8068L1180.86 25.0162L1180.64 24.23M1182.46 30.6173L1183.39 33.8949L1183.62 34.7239L1184.1 36.3919L1184.34 37.2318M1182.46 30.6173H1235.43M1128.57 24.23L1128.46 23.4472L1128.34 22.6675L1128.24 21.8912L1127.69 18.0591M1128.57 24.23H1180.64M1128.57 24.23H1076.5M1180.64 24.23H1232.7M1180.64 24.23L1180.19 22.6675L1179.97 21.8912L1179.75 21.1182L1179.09 18.819L1178.88 18.0591M1790.55 661.271H1933.36M1790.55 661.271L1758.43 616.173M1790.55 661.271H1647.74M1790.55 661.271L1825.84 710.828M1933.36 661.271L1894.81 616.173M1933.36 661.271L1975.71 710.828M1933.36 661.271H2076.17M1758.43 616.173H1894.81M1758.43 616.173H1622.04M1758.43 616.173L1729.07 574.957M1894.81 616.173L1859.59 574.957M1894.81 616.173H2031.2M1677.34 502.326H1797.51M1677.34 502.326L1654.44 470.164M1677.34 502.326H1557.18M1677.34 502.326L1702.14 537.143M1797.51 502.326L1770.03 470.164M1797.51 502.326L1827.27 537.143M1797.51 502.326H1917.68M1654.44 470.164H1770.03M1654.44 470.164H1538.85M1654.44 470.164L1633.21 440.364M1770.03 470.164L1744.56 440.364M1770.03 470.164H1885.61M1595.12 386.881H1698.85M1595.12 386.881L1577.97 362.794M1595.12 386.881H1491.4M1595.12 386.881L1613.49 412.675M1698.85 386.881L1678.26 362.794M1698.85 386.881L1720.89 412.675M1698.85 386.881H1802.57M1577.97 362.794H1678.26M1577.97 362.794H1477.67M1577.97 362.794L1561.91 340.249M1678.26 362.794L1658.99 340.249M1678.26 362.794H1778.55M1532.7 299.229H1623.94M1532.7 299.229L1519.37 280.517M1532.7 299.229H1441.46M1532.7 299.229L1546.85 319.103M1623.94 299.229L1607.94 280.517M1623.94 299.229L1640.92 319.103M1623.94 299.229H1715.18M1519.37 280.517H1607.94M1519.37 280.517H1430.8M1519.37 280.517L1506.8 262.866M1607.94 280.517L1592.86 262.866M1607.94 280.517H1696.52M1483.68 230.411H1565.12M1483.68 230.411L1473.03 215.457M1483.68 230.411H1402.25M1483.68 230.411L1494.92 246.192M1565.12 230.411L1552.34 215.457M1565.12 230.411L1578.61 246.192M1565.12 230.411H1646.56M1473.03 215.457H1552.34M1473.03 215.457H1393.73M1473.03 215.457L1462.93 201.265M1552.34 215.457L1540.21 201.265M1552.34 215.457H1631.65M1444.18 174.946H1517.72M1444.18 174.946L1435.47 162.722M1444.18 174.946H1370.64M1444.18 174.946L1453.32 187.779M1517.72 174.946L1507.27 162.722M1517.72 174.946L1528.68 187.779M1517.72 174.946H1591.25M1435.47 162.722H1507.27M1435.47 162.722H1363.68M1435.47 162.722L1427.17 151.063M1507.27 162.722L1497.3 151.063M1507.27 162.722H1579.06M1411.66 129.291L1412.59 130.595L1413.53 131.906L1419.24 139.931M1411.66 129.291H1478.7M1411.66 129.291L1404.41 119.112M1411.66 129.291H1344.63M1478.7 129.291L1470 119.112M1478.7 129.291L1487.79 139.931M1478.7 129.291H1545.73M1404.41 119.112H1470M1404.41 119.112H1338.83M1404.41 119.112L1397.47 109.364M1470 119.112L1461.67 109.364M1470 119.112H1535.58M1384.43 91.0552H1446.02M1384.43 91.0552L1378.3 82.4477M1384.43 91.0552H1322.85M1384.43 91.0552L1390.82 100.02M1446.02 91.0552L1441.39 85.6353L1438.66 82.4477M1446.02 91.0552L1453.68 100.02M1446.02 91.0552H1507.61M1378.3 82.4477H1438.66M1378.3 82.4477H1317.94M1378.3 82.4477L1373.14 75.1919L1372.41 74.1762M1438.66 82.4477L1431.59 74.1762M1438.66 82.4477H1499.02M1361.29 58.5655H1418.25M1361.29 58.5655L1359.96 56.6956L1356.04 51.1922M1361.29 58.5655H1304.34M1361.29 58.5655L1362.64 60.4519L1365.36 64.2797L1366.75 66.221M1418.25 58.5655L1411.95 51.1922M1418.25 58.5655L1420.68 61.4028L1422.31 63.3167L1424.79 66.221M1418.25 58.5655H1475.21M1356.04 51.1922H1411.95M1356.04 51.1922H1300.13M1356.04 51.1922L1352.23 45.8371L1350.98 44.0858M1411.95 51.1922L1409.65 48.4966L1408.13 46.7199L1405.88 44.0858M1411.95 51.1922H1467.86M1341.39 30.6173H1394.37M1341.39 30.6173L1338.53 26.5996L1336.84 24.23M1341.39 30.6173H1288.41M1341.39 30.6173L1346.1 37.2318M1394.37 30.6173L1390.25 25.8068L1389.58 25.0162L1388.91 24.23M1394.37 30.6173L1397.17 33.8949L1400.02 37.2318M1394.37 30.6173H1447.34M1336.84 24.23H1388.91M1336.84 24.23L1334.62 21.1182L1333.53 19.5821L1332.99 18.819L1332.44 18.0591M1336.84 24.23H1284.77M1388.91 24.23H1440.98M1388.91 24.23L1383.63 18.0591M2116.79 470.164H2001.2M2116.79 470.164L2078.59 440.364M2116.79 470.164H2151.42M2116.79 470.164L2151.42 497.179M2010.02 386.881H2113.75M2010.02 386.881L1979.14 362.794M2010.02 386.881H1906.3M2010.02 386.881L2043.09 412.675M2113.75 386.881L2079.44 362.794M2113.75 386.881L2150.49 412.675M2113.75 386.881H2151.42M1979.14 362.794H2079.44M1979.14 362.794H1878.85M1979.14 362.794L1950.24 340.249M2079.44 362.794L2047.32 340.249M2079.44 362.794H2151.42M1897.65 299.229H1988.89M1897.65 299.229L1873.66 280.517M1897.65 299.229H1806.41M1897.65 299.229L1923.13 319.103M1988.89 299.229L1962.24 280.517M1988.89 299.229L2017.2 319.103M1988.89 299.229H2080.13M1873.66 280.517H1962.24M1873.66 280.517H1785.09M1873.66 280.517L1851.04 262.866M1962.24 280.517L1937.1 262.866M1962.24 280.517H2050.81M1809.43 230.411H1890.87M1809.43 230.411L1790.26 215.457M1809.43 230.411H1727.99M1809.43 230.411L1829.66 246.192M1890.87 230.411L1869.57 215.457M1890.87 230.411L1913.35 246.192M1890.87 230.411H1972.3M1790.26 215.457H1869.57M1790.26 215.457H1710.95M1790.26 215.457L1772.07 201.265M1869.57 215.457L1849.35 201.265M1869.57 215.457H1948.87M1738.33 174.946H1811.86M1738.33 174.946L1722.65 162.722M1738.33 174.946H1664.79M1738.33 174.946L1754.78 187.779M1811.86 174.946L1794.45 162.722M1811.86 174.946L1830.14 187.779M1811.86 174.946H1885.4M1722.65 162.722H1794.45M1722.65 162.722H1650.86M1722.65 162.722L1707.71 151.063M1794.45 162.722L1777.84 151.063M1794.45 162.722H1866.24M1679.8 129.291H1746.83M1679.8 129.291L1666.75 119.112M1679.8 129.291H1612.76M1679.8 129.291L1693.44 139.931M1746.83 129.291L1732.33 119.112M1746.83 129.291L1761.98 139.931M1746.83 129.291H1813.86M1666.75 119.112H1732.33M1666.75 119.112H1601.16M1666.75 119.112L1654.25 109.364M1732.33 119.112L1718.44 109.364M1732.33 119.112H1797.91M1630.78 91.0552H1692.36M1630.78 91.0552L1619.74 82.4477M1630.78 91.0552H1569.19M1630.78 91.0552L1642.27 100.02M1692.36 91.0552L1680.11 82.4477M1692.36 91.0552L1705.14 100.02M1692.36 91.0552H1753.95M1619.74 82.4477H1680.11M1619.74 82.4477H1559.38M1619.74 82.4477L1609.14 74.1762M1680.11 82.4477L1668.32 74.1762M1680.11 82.4477H1740.47M1589.13 58.5655H1646.09M1589.13 58.5655L1579.68 51.1922M1589.13 58.5655H1532.17M1589.13 58.5655L1591.55 60.4519L1592.76 61.4028L1598.94 66.221M1646.09 58.5655L1635.58 51.1922M1646.09 58.5655L1656.99 66.221M1646.09 58.5655H1703.04M1579.68 51.1922H1635.58M1579.68 51.1922H1523.77M1579.68 51.1922L1570.57 44.0858M1635.58 51.1922L1625.46 44.0858M1635.58 51.1922H1691.49M1553.3 30.6173H1606.28M1553.3 30.6173L1545.11 24.23M1553.3 30.6173H1500.32M1553.3 30.6173L1561.78 37.2318M1606.28 30.6173L1599.42 25.8068L1598.3 25.0162L1597.18 24.23M1606.28 30.6173L1615.7 37.2318M1606.28 30.6173H1659.25M1545.11 24.23H1597.18M1545.11 24.23L1538.17 18.819L1537.2 18.0591M1545.11 24.23H1493.04M1597.18 24.23H1649.25M1597.18 24.23L1588.39 18.0591M2135.18 230.411L2107.49 215.457M2135.18 230.411H2053.74M2135.18 230.411L2151.42 239.183M2135.18 230.411H2151.42M2107.49 215.457H2028.18M2107.49 215.457L2081.21 201.265M2107.49 215.457H2151.42M2032.47 174.946H2106.01M2032.47 174.946L2009.83 162.722M2032.47 174.946H1958.93M2032.47 174.946L2056.23 187.779M2106.01 174.946L2081.63 162.722M2106.01 174.946L2131.6 187.779M2106.01 174.946H2151.42M2009.83 162.722H2081.63M2009.83 162.722H1938.04M2009.83 162.722L1988.24 151.063M2081.63 162.722L2058.38 151.063M2081.63 162.722H2151.42M1947.93 129.291H2014.96M1947.93 129.291L1929.08 119.112M1947.93 129.291H1880.9M1947.93 129.291L1967.63 139.931M2014.96 129.291L1994.66 119.112M2014.96 129.291L2036.18 139.931M2014.96 129.291H2081.99M1929.08 119.112H1994.66M1929.08 119.112H1863.5M1929.08 119.112L1911.03 109.364M1994.66 119.112L1975.22 109.364M1994.66 119.112H2060.25M1877.12 91.0552H1938.71M1877.12 91.0552L1861.19 82.4477M1877.12 91.0552H1815.54M1877.12 91.0552L1893.72 100.02M1938.71 91.0552L1921.55 82.4477M1938.71 91.0552L1956.59 100.02M1938.71 91.0552H2000.3M1861.19 82.4477H1921.55M1861.19 82.4477H1800.83M1861.19 82.4477L1845.87 74.1762M1921.55 82.4477L1905.05 74.1762M1921.55 82.4477H1981.91M1816.96 58.5655H1873.92M1816.96 58.5655L1803.31 51.1922M1816.96 58.5655H1760M1816.96 58.5655L1831.14 66.221M1873.92 58.5655L1859.22 51.1922M1873.92 58.5655L1889.19 66.221M1873.92 58.5655H1930.88M1803.31 51.1922H1859.22M1803.31 51.1922H1747.4M1803.31 51.1922L1790.15 44.0858M1859.22 51.1922L1845.05 44.0858M1859.22 51.1922H1915.13M1765.21 30.6173H1818.19M1765.21 30.6173L1753.38 24.23M1765.21 30.6173H1712.23M1765.21 30.6173L1777.46 37.2318M1818.19 30.6173L1805.45 24.23M1818.19 30.6173L1831.38 37.2318M1818.19 30.6173H1871.17M1753.38 24.23H1805.45M1753.38 24.23L1741.95 18.0591M1753.38 24.23H1701.31M1805.45 24.23H1857.52M1805.45 24.23L1793.14 18.0591M2123.47 91.0552L2102.63 82.4477M2123.47 91.0552H2061.88M2123.47 91.0552L2145.18 100.02M2123.47 91.0552H2151.42M2102.63 82.4477H2042.27M2102.63 82.4477L2082.6 74.1762M2102.63 82.4477H2151.42M2044.8 58.5655H2101.76M2044.8 58.5655L2026.94 51.1922M2044.8 58.5655H1987.84M2044.8 58.5655L2063.34 66.221M2101.76 58.5655L2082.85 51.1922M2101.76 58.5655L2121.38 66.221M2101.76 58.5655H2151.42M2026.94 51.1922H2082.85M2026.94 51.1922H1971.03M2026.94 51.1922L2009.73 44.0858M2082.85 51.1922L2064.63 44.0858M2082.85 51.1922H2138.76M1977.12 30.6173H2030.1M1977.12 30.6173L1961.65 24.23M1977.12 30.6173H1924.14M1977.12 30.6173L1993.14 37.2318M2030.1 30.6173L2013.72 24.23M2030.1 30.6173L2047.06 37.2318M2030.1 30.6173H2083.08M1961.65 24.23H2013.72M1961.65 24.23L1946.71 18.0591M1961.65 24.23H1909.59M2013.72 24.23H2065.79M2013.72 24.23L1997.9 18.0591M2047.06 37.2318L2064.63 44.0858M2047.06 37.2318H2100.98M2047.06 37.2318H1993.14M2083.08 30.6173L2065.79 24.23M2083.08 30.6173L2100.98 37.2318M2083.08 30.6173H2136.05M2065.79 24.23H2117.86M2065.79 24.23L2049.09 18.0591M1997.9 18.0591H1946.71M1997.9 18.0591H2049.09M1997.9 18.0591L1982.6 12.0924M2100.98 37.2318L2119.53 44.0858M2100.98 37.2318H2151.42M2136.05 30.6173L2117.86 24.23M2136.05 30.6173L2151.42 36.0114M2136.05 30.6173H2151.42M2117.86 24.23L2100.28 18.0591M2117.86 24.23H2151.42M2049.09 18.0591H2100.28M2049.09 18.0591L2032.94 12.0924M2100.28 18.0591L2083.28 12.0924M2100.28 18.0591H2151.42M2064.63 44.0858H2119.53M2064.63 44.0858H2009.73M2138.76 51.1922L2119.53 44.0858M2138.76 51.1922L2151.42 55.87M2138.76 51.1922H2151.42M2119.53 44.0858H2151.42M2009.73 44.0858H1954.84M2009.73 44.0858L1993.14 37.2318M1993.14 37.2318H1939.22M2121.38 66.221L2141.78 74.1762M2121.38 66.221H2063.34M2121.38 66.221H2151.42M2151.59 58.5655H2151.42M2141.78 74.1762H2082.6M2141.78 74.1762L2151.42 77.9359M2141.78 74.1762H2151.42M2082.6 74.1762H2023.42M2082.6 74.1762L2063.34 66.221M2063.34 66.221H2005.29M1831.38 37.2318L1845.05 44.0858M1831.38 37.2318H1885.3M1831.38 37.2318H1777.46M1871.17 30.6173L1857.52 24.23M1871.17 30.6173L1885.3 37.2318M1871.17 30.6173H1924.14M1857.52 24.23H1909.59M1857.52 24.23L1844.33 18.0591M1793.14 18.0591H1844.33M1793.14 18.0591L1781.25 12.0924M1793.14 18.0591H1741.95M1885.3 37.2318L1899.94 44.0858M1885.3 37.2318H1939.22M1924.14 30.6173L1909.59 24.23M1924.14 30.6173L1939.22 37.2318M1909.59 24.23L1895.52 18.0591M1844.33 18.0591H1895.52M1844.33 18.0591L1831.58 12.0924M1939.22 37.2318L1954.84 44.0858M1946.71 18.0591H1895.52M1946.71 18.0591L1932.26 12.0924M1895.52 18.0591L1881.92 12.0924M1845.05 44.0858H1899.94M1845.05 44.0858H1790.15M1915.13 51.1922L1899.94 44.0858M1915.13 51.1922L1930.88 58.5655M1915.13 51.1922H1971.03M1899.94 44.0858H1954.84M1790.15 44.0858H1735.25M1790.15 44.0858L1777.46 37.2318M1954.84 44.0858L1971.03 51.1922M1777.46 37.2318H1723.54M1930.88 58.5655L1947.24 66.221M1930.88 58.5655H1987.84M1971.03 51.1922L1987.84 58.5655M1987.84 58.5655L2005.29 66.221M1889.19 66.221L1905.05 74.1762M1889.19 66.221H1947.24M1889.19 66.221H1831.14M1947.24 66.221L1964.23 74.1762M1947.24 66.221H2005.29M2005.29 66.221L2023.42 74.1762M1905.05 74.1762H1964.23M1905.05 74.1762H1845.87M1981.91 82.4477L1964.23 74.1762M1981.91 82.4477L2000.3 91.0552M1981.91 82.4477H2042.27M1964.23 74.1762H2023.42M1845.87 74.1762H1786.69M1845.87 74.1762L1831.14 66.221M2023.42 74.1762L2042.27 82.4477M1831.14 66.221H1773.09M2000.3 91.0552L2019.45 100.02M2000.3 91.0552H2061.88M2042.27 82.4477L2061.88 91.0552M2061.88 91.0552L2082.31 100.02M1956.59 100.02L1975.22 109.364M1956.59 100.02H2019.45M1956.59 100.02H1893.72M2019.45 100.02L2039.42 109.364M2019.45 100.02H2082.31M2082.31 100.02L2103.61 109.364M2082.31 100.02H2145.18M2145.18 100.02H2151.42M2145.18 100.02L2151.42 102.597M1975.22 109.364H2039.42M1975.22 109.364H1911.03M2060.25 119.112L2039.42 109.364M2060.25 119.112L2081.99 129.291M2060.25 119.112H2125.83M2039.42 109.364H2103.61M1911.03 109.364H1846.83M1911.03 109.364L1893.72 100.02M2103.61 109.364L2125.83 119.112M2103.61 109.364H2151.42M1893.72 100.02H1830.86M2081.99 129.291L2104.73 139.931M2081.99 129.291H2149.03M2125.83 119.112L2149.03 129.291M2125.83 119.112H2151.42M2151.76 109.364H2151.42M2149.03 129.291L2151.42 130.341M2149.03 129.291H2151.42M2036.18 139.931L2058.38 151.063M2036.18 139.931H2104.73M2036.18 139.931H1967.63M2104.73 139.931L2128.51 151.063M2104.73 139.931H2151.42M2152 130.595L2151.42 130.341M2058.38 151.063H2128.51M2058.38 151.063H1988.24M2128.51 151.063H2151.42M2128.51 151.063L2151.42 161.785M1988.24 151.063H1918.11M1988.24 151.063L1967.63 139.931M1967.63 139.931H1899.08M2131.6 187.779H2056.23M2131.6 187.779L2151.42 197.719M2131.6 187.779H2151.42M2151.97 174.946H2151.42M2056.23 187.779H1980.87M2056.23 187.779L2081.21 201.265M2151.64 197.829L2151.42 197.719M1615.7 37.2318L1625.46 44.0858M1615.7 37.2318H1669.62M1615.7 37.2318H1561.78M1659.25 30.6173L1649.25 24.23M1659.25 30.6173L1669.62 37.2318M1659.25 30.6173H1712.23M1649.25 24.23H1701.31M1649.25 24.23L1639.58 18.0591M1588.39 18.0591H1639.58M1588.39 18.0591L1585.17 15.7983L1579.89 12.0924M1588.39 18.0591H1537.2M1669.62 37.2318L1680.36 44.0858M1669.62 37.2318H1723.54M1712.23 30.6173L1701.31 24.23M1712.23 30.6173L1723.54 37.2318M1701.31 24.23L1690.77 18.0591M1639.58 18.0591H1690.77M1639.58 18.0591L1630.23 12.0924M1723.54 37.2318L1735.25 44.0858M1741.95 18.0591L1730.91 12.0924M1741.95 18.0591H1690.77M1690.77 18.0591L1689.47 17.3015L1686.9 15.7983L1680.57 12.0924M1625.46 44.0858H1680.36M1625.46 44.0858H1570.57M1691.49 51.1922L1680.36 44.0858M1691.49 51.1922L1703.04 58.5655M1691.49 51.1922H1747.4M1680.36 44.0858H1735.25M1570.57 44.0858H1515.67M1570.57 44.0858L1561.78 37.2318M1735.25 44.0858L1747.4 51.1922M1561.78 37.2318H1507.86M1703.04 58.5655L1715.04 66.221M1703.04 58.5655H1760M1747.4 51.1922L1748.95 52.0981L1760 58.5655M1760 58.5655L1773.09 66.221M1656.99 66.221L1658.38 67.1993L1668.32 74.1762M1656.99 66.221H1715.04M1656.99 66.221H1598.94M1715.04 66.221L1727.5 74.1762M1715.04 66.221H1773.09M1773.09 66.221L1786.69 74.1762M1668.32 74.1762H1727.5M1668.32 74.1762H1609.14M1740.47 82.4477L1727.5 74.1762M1740.47 82.4477L1753.95 91.0552M1740.47 82.4477H1800.83M1727.5 74.1762H1786.69M1609.14 74.1762H1549.96M1609.14 74.1762L1598.94 66.221M1786.69 74.1762L1800.83 82.4477M1598.94 66.221H1540.89M1753.95 91.0552L1768 100.02M1753.95 91.0552H1815.54M1800.83 82.4477L1815.54 91.0552M1815.54 91.0552L1830.86 100.02M1705.14 100.02L1718.44 109.364M1705.14 100.02H1768M1705.14 100.02H1642.27M1768 100.02L1782.64 109.364M1768 100.02H1830.86M1830.86 100.02L1846.83 109.364M1718.44 109.364H1782.64M1718.44 109.364H1654.25M1797.91 119.112L1782.64 109.364M1797.91 119.112L1813.86 129.291M1797.91 119.112H1863.5M1782.64 109.364H1846.83M1654.25 109.364H1590.06M1654.25 109.364L1642.27 100.02M1846.83 109.364L1863.5 119.112M1642.27 100.02H1579.41M1813.86 129.291L1830.53 139.931M1813.86 129.291H1880.9M1863.5 119.112L1880.9 129.291M1880.9 129.291L1899.08 139.931M1761.98 139.931L1777.84 151.063M1761.98 139.931H1830.53M1761.98 139.931H1693.44M1830.53 139.931L1847.98 151.063M1830.53 139.931H1899.08M1899.08 139.931L1918.11 151.063M1777.84 151.063H1847.98M1777.84 151.063H1707.71M1866.24 162.722L1847.98 151.063M1866.24 162.722L1885.4 174.946M1866.24 162.722H1938.04M1847.98 151.063H1918.11M1707.71 151.063H1637.57M1707.71 151.063L1693.44 139.931M1918.11 151.063L1938.04 162.722M1693.44 139.931H1624.89M1885.4 174.946L1905.5 187.779M1885.4 174.946H1958.93M1938.04 162.722L1958.93 174.946M1958.93 174.946L1980.87 187.779M1830.14 187.779L1849.35 201.265M1830.14 187.779H1905.5M1830.14 187.779H1754.78M1905.5 187.779L1926.64 201.265M1905.5 187.779H1980.87M1980.87 187.779L2003.92 201.265M1849.35 201.265H1926.64M1849.35 201.265H1772.07M1948.87 215.457L1926.64 201.265M1948.87 215.457L1972.3 230.411M1948.87 215.457H2028.18M1926.64 201.265H2003.92M1772.07 201.265H1694.78M1772.07 201.265L1754.78 187.779M2003.92 201.265L2028.18 215.457M2003.92 201.265H2081.21M1754.78 187.779H1679.41M1972.3 230.411L1997.03 246.192M1972.3 230.411H2053.74M2028.18 215.457L2053.74 230.411M2081.21 201.265H2151.42M2053.74 230.411L2080.71 246.192M1913.35 246.192L1937.1 262.866M1913.35 246.192H1997.03M1913.35 246.192H1829.66M1997.03 246.192L2023.16 262.866M1997.03 246.192H2080.71M2080.71 246.192L2109.22 262.866M2080.71 246.192H2151.42M1937.1 262.866H2023.16M1937.1 262.866H1851.04M2050.81 280.517L2023.16 262.866M2050.81 280.517L2080.13 299.229M2050.81 280.517H2139.39M2023.16 262.866H2109.22M1851.04 262.866H1764.98M1851.04 262.866L1829.66 246.192M2109.22 262.866L2139.39 280.517M2109.22 262.866H2151.42M1829.66 246.192H1745.98M2080.13 299.229L2111.27 319.103M2080.13 299.229H2151.42M2139.39 280.517H2151.42M2139.39 280.517L2151.42 287.558M2017.2 319.103L2047.32 340.249M2017.2 319.103H2111.27M2017.2 319.103H1923.13M2111.27 319.103L2144.4 340.249M2111.27 319.103H2151.42M2047.32 340.249H2144.4M2047.32 340.249H1950.24M2144.4 340.249L2151.42 344.727M2144.4 340.249H2151.42M1950.24 340.249H1853.16M1950.24 340.249L1923.13 319.103M1923.13 319.103H1829.06M2150.49 412.675H2043.09M2150.49 412.675H2151.42M2150.49 412.675L2151.42 413.33M2043.09 412.675H1935.69M2043.09 412.675L2078.59 440.364M1400.02 37.2318L1402.19 39.7727L1402.92 40.6281L1405.88 44.0858M1400.02 37.2318H1453.94M1400.02 37.2318H1346.1M1447.34 30.6173L1442.55 25.8068L1440.98 24.23M1447.34 30.6173L1453.1 36.3919L1453.94 37.2318M1447.34 30.6173H1500.32M1440.98 24.23H1493.04M1440.98 24.23L1434.82 18.0591M1383.63 18.0591H1434.82M1383.63 18.0591L1381.7 15.7983L1378.53 12.0924M1383.63 18.0591H1332.44M1453.94 37.2318L1455.62 38.9217L1460.77 44.0858M1453.94 37.2318H1507.86M1500.32 30.6173L1493.04 24.23M1500.32 30.6173L1507.86 37.2318M1493.04 24.23L1487.75 19.5821L1486.01 18.0591M1434.82 18.0591H1486.01M1434.82 18.0591L1428.87 12.0924M1507.86 37.2318L1515.67 44.0858M1537.2 18.0591L1536.23 17.3015L1529.55 12.0924M1537.2 18.0591H1486.01M1486.01 18.0591L1483.43 15.7983L1479.21 12.0924M1405.88 44.0858H1460.77M1405.88 44.0858H1350.98M1467.86 51.1922L1460.77 44.0858M1467.86 51.1922L1475.21 58.5655M1467.86 51.1922H1523.77M1460.77 44.0858H1515.67M1350.98 44.0858H1296.08M1350.98 44.0858L1346.1 37.2318M1515.67 44.0858L1523.77 51.1922M1346.1 37.2318H1292.18M1475.21 58.5655L1479.95 63.3167L1480.91 64.2797L1482.84 66.221M1475.21 58.5655H1532.17M1523.77 51.1922L1532.17 58.5655M1532.17 58.5655L1540.89 66.221M1424.79 66.221L1431.59 74.1762M1424.79 66.221H1482.84M1424.79 66.221H1366.75M1482.84 66.221L1490.78 74.1762M1482.84 66.221H1540.89M1540.89 66.221L1549.96 74.1762M1431.59 74.1762H1490.78M1431.59 74.1762H1372.41M1499.02 82.4477L1493.83 77.2397L1492.81 76.2131L1490.78 74.1762M1499.02 82.4477L1507.61 91.0552M1499.02 82.4477H1559.38M1490.78 74.1762H1549.96M1372.41 74.1762H1313.23M1372.41 74.1762L1366.75 66.221M1549.96 74.1762L1559.38 82.4477M1366.75 66.221H1308.7M1507.61 91.0552L1516.54 100.02M1507.61 91.0552H1569.19M1559.38 82.4477L1569.19 91.0552M1569.19 91.0552L1579.41 100.02M1453.68 100.02L1457.63 104.642L1458.63 105.814L1461.67 109.364M1453.68 100.02H1516.54M1453.68 100.02H1390.82M1516.54 100.02L1525.86 109.364M1516.54 100.02H1579.41M1579.41 100.02L1590.06 109.364M1461.67 109.364H1525.86M1461.67 109.364H1397.47M1535.58 119.112L1525.86 109.364M1535.58 119.112L1545.73 129.291M1535.58 119.112H1601.16M1525.86 109.364H1590.06M1397.47 109.364H1333.28M1397.47 109.364L1395.78 106.991L1390.82 100.02M1590.06 109.364L1601.16 119.112M1390.82 100.02H1327.95M1545.73 129.291L1556.34 139.931M1545.73 129.291H1612.76M1601.16 119.112L1612.76 129.291M1612.76 129.291L1624.89 139.931M1487.79 139.931L1497.3 151.063M1487.79 139.931H1556.34M1487.79 139.931H1419.24M1556.34 139.931L1567.44 151.063M1556.34 139.931H1624.89M1624.89 139.931L1637.57 151.063M1497.3 151.063H1567.44M1497.3 151.063H1427.17M1579.06 162.722L1567.44 151.063M1579.06 162.722L1591.25 174.946M1579.06 162.722H1650.86M1567.44 151.063H1637.57M1427.17 151.063H1357.04M1427.17 151.063L1419.24 139.931M1637.57 151.063L1650.86 162.722M1419.24 139.931H1350.69M1591.25 174.946L1604.05 187.779M1591.25 174.946H1664.79M1650.86 162.722L1664.79 174.946M1664.79 174.946L1679.41 187.779M1528.68 187.779L1540.21 201.265M1528.68 187.779H1604.05M1528.68 187.779H1453.32M1604.05 187.779L1617.5 201.265M1604.05 187.779H1679.41M1679.41 187.779L1694.78 201.265M1540.21 201.265H1617.5M1540.21 201.265H1462.93M1631.65 215.457L1617.5 201.265M1631.65 215.457L1646.56 230.411M1631.65 215.457H1710.95M1617.5 201.265H1694.78M1462.93 201.265H1385.64M1462.93 201.265L1453.32 187.779M1694.78 201.265L1710.95 215.457M1453.32 187.779H1377.96M1646.56 230.411L1662.29 246.192M1646.56 230.411H1727.99M1710.95 215.457L1727.99 230.411M1727.99 230.411L1745.98 246.192M1578.61 246.192L1592.86 262.866M1578.61 246.192H1662.29M1578.61 246.192H1494.92M1662.29 246.192L1678.92 262.866M1662.29 246.192H1745.98M1745.98 246.192L1764.98 262.866M1592.86 262.866H1678.92M1592.86 262.866H1506.8M1696.52 280.517L1678.92 262.866M1696.52 280.517L1715.18 299.229M1696.52 280.517H1785.09M1678.92 262.866H1764.98M1506.8 262.866H1420.74M1506.8 262.866L1494.92 246.192M1764.98 262.866L1785.09 280.517M1494.92 246.192H1411.24M1715.18 299.229L1734.99 319.103M1715.18 299.229H1806.41M1785.09 280.517L1806.41 299.229M1806.41 299.229L1829.06 319.103M1640.92 319.103L1658.99 340.249M1640.92 319.103H1734.99M1640.92 319.103H1546.85M1734.99 319.103L1756.08 340.249M1734.99 319.103H1829.06M1829.06 319.103L1853.16 340.249M1658.99 340.249H1756.08M1658.99 340.249H1561.91M1778.55 362.794L1756.08 340.249M1778.55 362.794L1802.57 386.881M1778.55 362.794H1878.85M1756.08 340.249H1853.16M1561.91 340.249H1464.83M1561.91 340.249L1546.85 319.103M1853.16 340.249L1878.85 362.794M1546.85 319.103H1452.78M1802.57 386.881L1828.29 412.675M1802.57 386.881H1906.3M1878.85 362.794L1906.3 386.881M1906.3 386.881L1935.69 412.675M1720.89 412.675L1744.56 440.364M1720.89 412.675H1828.29M1720.89 412.675H1613.49M1828.29 412.675L1855.9 440.364M1828.29 412.675H1935.69M1935.69 412.675L1967.24 440.364M1744.56 440.364H1855.9M1744.56 440.364H1633.21M1885.61 470.164L1855.9 440.364M1885.61 470.164L1917.68 502.326M1885.61 470.164H2001.2M1855.9 440.364H1967.24M1633.21 440.364H1521.87M1633.21 440.364L1613.49 412.675M1967.24 440.364L2001.2 470.164M1967.24 440.364H2078.59M1613.49 412.675H1506.1M1917.68 502.326L1952.4 537.143M1917.68 502.326H2037.85M2001.2 470.164L2037.85 502.326M2078.59 440.364H2151.42M2037.85 502.326L2077.53 537.143M2037.85 502.326H2151.42M1827.27 537.143L1859.59 574.957M1827.27 537.143H1952.4M1827.27 537.143H1702.14M1952.4 537.143L1990.1 574.957M1952.4 537.143H2077.53M2077.53 537.143L2120.62 574.957M2077.53 537.143H2151.42M1859.59 574.957H1990.1M1859.59 574.957H1729.07M2031.2 616.173L1990.1 574.957M2031.2 616.173L2076.17 661.271M2031.2 616.173H2151.42M1990.1 574.957H2120.62M1729.07 574.957H1598.56M1729.07 574.957L1702.14 537.143M2120.62 574.957H2151.42M2120.62 574.957L2151.42 601.99M1702.14 537.143H1577.01M2076.17 661.271L2125.58 710.828M2076.17 661.271H2151.42M1975.71 710.828L2022.47 765.54M1975.71 710.828H2125.58M1975.71 710.828H1825.84M2125.58 710.828L2151.42 736.747M2125.58 710.828H2151.42M2022.47 765.54H1864.81M2022.47 765.54L2151.42 765.539M1864.81 765.54H1707.15M1864.81 765.54L1825.84 710.828M1825.84 710.828H1675.97M1184.34 37.2318L1184.58 38.0751L1184.82 38.9217L1185.06 39.7727L1185.31 40.6281L1186.04 43.215L1186.29 44.0858M1184.34 37.2318H1238.26M1184.34 37.2318H1130.42M1235.43 30.6173L1233.38 25.8068L1232.7 24.23M1235.43 30.6173L1237.19 34.7239L1238.26 37.2318M1235.43 30.6173H1288.41M1232.7 24.23H1284.77M1232.7 24.23L1230.72 19.5821L1230.07 18.0591M1178.88 18.0591L1178.66 17.3015L1177.81 14.306L1177.18 12.0924M1178.88 18.0591H1230.07M1178.88 18.0591H1127.69M1238.26 37.2318L1238.62 38.0751L1238.98 38.9217L1239.34 39.7727L1239.71 40.6281L1241.19 44.0858M1238.26 37.2318H1292.18M1288.41 30.6173L1285.67 25.8068L1284.77 24.23M1288.41 30.6173L1292.18 37.2318M1284.77 24.23L1283 21.1182L1281.69 18.819L1281.26 18.0591M1230.07 18.0591L1229.74 17.3015L1229.1 15.7983L1228.46 14.306L1228.15 13.5649L1227.52 12.0924M1230.07 18.0591H1281.26M1292.18 37.2318L1295.1 42.3487L1296.08 44.0858M1332.44 18.0591L1329.24 13.5649L1328.19 12.0924M1332.44 18.0591H1281.26M1281.26 18.0591L1278.27 12.827L1277.86 12.0924M1186.29 44.0858H1241.19M1186.29 44.0858H1131.4M1244.22 51.1922L1241.19 44.0858M1244.22 51.1922L1247.38 58.5655M1244.22 51.1922H1300.13M1241.19 44.0858H1296.08M1131.4 44.0858H1076.5M1131.4 44.0858L1130.42 37.2318M1296.08 44.0858L1300.13 51.1922M1130.42 37.2318H1076.5M1247.38 58.5655L1248.18 60.4519L1249.41 63.3167L1250.65 66.221M1247.38 58.5655H1304.34M1300.13 51.1922L1300.65 52.0981L1304.34 58.5655M1304.34 58.5655L1304.87 59.5065L1305.41 60.4519L1305.95 61.4028L1308.7 66.221M1192.6 66.221L1194.86 74.1762M1192.6 66.221H1250.65M1192.6 66.221H1134.55M1250.65 66.221L1254.05 74.1762M1250.65 66.221H1308.7M1308.7 66.221L1312.08 72.1581L1312.65 73.1649L1313.23 74.1762M1194.86 74.1762H1254.05M1194.86 74.1762H1135.68M1257.58 82.4477L1258.03 83.5051L1258.49 84.5669L1258.94 85.6353L1261.26 91.0552M1257.58 82.4477L1255.8 78.2708L1255.36 77.2397L1254.92 76.2131L1254.05 74.1762M1257.58 82.4477H1317.94M1254.05 74.1762H1313.23M1135.68 74.1762H1076.5M1135.68 74.1762L1134.55 66.221M1313.23 74.1762L1317.94 82.4477M1134.55 66.221H1076.5M1261.26 91.0552L1264.6 98.8787L1265.09 100.02M1261.26 91.0552H1322.85M1317.94 82.4477L1319.15 84.5669L1322.85 91.0552M1322.85 91.0552L1324.74 94.3734L1327.95 100.02M1202.23 100.02L1203.54 104.642L1203.88 105.814L1204.89 109.364M1202.23 100.02H1265.09M1202.23 100.02H1139.36M1265.09 100.02L1269.08 109.364M1265.09 100.02H1327.95M1327.95 100.02L1333.28 109.364M1204.89 109.364H1269.08M1204.89 109.364H1140.69M1273.25 119.112L1269.08 109.364M1273.25 119.112L1277.6 129.291M1273.25 119.112H1338.83M1269.08 109.364H1333.28M1140.69 109.364H1076.5M1140.69 109.364L1140.36 106.991L1139.69 102.319L1139.36 100.02M1333.28 109.364L1338.83 119.112M1139.36 100.02H1076.5M1277.6 129.291L1280.99 137.226L1282.15 139.931M1277.6 129.291H1344.63M1338.83 119.112L1344.63 129.291M1344.63 129.291L1347.63 134.552L1350.69 139.931M1213.6 139.931L1216.77 151.063M1213.6 139.931H1282.15M1213.6 139.931H1145.05M1282.15 139.931L1286.9 151.063M1282.15 139.931H1350.69M1350.69 139.931L1357.04 151.063M1216.77 151.063H1286.9M1216.77 151.063H1146.63M1291.89 162.722L1290.62 159.756L1286.9 151.063M1291.89 162.722L1297.11 174.946M1291.89 162.722H1363.68M1286.9 151.063H1357.04M1146.63 151.063H1076.5M1146.63 151.063L1145.05 139.931M1357.04 151.063L1363.68 162.722M1145.05 139.931H1076.5M1297.11 174.946L1302.59 187.779M1297.11 174.946H1370.64M1363.68 162.722L1370.64 174.946M1370.64 174.946L1377.96 187.779M1227.23 187.779L1231.07 201.265M1227.23 187.779H1302.59M1227.23 187.779H1151.86M1302.59 187.779L1308.35 201.265M1302.59 187.779H1377.96M1377.96 187.779L1385.64 201.265M1231.07 201.265H1308.35M1231.07 201.265H1153.78M1314.42 215.457L1308.35 201.265M1314.42 215.457L1320.81 230.411M1314.42 215.457H1393.73M1308.35 201.265H1385.64M1153.78 201.265H1076.5M1153.78 201.265L1152.1 189.428L1151.86 187.779M1385.64 201.265L1393.73 215.457M1151.86 187.779H1076.5M1320.81 230.411L1327.55 246.192M1320.81 230.411H1402.25M1393.73 215.457L1400.07 226.598L1402.25 230.411M1402.25 230.411L1411.24 246.192M1243.87 246.192L1248.62 262.866M1243.87 246.192H1327.55M1243.87 246.192H1160.18M1327.55 246.192L1334.68 262.866M1327.55 246.192H1411.24M1411.24 246.192L1420.74 262.866M1248.62 262.866H1334.68M1248.62 262.866H1162.56M1342.22 280.517L1334.68 262.866M1342.22 280.517L1350.22 299.229M1342.22 280.517H1430.8M1334.68 262.866H1420.74M1162.56 262.866H1076.5M1162.56 262.866L1160.18 246.192M1420.74 262.866L1430.8 280.517M1160.18 246.192H1076.5M1350.22 299.229L1358.71 319.103M1350.22 299.229H1441.46M1430.8 280.517L1441.46 299.229M1441.46 299.229L1452.78 319.103M1264.64 319.103L1270.66 340.249M1264.64 319.103H1358.71M1264.64 319.103H1170.57M1358.71 319.103L1367.75 340.249M1358.71 319.103H1452.78M1452.78 319.103L1464.83 340.249M1270.66 340.249H1367.75M1270.66 340.249H1173.58M1377.38 362.794L1367.75 340.249M1377.38 362.794L1387.67 386.881M1377.38 362.794H1477.67M1367.75 340.249H1464.83M1173.58 340.249H1076.5M1173.58 340.249L1170.57 319.103M1464.83 340.249L1477.67 362.794M1170.57 319.103H1076.5M1387.67 386.881L1398.7 412.675M1387.67 386.881H1491.4M1477.67 362.794L1491.4 386.881M1491.4 386.881L1506.1 412.675M1291.3 412.675L1299.19 440.364M1291.3 412.675H1398.7M1291.3 412.675H1183.9M1398.7 412.675L1410.53 440.364M1398.7 412.675H1506.1M1506.1 412.675L1521.87 440.364M1299.19 440.364H1410.53M1299.19 440.364H1187.84M1423.26 470.164L1410.53 440.364M1423.26 470.164L1437.01 502.326M1423.26 470.164H1538.85M1410.53 440.364H1521.87M1187.84 440.364H1076.5M1187.84 440.364L1183.9 412.675M1521.87 440.364L1538.85 470.164M1183.9 412.675H1076.5M1437.01 502.326L1451.88 537.143M1437.01 502.326H1557.18M1538.85 470.164L1557.18 502.326M1557.18 502.326L1577.01 537.143M1326.76 537.143L1337.53 574.957M1326.76 537.143H1451.88M1326.76 537.143H1201.63M1451.88 537.143L1468.04 574.957M1451.88 537.143H1577.01M1577.01 537.143L1598.56 574.957M1337.53 574.957H1468.04M1337.53 574.957H1207.01M1485.66 616.173L1468.04 574.957M1485.66 616.173L1504.93 661.271M1485.66 616.173H1622.04M1468.04 574.957H1598.56M1207.01 574.957H1076.5M1207.01 574.957L1201.63 537.143M1598.56 574.957L1622.04 616.173M1201.63 537.143H1076.5M1504.93 661.271L1526.1 710.828M1504.93 661.271H1647.74M1622.04 616.173L1647.74 661.271M1647.74 661.271L1675.97 710.828M1376.24 710.828L1391.82 765.54M1376.24 710.828H1526.1M1376.24 710.828H1226.37M1526.1 710.828L1549.48 765.54M1526.1 710.828H1675.97M1675.97 710.828L1707.15 765.54M1549.48 765.54H1391.82M1549.48 765.54H1707.15M1391.82 765.54H1234.16M1234.16 765.54H1076.5M1234.16 765.54L1226.37 710.828M1226.37 710.828H1076.5M968.661 37.2318L968.42 38.0751L968.179 38.9217L967.936 39.7727L967.693 40.6281L967.203 42.3487L966.955 43.215L966.708 44.0858M968.661 37.2318H1022.58M968.661 37.2318H914.74M1023.52 30.6173L1024.43 24.23M1023.52 30.6173L1022.58 37.2318M1023.52 30.6173H1076.5M1024.43 24.23L1024.54 23.4472L1024.66 22.6675L1024.76 21.8912L1025.31 18.0591M1024.43 24.23H1076.5M974.123 18.0591L974.338 17.3015L975.191 14.306L975.822 12.0924M974.123 18.0591H1025.31M974.123 18.0591H922.934M1022.58 37.2318L1022.46 38.0751L1022.34 38.9217L1022.22 39.7727L1021.6 44.0858M1022.58 37.2318H1076.5M1076.5 30.6173V24.23M1076.5 30.6173V37.2318M1076.5 24.23V18.0591M1025.31 18.0591H1076.5M1025.31 18.0591L1025.63 15.7983L1025.74 15.0505L1026.16 12.0924M1076.5 37.2318V44.0858M1127.69 18.0591L1127.37 15.7983L1127.26 15.0505L1127.15 14.306L1127.05 13.5649L1126.94 12.827L1126.84 12.0924M1127.69 18.0591H1076.5M1076.5 18.0591V12.0924M966.708 44.0858H1021.6M966.708 44.0858H911.812M1020.59 51.1922L1020.46 52.0981L1020.33 53.0095L1019.54 58.5655M1020.59 51.1922L1021.6 44.0858M1020.59 51.1922H1076.5M1021.6 44.0858H1076.5M911.812 44.0858H856.916M911.812 44.0858L912.553 42.3487L912.923 41.4867L913.289 40.6281L913.655 39.7727L914.018 38.9217L914.381 38.0751L914.74 37.2318M1076.5 44.0858V51.1922M914.74 37.2318H860.821M1019.54 58.5655L1018.45 66.221M1019.54 58.5655H1076.5M1076.5 51.1922V58.5655M1076.5 58.5655V66.221M960.402 66.221L958.136 74.1762M960.402 66.221H1018.45M960.402 66.221H902.353M1018.45 66.221L1017.32 74.1762M1018.45 66.221H1076.5M1076.5 66.221V74.1762M958.136 74.1762H1017.32M958.136 74.1762H898.953M1016.14 82.4477L1017.32 74.1762M1016.14 82.4477L1014.91 91.0552M1016.14 82.4477H1076.5M1017.32 74.1762H1076.5M898.953 74.1762H839.771M898.953 74.1762L902.353 66.221M1076.5 74.1762V82.4477M902.353 66.221H844.304M1014.91 91.0552L1014.44 94.3734L1013.96 97.7433L1013.64 100.02M1014.91 91.0552H1076.5M1076.5 82.4477V91.0552M1076.5 91.0552V100.02M950.773 100.02L949.456 104.642L949.123 105.814L948.111 109.364M950.773 100.02H1013.64M950.773 100.02H887.91M1013.64 100.02L1013.31 102.319L1012.64 106.991L1012.31 109.364M1013.64 100.02H1076.5M1076.5 100.02V109.364M948.111 109.364H1012.31M948.111 109.364H883.917M1010.92 119.112L1011.09 117.87L1012.31 109.364M1010.92 119.112L1009.47 129.291M1010.92 119.112H1076.5M1012.31 109.364H1076.5M883.917 109.364H819.723M883.917 109.364L887.91 100.02M1076.5 109.364V119.112M887.91 100.02H825.046M1009.47 129.291L1007.95 139.931M1009.47 129.291H1076.5M1076.5 119.112V129.291M1076.5 129.291V139.931M939.403 139.931L936.232 151.063M939.403 139.931H1007.95M939.403 139.931H870.854M1007.95 139.931L1006.37 151.063M1007.95 139.931H1076.5M1076.5 139.931V151.063M936.232 151.063H1006.37M936.232 151.063H866.098M1004.71 162.722L1006.37 151.063M1004.71 162.722L1002.96 174.946M1004.71 162.722H1076.5M1006.37 151.063H1076.5M866.098 151.063H795.964M866.098 151.063L870.854 139.931M1076.5 151.063V162.722M870.854 139.931H802.306M1002.96 174.946L1001.14 187.779M1002.96 174.946H1076.5M1076.5 162.722V174.946M1076.5 174.946V187.779M925.771 187.779L921.93 201.265M925.771 187.779H1001.14M925.771 187.779H850.408M1001.14 187.779L999.215 201.265M1001.14 187.779H1076.5M1076.5 187.779V201.265M921.93 201.265H999.215M921.93 201.265H844.645M997.193 215.457L999.215 201.265M997.193 215.457L995.064 230.411M997.193 215.457H1076.5M999.215 201.265H1076.5M844.645 201.265H767.359M844.645 201.265L850.408 187.779M1076.5 201.265V215.457M850.408 187.779H775.044M995.064 230.411L992.815 246.192M995.064 230.411H1076.5M1076.5 215.457V230.411M1076.5 230.411V246.192M909.131 246.192L904.381 262.866M909.131 246.192H992.815M909.131 246.192H825.447M992.815 246.192L990.44 262.866M992.815 246.192H1076.5M1076.5 246.192V262.866M904.381 262.866H990.44M904.381 262.866H818.321M987.927 280.517L990.44 262.866M987.927 280.517L985.261 299.229M987.927 280.517H1076.5M990.44 262.866H1076.5M818.321 262.866H732.261M818.321 262.866L825.447 246.192M1076.5 262.866V280.517M825.447 246.192H741.762M985.261 299.229L982.43 319.103M985.261 299.229H1076.5M1076.5 280.517V299.229M1076.5 299.229V319.103M888.36 319.103L882.336 340.249M888.36 319.103H982.43M888.36 319.103H794.29M982.43 319.103L979.418 340.249M982.43 319.103H1076.5M1076.5 319.103V340.249M882.336 340.249H979.418M882.336 340.249H785.254M976.207 362.794L979.418 340.249M976.207 362.794L972.776 386.881M976.207 362.794H1076.5M979.418 340.249H1076.5M785.254 340.249H688.171M785.254 340.249L794.29 319.103M1076.5 340.249V362.794M794.29 319.103H700.219M972.776 386.881L969.101 412.675M972.776 386.881H1076.5M1076.5 362.794V386.881M1076.5 386.881V412.675M861.703 412.675L853.814 440.364M861.703 412.675H969.101M861.703 412.675H754.304M969.101 412.675L965.157 440.364M969.101 412.675H1076.5M1076.5 412.675V440.364M853.814 440.364H965.157M853.814 440.364H742.472M960.912 470.164L965.157 440.364M960.912 470.164L956.332 502.326M960.912 470.164H1076.5M965.157 440.364H1076.5M742.472 440.364H631.129M742.472 440.364L754.304 412.675M1076.5 440.364V470.164M754.304 412.675H646.904M956.332 502.326L951.371 537.143M956.332 502.326H1076.5M1076.5 470.164V502.326M1076.5 502.326V537.143M826.244 537.143L815.471 574.957M826.244 537.143H951.371M826.244 537.143H701.115M951.371 537.143L945.986 574.957M951.371 537.143H1076.5M1076.5 537.143V574.957M815.471 574.957H945.986M815.471 574.957H684.957M940.115 616.173L945.986 574.957M940.115 616.173L933.691 661.271M940.115 616.173H1076.5M945.986 574.957H1076.5M684.957 574.957H554.442M684.957 574.957L701.115 537.143M1076.5 574.957V616.173M701.115 537.143H575.988M933.691 661.271L926.631 710.828M933.691 661.271H1076.5M1076.5 616.173V661.271M1076.5 661.271V710.828M776.764 710.828L761.177 765.54M776.764 710.828H926.631M776.764 710.828H626.895M926.631 710.828L918.838 765.54M926.631 710.828H1076.5M1076.5 710.828V765.54M918.838 765.54H761.177M918.838 765.54H1076.5M761.177 765.54H603.516M603.516 765.54H445.854M603.516 765.54L626.895 710.828M626.895 710.828H477.027M752.981 37.2318L750.079 40.6281L747.124 44.0858M752.981 37.2318H806.901M752.981 37.2318H699.062M811.612 30.6173L816.161 24.23M811.612 30.6173L806.901 37.2318M811.612 30.6173H864.589M816.161 24.23H868.228M816.161 24.23L819.471 19.5821L820.556 18.0591M769.367 18.0591H820.556M769.367 18.0591L771.3 15.7983L774.466 12.0924M769.367 18.0591H718.178M806.901 37.2318L802.02 44.0858M806.901 37.2318H860.821M864.589 30.6173L868.228 24.23M864.589 30.6173L860.821 37.2318M868.228 24.23L870.002 21.1182L871.312 18.819L871.744 18.0591M820.556 18.0591H871.744M820.556 18.0591L823.756 13.5649L824.805 12.0924M860.821 37.2318L857.905 42.3487L856.916 44.0858M922.934 18.0591L923.257 17.3015L923.899 15.7983L924.853 13.5649L925.484 12.0924M922.934 18.0591H871.744M871.744 18.0591L872.175 17.3015L873.033 15.7983L875.144 12.0924M747.124 44.0858H802.02M747.124 44.0858H692.227M796.958 51.1922L797.602 50.2896L798.241 49.3903L800.772 45.8371L802.02 44.0858M796.958 51.1922L793.038 56.6956L791.706 58.5655M796.958 51.1922H852.867M802.02 44.0858H856.916M692.227 44.0858H637.331M692.227 44.0858L697.375 38.9217L699.062 37.2318M856.916 44.0858L852.867 51.1922M699.062 37.2318H645.141M791.706 58.5655L791.037 59.5065L790.363 60.4519L788.324 63.3167L787.636 64.2797L786.255 66.221M791.706 58.5655H848.665M852.867 51.1922L852.35 52.0981L848.665 58.5655M848.665 58.5655L848.13 59.5065L847.59 60.4519L847.049 61.4028L844.304 66.221M728.205 66.221L721.407 74.1762M728.205 66.221H786.255M728.205 66.221H670.156M786.255 66.221L780.589 74.1762M786.255 66.221H844.304M844.304 66.221L839.771 74.1762M721.407 74.1762H780.589M721.407 74.1762H662.224M774.698 82.4477L780.589 74.1762M774.698 82.4477L768.568 91.0552M774.698 82.4477H835.058M780.589 74.1762H839.771M662.224 74.1762H603.042M662.224 74.1762L670.156 66.221M839.771 74.1762L835.058 82.4477M670.156 66.221H612.106M768.568 91.0552L762.183 100.02M768.568 91.0552H830.154M835.058 82.4477L833.85 84.5669L830.154 91.0552M830.154 91.0552L828.263 94.3734L826.342 97.7433L825.046 100.02M699.319 100.02L695.368 104.642L691.333 109.364M699.319 100.02H762.183M699.319 100.02H636.455M762.183 100.02L755.527 109.364M762.183 100.02H825.046M825.046 100.02L819.723 109.364M691.333 109.364H755.527M691.333 109.364H627.139M748.585 119.112L755.527 109.364M748.585 119.112L741.335 129.291M748.585 119.112H814.168M755.527 109.364H819.723M627.139 109.364H562.944M627.139 109.364L636.455 100.02M819.723 109.364L814.168 119.112M636.455 100.02H573.593M741.335 129.291L739.472 131.906L733.758 139.931M741.335 129.291H808.368M814.168 119.112L808.368 129.291M808.368 129.291L807.625 130.595L805.371 134.552L802.306 139.931M665.209 139.931L655.695 151.063M665.209 139.931H733.758M665.209 139.931H596.661M733.758 139.931L725.829 151.063M733.758 139.931H802.306M802.306 139.931L795.964 151.063M655.695 151.063H725.829M655.695 151.063H585.561M717.526 162.722L722.761 155.371L725.829 151.063M717.526 162.722L708.819 174.946M717.526 162.722H789.32M725.829 151.063H795.964M585.561 151.063H515.427M585.561 151.063L596.661 139.931M795.964 151.063L789.32 162.722M596.661 139.931H528.112M708.819 174.946L699.68 187.779M708.819 174.946H782.356M789.32 162.722L782.356 174.946M782.356 174.946L775.044 187.779M624.315 187.779L612.789 201.265M624.315 187.779H699.68M624.315 187.779H548.952M699.68 187.779L690.075 201.265M699.68 187.779H775.044M775.044 187.779L767.359 201.265M612.789 201.265H690.075M612.789 201.265H535.504M679.967 215.457L690.075 201.265M679.967 215.457L669.317 230.411M679.967 215.457H759.274M690.075 201.265H767.359M535.504 201.265H458.22M535.504 201.265L548.952 187.779M767.359 201.265L759.274 215.457M548.952 187.779H473.588M669.317 230.411L658.078 246.192M669.317 230.411H750.753M759.274 215.457L750.753 230.411M750.753 230.411L741.762 246.192M574.393 246.192L560.141 262.866M574.393 246.192H658.078M574.393 246.192H490.708M658.078 246.192L646.201 262.866M658.078 246.192H741.762M741.762 246.192L732.261 262.866M560.141 262.866H646.201M560.141 262.866H474.082M633.63 280.517L646.201 262.866M633.63 280.517L620.304 299.229M633.63 280.517H722.205M646.201 262.866H732.261M474.082 262.866H388.022M474.082 262.866L490.708 246.192M732.261 262.866L722.205 280.517M490.708 246.192H407.025M620.304 299.229L606.149 319.103M620.304 299.229H711.543M722.205 280.517L711.543 299.229M711.543 299.229L700.219 319.103M512.079 319.103L494.007 340.249M512.079 319.103H606.149M512.079 319.103H418.009M606.149 319.103L591.089 340.249M606.149 319.103H700.219M700.219 319.103L688.171 340.249M494.007 340.249H591.089M494.007 340.249H396.925M575.032 362.794L591.089 340.249M575.032 362.794L557.876 386.881M575.032 362.794H675.326M591.089 340.249H688.171M396.925 340.249H299.843M396.925 340.249L418.009 319.103M688.171 340.249L675.326 362.794M418.009 319.103H323.939M557.876 386.881L539.506 412.675M557.876 386.881H661.602M675.326 362.794L661.602 386.881M661.602 386.881L646.904 412.675M432.107 412.675L408.443 440.364M432.107 412.675H539.506M432.107 412.675H324.708M539.506 412.675L519.786 440.364M539.506 412.675H646.904M646.904 412.675L631.129 440.364M408.443 440.364H519.786M408.443 440.364H297.1M498.562 470.164L519.786 440.364M498.562 470.164L475.656 502.326M498.562 470.164H614.15M519.786 440.364H631.129M297.1 440.364H185.758M297.1 440.364L324.708 412.675M631.129 440.364L614.15 470.164M324.708 412.675H217.309M475.656 502.326L450.859 537.143M475.656 502.326H595.824M614.15 470.164L595.824 502.326M595.824 502.326L575.988 537.143M325.731 537.143L293.413 574.957M325.731 537.143H450.859M325.731 537.143H200.603M450.859 537.143L423.928 574.957M450.859 537.143H575.988M575.988 537.143L554.442 574.957M293.413 574.957H423.928M293.413 574.957H162.899M394.573 616.173L423.928 574.957M394.573 616.173L362.453 661.271M394.573 616.173H530.958M423.928 574.957H554.442M162.899 574.957H32.3843M162.899 574.957L200.603 537.143M554.442 574.957L530.958 616.173M200.603 537.143H75.4752M362.453 661.271L327.159 710.828M362.453 661.271H505.263M530.958 616.173L505.263 661.271M505.263 661.271L477.027 710.828M177.29 710.828L130.531 765.54M177.29 710.828H327.159M177.29 710.828H27.4218M327.159 710.828L288.193 765.54M327.159 710.828H477.027M477.027 710.828L445.854 765.54M288.193 765.54H130.531M288.193 765.54H445.854M130.531 765.54L1.5789 765.539M27.4218 710.828L1.5789 736.747M27.4218 710.828H1.5789M537.302 37.2318L527.539 44.0858M537.302 37.2318H591.221M537.302 37.2318H483.382M599.701 30.6173L607.889 24.23M599.701 30.6173L591.221 37.2318M599.701 30.6173H652.679M607.889 24.23H659.957M607.889 24.23L615.801 18.0591M564.611 18.0591H615.801M564.611 18.0591L567.833 15.7983L573.111 12.0924M564.611 18.0591H513.423M591.221 37.2318L582.435 44.0858M591.221 37.2318H645.141M652.679 30.6173L659.957 24.23M652.679 30.6173L645.141 37.2318M659.957 24.23L665.254 19.5821L666.99 18.0591M615.801 18.0591L616.771 17.3015L623.45 12.0924M615.801 18.0591H666.99M645.141 37.2318L637.331 44.0858M718.178 18.0591L724.127 12.0924M718.178 18.0591H666.99M666.99 18.0591L669.566 15.7983L673.789 12.0924M527.539 44.0858H582.435M527.539 44.0858H472.643M573.325 51.1922L582.435 44.0858M573.325 51.1922L563.872 58.5655M573.325 51.1922H629.233M582.435 44.0858H637.331M472.643 44.0858H417.747M472.643 44.0858L483.382 37.2318M637.331 44.0858L629.233 51.1922M483.382 37.2318H429.462M563.872 58.5655L561.453 60.4519L554.057 66.221M563.872 58.5655H620.831M629.233 51.1922L620.831 58.5655M620.831 58.5655L612.106 66.221M496.008 66.221L494.616 67.1993L484.678 74.1762M496.008 66.221H554.057M496.008 66.221H437.959M554.057 66.221L543.86 74.1762M554.057 66.221H612.106M612.106 66.221L610.993 67.1993L603.042 74.1762M484.678 74.1762H543.86M484.678 74.1762H425.495M533.256 82.4477L543.86 74.1762M533.256 82.4477L522.221 91.0552M533.256 82.4477H593.616M543.86 74.1762H603.042M425.495 74.1762H366.313M425.495 74.1762L437.959 66.221M603.042 74.1762L593.616 82.4477M437.959 66.221H379.91M522.221 91.0552L510.729 100.02M522.221 91.0552H583.808M593.616 82.4477L583.808 91.0552M583.808 91.0552L573.593 100.02M447.866 100.02L434.556 109.364M447.866 100.02H510.729M447.866 100.02H385.002M510.729 100.02L498.75 109.364M510.729 100.02H573.593M573.593 100.02L562.944 109.364M434.556 109.364H498.75M434.556 109.364H370.361M486.253 119.112L498.75 109.364M486.253 119.112L473.203 129.291M486.253 119.112H551.835M498.75 109.364H562.944M370.361 109.364H306.167M370.361 109.364L385.002 100.02M562.944 109.364L551.835 119.112M385.002 100.02H322.138M473.203 129.291L459.564 139.931M473.203 129.291H540.236M551.835 119.112L540.236 129.291M540.236 129.291L528.112 139.931M391.015 139.931L375.159 151.063M391.015 139.931H459.564M391.015 139.931H322.466M459.564 139.931L445.293 151.063M459.564 139.931H528.112M528.112 139.931L515.427 151.063M375.159 151.063H445.293M375.159 151.063H305.025M430.346 162.722L445.293 151.063M430.346 162.722L414.674 174.946M430.346 162.722H502.14M445.293 151.063H515.427M305.025 151.063H234.891M305.025 151.063L322.466 139.931M515.427 151.063L502.14 162.722M322.466 139.931H253.918M414.674 174.946L398.224 187.779M414.674 174.946H488.21M502.14 162.722L488.21 174.946M488.21 174.946L473.588 187.779M322.859 187.779L303.65 201.265M322.859 187.779H398.224M322.859 187.779H247.496M398.224 187.779L380.934 201.265M398.224 187.779H473.588M473.588 187.779L458.22 201.265M303.65 201.265H380.934M303.65 201.265H226.364M362.74 215.457L380.934 201.265M362.74 215.457L343.57 230.411M362.74 215.457H442.047M380.934 201.265H458.22M226.364 201.265H149.079M226.364 201.265L247.496 187.779M458.22 201.265L442.047 215.457M247.496 187.779H172.132M343.57 230.411L323.34 246.192M343.57 230.411H425.006M442.047 215.457L425.006 230.411M425.006 230.411L407.025 246.192M239.655 246.192L215.902 262.866M239.655 246.192H323.34M239.655 246.192H155.971M323.34 246.192L301.962 262.866M323.34 246.192H407.025M407.025 246.192L388.022 262.866M215.902 262.866H301.962M215.902 262.866H129.843M279.335 280.517L301.962 262.866M279.335 280.517L255.346 299.229M279.335 280.517H367.909M301.962 262.866H388.022M129.843 262.866H43.783M129.843 262.866L155.971 246.192M388.022 262.866L367.909 280.517M155.971 246.192H72.2863M255.346 299.229L229.869 319.103M255.346 299.229H346.586M367.909 280.517L346.586 299.229M346.586 299.229L323.939 319.103M135.798 319.103L105.678 340.249M135.798 319.103H229.869M135.798 319.103H41.7283M229.869 319.103L202.76 340.249M229.869 319.103H323.939M323.939 319.103L299.843 340.249M105.678 340.249H202.76M105.678 340.249H8.59611M173.857 362.794L202.76 340.249M173.857 362.794L142.978 386.881M173.857 362.794H274.151M202.76 340.249H299.843M8.59611 340.249L41.7283 319.103M8.59611 340.249H1.5789M8.59611 340.249L1.5789 344.727M299.843 340.249L274.151 362.794M41.7283 319.103H1.5789M142.978 386.881L109.911 412.675M142.978 386.881H246.702M274.151 362.794L246.702 386.881M246.702 386.881L217.309 412.675M2.51161 412.675H109.911M2.51161 412.675H1.5789M2.51161 412.675L1.5789 413.33M109.911 412.675L74.4138 440.364M109.911 412.675H217.309M217.309 412.675L185.758 440.364M36.2115 470.164L74.4138 440.364M36.2115 470.164H151.799M36.2115 470.164H1.5789M36.2115 470.164L1.5789 497.179M74.4138 440.364H185.758M74.4138 440.364H1.5789M185.758 440.364L151.799 470.164M151.799 470.164L115.15 502.326M115.15 502.326L75.4752 537.143M115.15 502.326H1.5789M75.4752 537.143L32.3843 574.957M75.4752 537.143H1.5789M32.3843 574.957H1.5789M32.3843 574.957L1.5789 601.99M321.622 37.2318L307.955 44.0858M321.622 37.2318H375.543M321.622 37.2318H267.702M387.79 30.6173L399.618 24.23M387.79 30.6173L375.543 37.2318M387.79 30.6173H440.768M399.618 24.23H451.685M399.618 24.23L411.045 18.0591M359.857 18.0591H411.045M359.857 18.0591L371.755 12.0924M359.857 18.0591H308.668M375.543 37.2318L362.851 44.0858M375.543 37.2318H429.462M440.768 30.6173L451.685 24.23M440.768 30.6173L429.462 37.2318M451.685 24.23L462.234 18.0591M411.045 18.0591L412.446 17.3015L422.094 12.0924M411.045 18.0591H462.234M429.462 37.2318L417.747 44.0858M513.423 18.0591L522.771 12.0924M513.423 18.0591H462.234M462.234 18.0591L463.527 17.3015L472.432 12.0924M307.955 44.0858H362.851M307.955 44.0858H253.059M349.691 51.1922L362.851 44.0858M349.691 51.1922L336.037 58.5655M349.691 51.1922H405.6M362.851 44.0858H417.747M253.059 44.0858H198.163M253.059 44.0858L267.702 37.2318M417.747 44.0858L405.6 51.1922M267.702 37.2318H213.783M336.037 58.5655L321.861 66.221M336.037 58.5655H392.996M405.6 51.1922L404.049 52.0981L392.996 58.5655M392.996 58.5655L379.91 66.221M263.812 66.221L247.949 74.1762M263.812 66.221H321.861M263.812 66.221H205.762M321.861 66.221L307.131 74.1762M321.861 66.221H379.91M379.91 66.221L366.313 74.1762M247.949 74.1762H307.131M247.949 74.1762H188.766M291.814 82.4477L307.131 74.1762M291.814 82.4477L275.875 91.0552M291.814 82.4477H352.174M307.131 74.1762H366.313M188.766 74.1762H129.584M188.766 74.1762L205.762 66.221M366.313 74.1762L352.174 82.4477M205.762 66.221H147.713M275.875 91.0552L259.276 100.02M275.875 91.0552H337.461M352.174 82.4477L337.461 91.0552M337.461 91.0552L322.138 100.02M196.412 100.02L177.778 109.364M196.412 100.02H259.276M196.412 100.02H133.548M259.276 100.02L241.973 109.364M259.276 100.02H322.138M322.138 100.02L306.167 109.364M177.778 109.364H241.973M177.778 109.364H113.583M223.921 119.112L241.973 109.364M223.921 119.112L205.072 129.291M223.921 119.112H289.504M241.973 109.364H306.167M113.583 109.364H49.3894M113.583 109.364L133.548 100.02M306.167 109.364L289.504 119.112M133.548 100.02H70.6851M205.072 129.291L185.369 139.931M205.072 129.291H272.104M289.504 119.112L272.104 129.291M272.104 129.291L253.918 139.931M116.821 139.931L94.6223 151.063M116.821 139.931H185.369M116.821 139.931H48.273M185.369 139.931L164.756 151.063M185.369 139.931H253.918M253.918 139.931L234.891 151.063M94.6223 151.063H164.756M143.166 162.722L164.756 151.063M143.166 162.722L120.53 174.946M143.166 162.722H214.962M164.756 151.063H234.891M234.891 151.063L214.962 162.722M48.273 139.931H1.5789M120.53 174.946L96.7676 187.779M120.53 174.946H194.066M214.962 162.722L194.066 174.946M194.066 174.946L172.132 187.779M21.4033 187.779H96.7676M21.4033 187.779H1.5789M21.4033 187.779L1.5789 197.719M96.7676 187.779L71.7936 201.265M96.7676 187.779H172.132M172.132 187.779L149.079 201.265M45.514 215.457L71.7936 201.265M45.514 215.457L17.8225 230.411M45.514 215.457H124.821M45.514 215.457H1.5789M71.7936 201.265H149.079M71.7936 201.265H1.5789M149.079 201.265L124.821 215.457M1.36055 197.829L1.5789 197.719M17.8225 230.411H99.259M17.8225 230.411H1.5789M17.8225 230.411L1.5789 239.183M124.821 215.457L99.259 230.411M99.259 230.411L72.2863 246.192M72.2863 246.192L43.783 262.866M72.2863 246.192H1.5789M13.6135 280.517L43.783 262.866M13.6135 280.517H1.5789M13.6135 280.517L1.5789 287.558M43.783 262.866H1.5789M105.944 37.2318L88.3709 44.0858M105.944 37.2318H159.863M105.944 37.2318H52.0229M175.88 30.6173L191.346 24.23M175.88 30.6173L159.863 37.2318M175.88 30.6173H228.858M191.346 24.23H243.414M191.346 24.23L206.29 18.0591M155.101 18.0591H206.29M155.101 18.0591L170.399 12.0924M155.101 18.0591H103.913M159.863 37.2318L143.267 44.0858M159.863 37.2318H213.783M228.858 30.6173L243.414 24.23M228.858 30.6173L213.783 37.2318M243.414 24.23L257.478 18.0591M206.29 18.0591H257.478M206.29 18.0591L220.739 12.0924M213.783 37.2318L198.163 44.0858M308.668 18.0591L321.416 12.0924M308.668 18.0591H257.478M257.478 18.0591L271.077 12.0924M88.3709 44.0858H143.267M88.3709 44.0858H33.4749M126.058 51.1922L143.267 44.0858M126.058 51.1922L108.203 58.5655M126.058 51.1922H181.966M143.267 44.0858H198.163M33.4749 44.0858L52.0229 37.2318M33.4749 44.0858H1.5789M198.163 44.0858L181.966 51.1922M52.0229 37.2318H1.5789M108.203 58.5655L89.6642 66.221M108.203 58.5655H165.162M181.966 51.1922L165.162 58.5655M165.162 58.5655L147.713 66.221M31.6151 66.221L11.2196 74.1762M31.6151 66.221H89.6642M31.6151 66.221H1.5789M89.6642 66.221L70.4018 74.1762M89.6642 66.221H147.713M147.713 66.221L129.584 74.1762M50.3725 82.4477L70.4018 74.1762M50.3725 82.4477L29.5291 91.0552M50.3725 82.4477H110.733M50.3725 82.4477H1.5789M70.4018 74.1762H11.2196M70.4018 74.1762H129.584M11.2196 74.1762L1.5789 77.9359M11.2196 74.1762H1.5789M129.584 74.1762L110.733 82.4477M29.5291 91.0552L7.82127 100.02M29.5291 91.0552H91.1153M29.5291 91.0552H1.5789M110.733 82.4477L91.1153 91.0552M91.1153 91.0552L70.6851 100.02M7.82127 100.02H70.6851M7.82127 100.02L1.5789 102.597M7.82127 100.02H1.5789M70.6851 100.02L49.3894 109.364M27.1721 119.112L49.3894 109.364M27.1721 119.112L3.97284 129.291M27.1721 119.112H1.5789M49.3894 109.364H1.5789M1.24298 109.364H1.5789M3.97284 129.291H1.5789M3.97284 129.291L1.5789 130.341M1 130.595L1.5789 130.341M16.9469 30.6173L35.1422 24.23M16.9469 30.6173H1.5789M16.9469 30.6173L1.5789 36.0114M35.1422 24.23L52.7239 18.0591M35.1422 24.23H1.5789M103.913 18.0591L120.06 12.0924M103.913 18.0591H52.7239M52.7239 18.0591L69.7211 12.0924M52.7239 18.0591H1.5789M1781.25 12.0924H1831.58M1781.25 12.0924H1730.91M1819.25 6.32114L1822.3 7.74639L1831.58 12.0924M1819.25 6.32114H1868.77M1831.58 12.0924H1881.92M1868.77 6.32114L1872.02 7.74639L1873.65 8.46232L1881.92 12.0924M1881.92 12.0924H1932.26M1932.26 12.0924H1982.6M1730.91 12.0924H1680.57M1982.6 12.0924H2032.94M2032.94 12.0924L2017.32 6.32114M2032.94 12.0924H2083.28M2017.32 6.32114H2066.84M1579.89 12.0924H1630.23M1579.89 12.0924H1529.55M1621.18 6.32114L1623.42 7.74639L1624.54 8.46232L1630.23 12.0924M1621.18 6.32114H1670.7M1630.23 12.0924H1680.57M1670.7 6.32114L1680.57 12.0924M1529.55 12.0924H1479.21M1378.53 12.0924H1428.87M1378.53 12.0924H1328.19M1423.12 6.32114L1423.83 7.03157L1424.54 7.74639L1425.25 8.46232L1428.87 12.0924M1423.12 6.32114H1472.63M1428.87 12.0924H1479.21M1472.63 6.32114L1479.21 12.0924M1328.19 12.0924H1277.86M1177.18 12.0924H1227.52M1177.18 12.0924H1126.84M1225.05 6.32114L1227.52 12.0924M1225.05 6.32114H1274.57M1227.52 12.0924H1277.86M1274.57 6.32114L1274.97 7.03157L1275.38 7.74639L1275.79 8.46232L1277.86 12.0924M1126.84 12.0924H1076.5M975.822 12.0924H1026.16M975.822 12.0924H925.484M1026.98 6.32114L1026.16 12.0924M1026.98 6.32114H1076.5M1026.16 12.0924H1076.5M1076.5 6.32114V12.0924M925.484 12.0924H875.144M774.466 12.0924H824.805M774.466 12.0924H724.127M828.915 6.32114L827.901 7.74639L825.845 10.6309L824.805 12.0924M828.915 6.32114H878.432M824.805 12.0924H875.144M878.432 6.32114L878.027 7.03157L877.621 7.74639L877.212 8.46232L875.144 12.0924M724.127 12.0924H673.789M573.111 12.0924H623.45M573.111 12.0924H522.771M630.849 6.32114L629.022 7.74639L628.102 8.46232L623.45 12.0924M630.849 6.32114H680.366M623.45 12.0924H673.789M680.366 6.32114L679.555 7.03157L673.789 12.0924M522.771 12.0924H472.432M371.755 12.0924H422.094M371.755 12.0924H321.416M432.781 6.32114L430.142 7.74639L428.814 8.46232L422.094 12.0924M432.781 6.32114H482.298M422.094 12.0924H472.432M482.298 6.32114L481.082 7.03157L472.432 12.0924M321.416 12.0924H271.077M170.399 12.0924H220.739M170.399 12.0924H120.06M234.714 6.32114L220.739 12.0924M234.714 6.32114H284.231M220.739 12.0924H271.077M284.231 6.32114L280.983 7.74639L279.349 8.46232L271.077 12.0924M120.06 12.0924H69.7211M36.6471 6.32114L19.3823 12.0924M36.6471 6.32114H86.164M36.6471 6.32114H1.5789M19.3823 12.0924H69.7211M19.3823 12.0924L1.5789 18.0445M19.3823 12.0924H1.5789M86.164 6.32114L82.1039 7.74639L69.7211 12.0924M2066.84 6.32114L2070.9 7.74639L2083.28 12.0924M2083.28 12.0924H2133.62M2133.62 12.0924L2151.42 18.0445M2133.62 12.0924H2151.42M2151.42 287.558V280.517M2151.42 287.558V299.229M2151.42 280.517V262.866M2151.42 299.229V302.717V319.103M2151.42 319.103V340.249M2151.42 151.063V139.931M2151.42 151.063V161.785M2151.42 6.32114V12.0924M2151.42 12.0924V18.0445M2151.42 18.0445L2151.46 18.0591H2151.42M2151.42 18.0445V18.0591M2151.42 18.0591V24.23M2151.42 24.23V30.6173M2151.42 30.6173V36.0114M2151.42 36.0114V37.2318M2151.42 37.2318V44.0858M2151.42 44.0858V51.1922M2151.42 51.1922V55.87M2151.42 55.87V58.5655M2151.42 58.5655V66.221M2151.42 66.221V74.1762M2151.42 74.1762V77.9359M2151.42 77.9359V82.4477M2151.42 82.4477V91.0552M2151.42 91.0552V100.02M2151.42 100.02V102.597M2151.42 102.597V109.364M2151.42 109.364V119.112M2151.42 119.112V129.291M2151.42 129.291V130.341M2151.42 130.341V139.931M2151.42 162.722V174.946M2151.42 162.722V161.785M2151.42 174.946V187.779M2151.42 187.779V197.719M2151.42 197.719V201.265M2151.42 201.265V215.457M2151.42 215.457V230.411M2151.42 230.411V239.183M2151.42 239.183V246.192M2151.42 246.192V262.866M2151.42 340.249V344.727M2151.42 344.727V362.794M2151.42 362.794V386.881M2151.42 386.881V412.675M2151.42 412.675V413.33M2151.42 413.33V440.364M2151.42 440.364V470.164M2151.42 470.164V497.179M2151.42 497.179V502.326M2151.42 502.326V537.143M2151.42 537.143V574.957M2151.42 574.957V601.99M2151.42 601.99V616.173M2151.42 616.173V661.271M2151.42 661.271V710.828M2151.42 710.828V736.747M2151.42 736.747V765.539M2151.42 765.539V765.734H1.5789V765.539M1.5789 162.722V174.946M1.5789 162.722V161.785M1.5789 161.785V151.063M1.5789 151.063V139.931M1.5789 139.931V130.341M1.5789 130.341V129.291M1.5789 129.291V119.112M1.5789 119.112V109.364M1.5789 109.364V102.597M1.5789 102.597V100.02M1.5789 100.02V91.0552M1.5789 91.0552V82.4477M1.5789 82.4477V77.9359M1.5789 77.9359V74.1762M1.5789 74.1762V66.221M1.5789 66.221V58.5655M1.5789 58.5655V55.87M1.5789 55.87V51.1922M1.5789 51.1922V44.0858M1.5789 44.0858V37.2318M1.5789 37.2318V36.0114M1.5789 36.0114V30.6173M1.5789 30.6173V24.23M1.5789 24.23V18.0591M1.5789 18.0591H1.53523L1.5789 18.0445M1.5789 18.0591V18.0445M1.5789 18.0445V12.0924M1.5789 12.0924V6.32114M1.5789 765.539V736.747M1.5789 736.747V710.828M1.5789 710.828V661.272M1.5789 661.272V616.173M1.5789 616.173V601.99M1.5789 601.99V574.957M1.5789 574.957V537.143M1.5789 537.143V502.326M1.5789 502.326V497.179M1.5789 497.179V470.164M1.5789 470.164V440.364M1.5789 440.364V413.33M1.5789 413.33V412.675M1.5789 412.675V386.881M1.5789 386.881V362.794M1.5789 362.794V344.727M1.5789 344.727V340.249M1.5789 340.249V319.103M1.5789 319.103V299.229M1.5789 299.229V287.558M1.5789 287.558V280.517M1.5789 280.517V262.866M1.5789 262.866V246.192M1.5789 246.192V239.183M1.5789 239.183V230.411M1.5789 230.411V215.457M1.5789 215.457V201.265M1.5789 201.265V197.719M1.5789 197.719V187.779M1.5789 187.779V174.946" stroke="url(#paint0_radial_2685_14)" stroke-width="1.2" stroke-miterlimit="10" stroke-linecap="round" stroke-linejoin="round"/>
</g>
<defs>
<radialGradient id="paint0_radial_2685_14" cx="0" cy="0" r="1" gradientUnits="userSpaceOnUse" gradientTransform="translate(1076.5 383.234) rotate(90) scale(277.304 776.596)">
<stop offset="0.573868" stop-color="#81B7F0" stop-opacity="0.56"/>
<stop offset="1" stop-color="#081424" stop-opacity="0"/>
</radialGradient>
</defs>
</svg>
